<?xml version="1.0" ?><svg viewBox="0 0 512 512" xmlns="http://www.w3.org/2000/svg"><title/><g id="Floating_market"><path d="M441.79,388.37c-3.2,0-4.72-1.51-6.65-3.43s-4.61-4.6-9.47-4.6-7.41,2.55-9.46,4.6-3.44,3.43-6.65,3.43-4.72-1.51-6.64-3.43-4.61-4.6-9.47-4.6-7.41,2.55-9.47,4.6-3.44,3.43-6.64,3.43-4.72-1.51-6.64-3.43-4.61-4.6-9.46-4.6-7.41,2.55-9.47,4.6-3.44,3.43-6.64,3.43-4.72-1.51-6.64-3.43-4.62-4.6-9.47-4.6v4c3.2,0,4.72,1.52,6.64,3.43s4.61,4.6,9.47,4.6,7.41-2.55,9.47-4.6,3.44-3.43,6.64-3.43,4.72,1.52,6.64,3.43,4.61,4.6,9.46,4.6,7.41-2.55,9.47-4.6,3.44-3.43,6.64-3.43,4.72,1.52,6.65,3.43,4.61,4.6,9.46,4.6,7.42-2.55,9.47-4.6,3.44-3.43,6.64-3.43,4.73,1.52,6.65,3.43,4.62,4.6,9.47,4.6,7.42-2.55,9.47-4.6,3.45-3.43,6.65-3.43v-4c-4.85,0-7.41,2.55-9.47,4.6S445,388.37,441.79,388.37Z"/><path d="M441.79,423.69c-3.2,0-4.72-1.52-6.65-3.43s-4.61-4.6-9.47-4.6-7.41,2.55-9.46,4.6-3.44,3.43-6.65,3.43-4.72-1.52-6.64-3.43-4.61-4.6-9.47-4.6-7.41,2.55-9.47,4.6-3.44,3.43-6.64,3.43-4.72-1.52-6.64-3.43-4.61-4.6-9.46-4.6-7.41,2.55-9.47,4.6-3.44,3.43-6.64,3.43-4.72-1.52-6.64-3.43-4.62-4.6-9.47-4.6v4c3.2,0,4.72,1.51,6.64,3.43s4.61,4.6,9.47,4.6,7.41-2.55,9.47-4.6,3.44-3.43,6.64-3.43,4.72,1.51,6.64,3.43,4.61,4.6,9.46,4.6,7.41-2.55,9.47-4.6,3.44-3.43,6.64-3.43,4.72,1.51,6.65,3.43,4.61,4.6,9.46,4.6,7.42-2.55,9.47-4.6,3.44-3.43,6.64-3.43,4.73,1.51,6.65,3.43,4.62,4.6,9.47,4.6,7.42-2.55,9.47-4.6,3.45-3.43,6.65-3.43v-4c-4.85,0-7.41,2.55-9.47,4.6S445,423.69,441.79,423.69Z"/><path d="M441.79,406c-3.2,0-4.72-1.52-6.65-3.43s-4.61-4.6-9.47-4.6-7.41,2.55-9.46,4.6-3.44,3.43-6.65,3.43-4.72-1.52-6.64-3.43-4.61-4.6-9.47-4.6-7.41,2.55-9.47,4.6-3.44,3.43-6.64,3.43-4.72-1.51-6.64-3.43-4.61-4.6-9.46-4.6-7.41,2.55-9.47,4.6-3.44,3.43-6.64,3.43-4.72-1.52-6.64-3.43S333.87,398,329,398v4c3.2,0,4.72,1.51,6.64,3.43s4.61,4.6,9.47,4.6,7.41-2.55,9.47-4.6S358,402,361.24,402s4.72,1.51,6.64,3.43,4.61,4.6,9.46,4.6,7.41-2.55,9.47-4.6,3.44-3.43,6.64-3.43,4.72,1.52,6.65,3.43,4.61,4.6,9.46,4.6,7.42-2.55,9.47-4.6,3.44-3.43,6.64-3.43,4.73,1.52,6.65,3.43,4.62,4.6,9.47,4.6,7.42-2.55,9.47-4.6,3.45-3.43,6.65-3.43v-4c-4.85,0-7.41,2.55-9.47,4.6S445,406,441.79,406Z"/><path d="M441.79,441.34c-3.2,0-4.72-1.51-6.65-3.43s-4.61-4.59-9.47-4.59-7.41,2.55-9.46,4.59-3.44,3.43-6.65,3.43-4.72-1.51-6.64-3.43-4.61-4.59-9.47-4.59-7.41,2.55-9.47,4.59-3.44,3.43-6.64,3.43-4.72-1.51-6.64-3.43-4.61-4.59-9.46-4.59-7.41,2.55-9.47,4.59-3.44,3.43-6.64,3.43-4.72-1.51-6.64-3.43-4.62-4.59-9.47-4.59v4c3.2,0,4.72,1.51,6.64,3.43s4.61,4.59,9.47,4.59,7.41-2.54,9.47-4.59,3.44-3.43,6.64-3.43,4.72,1.51,6.64,3.43,4.61,4.59,9.46,4.59,7.41-2.54,9.47-4.59,3.44-3.43,6.64-3.43,4.72,1.51,6.65,3.43,4.61,4.59,9.46,4.59,7.42-2.54,9.47-4.59,3.44-3.43,6.64-3.43,4.73,1.51,6.65,3.43,4.62,4.59,9.47,4.59,7.42-2.54,9.47-4.59,3.45-3.43,6.65-3.43v-4c-4.85,0-7.41,2.55-9.47,4.59S445,441.34,441.79,441.34Z"/><path d="M166.86,388.37c-3.2,0-4.72-1.51-6.65-3.43s-4.61-4.6-9.47-4.6-7.41,2.55-9.47,4.6-3.44,3.43-6.64,3.43-4.72-1.51-6.64-3.43-4.62-4.6-9.47-4.6-7.41,2.55-9.47,4.6-3.44,3.43-6.64,3.43-4.72-1.51-6.64-3.43-4.61-4.6-9.46-4.6-7.42,2.55-9.47,4.6-3.44,3.43-6.64,3.43-4.72-1.51-6.65-3.43-4.61-4.6-9.46-4.6v4c3.2,0,4.72,1.52,6.64,3.43s4.61,4.6,9.47,4.6,7.41-2.55,9.46-4.6,3.44-3.43,6.65-3.43S91,385.86,93,387.77s4.61,4.6,9.46,4.6,7.41-2.55,9.47-4.6,3.44-3.43,6.64-3.43,4.72,1.52,6.64,3.43,4.62,4.6,9.47,4.6,7.41-2.55,9.47-4.6,3.44-3.43,6.64-3.43,4.72,1.52,6.65,3.43,4.61,4.6,9.47,4.6,7.42-2.55,9.47-4.6,3.45-3.43,6.65-3.43v-4c-4.86,0-7.42,2.55-9.47,4.6S170.06,388.37,166.86,388.37Z"/><path d="M166.86,423.69c-3.2,0-4.72-1.52-6.65-3.43s-4.61-4.6-9.47-4.6-7.41,2.55-9.47,4.6-3.44,3.43-6.64,3.43-4.72-1.52-6.64-3.43-4.62-4.6-9.47-4.6-7.41,2.55-9.47,4.6-3.44,3.43-6.64,3.43-4.72-1.52-6.64-3.43-4.61-4.6-9.46-4.6-7.42,2.55-9.47,4.6-3.44,3.43-6.64,3.43-4.72-1.52-6.65-3.43-4.61-4.6-9.46-4.6v4c3.2,0,4.72,1.51,6.64,3.43s4.61,4.6,9.47,4.6,7.41-2.55,9.46-4.6,3.44-3.43,6.65-3.43S91,421.17,93,423.09s4.61,4.6,9.46,4.6,7.41-2.55,9.47-4.6,3.44-3.43,6.64-3.43,4.72,1.51,6.64,3.43,4.62,4.6,9.47,4.6,7.41-2.55,9.47-4.6,3.44-3.43,6.64-3.43,4.72,1.51,6.65,3.43,4.61,4.6,9.47,4.6,7.42-2.55,9.47-4.6,3.45-3.43,6.65-3.43v-4c-4.86,0-7.41,2.55-9.47,4.6S170.06,423.69,166.86,423.69Z"/><path d="M166.86,406c-3.2,0-4.72-1.52-6.65-3.43s-4.61-4.6-9.47-4.6-7.41,2.55-9.47,4.6-3.44,3.43-6.64,3.43-4.72-1.51-6.64-3.43-4.62-4.6-9.47-4.6-7.41,2.55-9.47,4.6-3.44,3.43-6.64,3.43-4.72-1.51-6.64-3.43-4.61-4.6-9.46-4.6-7.42,2.55-9.47,4.6S73.4,406,70.2,406s-4.72-1.51-6.65-3.43-4.61-4.6-9.46-4.6v4c3.2,0,4.72,1.51,6.64,3.43s4.61,4.6,9.47,4.6,7.41-2.55,9.46-4.6S83.1,402,86.31,402,91,403.51,93,405.43s4.61,4.6,9.46,4.6,7.41-2.55,9.47-4.6,3.44-3.43,6.64-3.43,4.72,1.52,6.64,3.43,4.62,4.6,9.47,4.6,7.41-2.55,9.47-4.6,3.44-3.43,6.64-3.43,4.72,1.52,6.65,3.43,4.61,4.6,9.47,4.6,7.42-2.55,9.47-4.6S179.78,402,183,402v-4c-4.86,0-7.41,2.55-9.47,4.6S170.06,406,166.86,406Z"/><path d="M166.86,441.34c-3.2,0-4.72-1.51-6.65-3.43s-4.61-4.59-9.47-4.59-7.41,2.55-9.47,4.59-3.44,3.43-6.64,3.43-4.72-1.51-6.64-3.43-4.62-4.59-9.47-4.59-7.41,2.55-9.47,4.59-3.44,3.43-6.64,3.43-4.72-1.51-6.64-3.43-4.61-4.59-9.46-4.59-7.42,2.55-9.47,4.59-3.44,3.43-6.64,3.43-4.72-1.51-6.65-3.43-4.61-4.59-9.46-4.59v4c3.2,0,4.72,1.51,6.64,3.43s4.61,4.59,9.47,4.59,7.41-2.54,9.46-4.59,3.44-3.43,6.65-3.43S91,438.83,93,440.75s4.61,4.59,9.46,4.59,7.41-2.54,9.47-4.59,3.44-3.43,6.64-3.43,4.72,1.51,6.64,3.43,4.62,4.59,9.47,4.59,7.41-2.54,9.47-4.59,3.44-3.43,6.64-3.43,4.72,1.51,6.65,3.43,4.61,4.59,9.47,4.59,7.42-2.54,9.47-4.59,3.45-3.43,6.65-3.43v-4c-4.86,0-7.41,2.55-9.47,4.59S170.06,441.34,166.86,441.34Z"/><path d="M256.31,328.71a13,13,0,1,0,13,13A13,13,0,0,0,256.31,328.71Zm0,21.91a9,9,0,1,1,9-8.95A9,9,0,0,1,256.31,350.62Z"/><path d="M229.75,205.15a25.36,25.36,0,1,0,25.36,25.36A25.38,25.38,0,0,0,229.75,205.15ZM208.4,230.51a21.33,21.33,0,0,1,35-16.44l-30.05,30.05A21.29,21.29,0,0,1,208.4,230.51Zm21.35,21.35A21.29,21.29,0,0,1,216.14,247l30.05-30a21.33,21.33,0,0,1-16.44,35Z"/><path d="M278.74,168.78a25.7,25.7,0,1,0,25.69,25.69A25.73,25.73,0,0,0,278.74,168.78Zm0,47.39a21.72,21.72,0,0,1-21.6-19.7h43.19A21.72,21.72,0,0,1,278.74,216.17Zm-21.6-23.7a21.69,21.69,0,0,1,43.19,0Z"/><path d="M379.39,254.83a15.62,15.62,0,0,0-11.22,4.78,11.59,11.59,0,0,1-8.33,3.55H349.42v5.37H322.51a454.21,454.21,0,0,0-23.58-168.27L274.15,27.51H237.88L213,101.14a454.31,454.31,0,0,0-23.27,167.39H162.58v-5.37H152.16a11.59,11.59,0,0,1-8.33-3.55,15.63,15.63,0,0,0-11.22-4.78H52.09v31.41h80.52a15.64,15.64,0,0,0,11.22-4.79,11.59,11.59,0,0,1,8.33-3.55h10.42v-5.37h27.31a451.14,451.14,0,0,0,5.16,46.78A65.15,65.15,0,0,0,212.57,390l24.74,73.13v21.37h37.41V463.13l24.21-71.08.15-.46.36-1.07a65.06,65.06,0,0,0,17.82-72,449.88,449.88,0,0,0,5-46h27.13v5.37h10.42a11.59,11.59,0,0,1,8.33,3.55,15.64,15.64,0,0,0,11.22,4.79h80.52V254.83ZM158.58,273.9h-6.42a15.63,15.63,0,0,0-11.22,4.78,11.58,11.58,0,0,1-8.33,3.56H56.09v-9.71h44.05v-4h-44v-9.7h76.52a11.57,11.57,0,0,1,8.33,3.55,15.63,15.63,0,0,0,11.22,4.78h6.42ZM252.35,31.51h7.33V54.43h-7.33ZM299.69,293v-20.5H310.1q-.94,14.24-2.94,28.38A65.5,65.5,0,0,0,299.69,293Zm17.54,54.58-8.5,8.5L294,341.43l14.69-14.69,8.45,8.45a63,63,0,0,1,.34,6.48C317.52,343.67,317.42,345.66,317.23,347.61ZM195.1,341.67a60.8,60.8,0,0,1,.39-6.78l8.15-8.15,14.68,14.69-14.68,14.68-8.22-8.22A60.8,60.8,0,0,1,195.1,341.67Zm10-40.28q-2-14.37-3-28.86h10.55V293.3A66.43,66.43,0,0,0,205.08,301.39Zm65.79,57.55-14.69,14.69L241.5,358.94l1.44-1.44a20.71,20.71,0,0,0,26.61.12Zm-8.08-78.14,8.08,8.08-14.69,14.69L241.5,288.88l8-8a60.49,60.49,0,0,1,6.77-.38A63,63,0,0,1,262.79,280.8Zm-6.48,77.6a16.76,16.76,0,1,1,16.76-16.75A16.76,16.76,0,0,1,256.31,358.4Zm13-32.92a20.68,20.68,0,0,0-26.12.11l-1.68-1.68,14.68-14.68,14.69,14.68Zm-30.63-39.43-2.26-2.25a61,61,0,0,1,6.32-1.8Zm14.68,20.35-14.68,14.68L224,306.4l14.69-14.69Zm-13,22a20.7,20.7,0,0,0-.19,26.23l-1.48,1.47L224,341.43l14.69-14.69Zm36.73,13.24a20.62,20.62,0,0,0-4.91-13.37l1.54-1.54,14.68,14.69L273.7,356.11l-1.33-1.33A20.67,20.67,0,0,0,277.07,341.65Zm-3.37-20.57L259,306.4l14.69-14.69,14.68,14.69Zm-4.14-39.16a60.43,60.43,0,0,1,6.46,1.81l-2.32,2.32Zm-13.25-5.46A64.83,64.83,0,0,0,216.63,290V272.53h79.06v17.2A64.89,64.89,0,0,0,256.31,276.46Zm-24,8.9,3.52,3.52-14.69,14.69-6.6-6.6A61.39,61.39,0,0,1,232.32,285.36Zm3.52,38.55L221.15,338.6l-14.68-14.69,14.68-14.68Zm-14.69,20.35,14.69,14.68-14.69,14.69-14.68-14.69Zm17.52,17.51,14.68,14.69-14.68,14.68L224,376.46Zm4.68,39.71a61.59,61.59,0,0,1-7.3-2.06l2.62-2.62Zm6.73,1.08L241.5,394l14.68-14.68L270.87,394l-8.61,8.61c-2,.19-3.94.3-5.95.3A61.14,61.14,0,0,1,250.08,402.56Zm23.62-5.76,2.68,2.68a62,62,0,0,1-7.44,2.08ZM259,376.46l14.69-14.69,14.68,14.69L273.7,391.14Zm17.52-17.52,14.68-14.68,14.69,14.68-14.69,14.69Zm14.68-20.34-14.68-14.69,14.68-14.68,14.69,14.68Zm-14.68-49.72,3.6-3.6a61.57,61.57,0,0,1,17.81,11.56l-6.73,6.73Zm19.16-20.35H216.63V260a32.24,32.24,0,0,0,44.08-20.36h35Zm-65.94-9.74a28.31,28.31,0,0,1-28.25-27.27c.06-1.5.12-3,.2-4.51a28.27,28.27,0,1,1,28.05,31.78Zm-17.12-.94v10.68H201.84q-.65-11.46-.62-22.95A32.43,32.43,0,0,0,212.63,257.85Zm-.91,41.95,6.6,6.6-14.68,14.68-3.57-3.56A61.48,61.48,0,0,1,211.72,299.8ZM198.5,321.6l2.31,2.31-4.17,4.17A58.71,58.71,0,0,1,198.5,321.6Zm2.31,37.34-2.43,2.44a59.07,59.07,0,0,1-1.88-6.75Zm2.83,2.83,14.68,14.69-6.83,6.83a61.23,61.23,0,0,1-11.56-17.81Zm17.51,17.52L235.84,394,232,397.82a61.2,61.2,0,0,1-17.68-11.69Zm35.16,27.59a64.9,64.9,0,0,0,24-4.58l-15.06,45.52H246.84l-15.05-45.75A64.75,64.75,0,0,0,256.31,406.88Zm24.15-9L276.53,394l14.68-14.68,7,7A61.24,61.24,0,0,1,280.46,397.9ZM294,376.46l14.69-14.69,3.89,3.89A61.21,61.21,0,0,1,301,383.42Zm17.52-17.52,4.64-4.65a59.3,59.3,0,0,1-2,7.28Zm0-35,2.5-2.5a61.17,61.17,0,0,1,2,7Zm-2.83-2.83L294,306.4l6.73-6.74a61.44,61.44,0,0,1,11.7,17.68Zm-9-52.55v-32.9H261.62a32.27,32.27,0,0,0-1-14.43,32.25,32.25,0,0,0,48.24-15.26,394,394,0,0,1,1.45,62.59Zm-20.95-45.78A28.28,28.28,0,1,1,307,194.47,28.3,28.3,0,0,1,278.74,222.75Zm0-60.56a32.28,32.28,0,0,0-30.91,41.59,32.22,32.22,0,0,0-45.2,9.27A393.8,393.8,0,0,1,211.24,158H301q1.94,8.47,3.51,17A32.23,32.23,0,0,0,278.74,162.19ZM212.17,154c.23-1,.47-1.9.71-2.84h86.44c.23.94.47,1.89.7,2.84Zm58-24.68a11.82,11.82,0,0,0-1.79,1.05,7.43,7.43,0,1,1,1.79-1.05Zm4.81,2.92a7.39,7.39,0,1,1-4.57,1.6,12.44,12.44,0,0,0,1.8-1.05A7.28,7.28,0,0,1,275,132.23Zm-8.49,14.92H264.9a11.24,11.24,0,0,0,.79-1A11.57,11.57,0,0,0,266.51,147.15Zm-2.88-7.38a7.38,7.38,0,1,1-7.38-7.37A7.39,7.39,0,0,1,263.63,139.77Zm-7.38-25.11a7.37,7.37,0,1,1,7.38-7.37A7.38,7.38,0,0,1,256.25,114.66Zm-2,8.87a7.37,7.37,0,1,1-7.37-7.37A7.38,7.38,0,0,1,254.25,123.53Zm-6.64,23.62h-1.46a10.91,10.91,0,0,0,.73-1C247.11,146.53,247.35,146.84,247.61,147.15Zm-2.73-7.38a7.37,7.37,0,1,1-7.37-7.37A7.38,7.38,0,0,1,244.88,139.77Zm0-32.48a11.43,11.43,0,0,0,1.13,4.92,11.37,11.37,0,0,0-10.5,11.32,11.25,11.25,0,0,0,1.13,4.92,11.35,11.35,0,0,0-7.77,18.7h-15q3.51-13.53,8-26.78l6.92-20.45h18.81A11.31,11.31,0,0,0,244.88,107.29Zm38.6,39.86A11.34,11.34,0,0,0,276,128.28a11.34,11.34,0,0,0-9.46-16.07,11.26,11.26,0,0,0-1.59-12.29h18.45l6.7,19.68q4.63,13.62,8.25,27.55ZM230.15,95.92l1-2.84H281l1,2.84Zm37.55-6.84,8.92-8.92,3,8.92Zm-5.66,0H246.68l24.6-24.6,3.9,11.46Zm-21,0h-8.56l3.48-10.28L256.3,58.43h12.92l.62,1.83Zm-2.19-18.83,4-11.82h7.82Zm-22.08,32.18,24-70.92h7.6V54.43H240l-21.87,64.65a397.53,397.53,0,0,0-20.38,107.59,32.45,32.45,0,0,0-.24,3.84c0,.33,0,.65,0,1-.46,12.34-.35,24.71.34,37h-4.15A450.33,450.33,0,0,1,216.75,102.43ZM193.9,272.53h4.17q1.11,16.83,3.65,33.53a66.56,66.56,0,0,0-3.69,6.41Q195.06,292.6,193.9,272.53Zm54.45,208h-7v-18l-22.95-67.82a66.16,66.16,0,0,0,8.47,5.15l17.12,52h4.4Zm11.33,0h-7.33V451.82h7.33Zm11.14-18.34-.1.31v18h-7V451.82h4.42l17.1-51.72a64,64,0,0,0,8.48-5Zm43.44-150.34a66.1,66.1,0,0,0-3.72-6.31q2.49-16.41,3.57-33h4.18Q317.14,292.24,314.26,311.81Zm4.24-43.28h-4.15a398.15,398.15,0,0,0-20.51-150.22L272.09,54.43h-8.41V31.51h7.6l23.86,70A450.05,450.05,0,0,1,318.5,268.53Zm137.41,0H411.86v4h44.05v9.71H379.39a11.58,11.58,0,0,1-8.33-3.56,15.63,15.63,0,0,0-11.22-4.78h-6.42v-6.74h6.42a15.63,15.63,0,0,0,11.22-4.78,11.57,11.57,0,0,1,8.33-3.55h76.52Z"/></g></svg>