<?xml version="1.0" ?><svg viewBox="0 0 512 512" xmlns="http://www.w3.org/2000/svg"><title/><g id="Thai_spicy_food"><rect height="6.23" width="6.23" x="259.65" y="246.19"/><rect height="6.23" width="6.23" x="303.74" y="224.75"/><rect height="6.23" width="6.23" x="271.3" y="227.86"/><rect height="6.23" width="6.23" x="290.16" y="242.2"/><rect height="6.23" width="6.23" x="323.47" y="245.32"/><path d="M306.3,440.24h51.36a18.35,18.35,0,0,0,16.18-9.72H480v-4H423.4a7.6,7.6,0,0,0,1.48-4.52v-.11A76.81,76.81,0,0,0,413.11,381a11,11,0,0,1,4.07-15.46,110.23,110.23,0,0,0,57.94-97.08V178.79h0v-15.9a20.5,20.5,0,0,0-20.47-20.47H337.25L277.92,87.56c-.92-.87-1.77-1.74-2.48-2.53l-.22-.24-.14-.16a37.89,37.89,0,0,1-3.38-4.41,39.67,39.67,0,0,1-4.3-8.59,44.1,44.1,0,0,0-10.32-16.3L242.19,40.44a11.38,11.38,0,0,0-16.13,0L206.17,60.33a11.4,11.4,0,0,0,0,16.12l14.9,14.91a43.92,43.92,0,0,0,7.59,6,42.49,42.49,0,0,0,8.71,4.24,40.66,40.66,0,0,1,15.91,10.52l28,30.25h-6.18a20.49,20.49,0,0,0-20.47,20.47v11.9h0v53.83c-3.56,1.11-7.11,2.37-9.28,5.34-2.32,3.19-2.26,7.31-2.21,11.29a23.72,23.72,0,0,1-.58,7.22,19.84,19.84,0,0,1-3.12,5.22H227.6v27h-4.94v27.93A12.66,12.66,0,0,0,212,325.13V426.52h-8.82V275.84h-7.52v-50h-142v50H46.91V422.9a27.06,27.06,0,0,0,.25,3.62H32v4H48a27,27,0,0,0,25.9,19.39H188.75a10.48,10.48,0,0,1,7.77,3.46,12.56,12.56,0,0,1-9.92,4.87H118.68A14.68,14.68,0,0,0,104,472.91h4a10.68,10.68,0,0,1,10.66-10.67H186.6A16.49,16.49,0,0,0,198.67,457a10.48,10.48,0,0,1-9.92,13.92h-55.5v4h55.5a14.48,14.48,0,0,0,12.58-21.68,16.48,16.48,0,0,0,1.85-7.57V430.52H212v.13a17.75,17.75,0,0,0,17.73,17.73h61.85a15,15,0,0,0,14.72,17.86H368v-4H306.3a11,11,0,0,1-11-11,11.28,11.28,0,0,1,.39-2.86H408.14A15.88,15.88,0,0,1,424,464.24h4a19.88,19.88,0,0,0-19.86-19.86H297.72A11,11,0,0,1,306.3,440.24ZM181.2,386.45v10.79H164.86v4H181.2V412H164.86v4H181.2v10.49H68.11V416H84.46v-4H68.11V401.24H84.46v-4H68.11V386.45H84.46v-4H68.11V372H181.2v10.48H164.86v4ZM57.66,367.66v-6.09h134v6.09Zm134-108.37-14,14L163,258.59l14.84-14.83,13.79,13.79Zm0,35.32-14,14-14.84-14.83,14.85-14.84,14,14Zm0,35.34-13.8,13.79L163,328.9l14.66-14.66,14,14Zm-134-1.31,14.39-14.4,14.84,14.84L72.05,343.91l-14.39-14.4Zm0-35.34,14.39-14.39,14.84,14.84L72.05,308.59l-14.39-14.4Zm46.89,18.11L89.71,326.25,74.88,311.42l14.84-14.84Zm-12-17.66,14.84-14.84,14.84,14.84-14.84,14.84Zm14.84,20.49L122,328.9,107.2,343.74,92.54,329.08Zm2.83-2.83L125,296.58l14.67,14.66-14.84,14.84Zm17.66-17.66,14.67-14.66,14.66,14.66-14.67,14.66Zm14.66,20.32,14.84,14.83-14.84,14.84L127.7,328.9Zm2.83-2.83L160,296.58l14.83,14.83L160.2,326.07Zm0-35,14.85-14.84,14.66,14.66L160,290.92Zm-2.82-2.83L127.7,258.59l14.84-14.84,14.84,14.84Zm-2.83,2.83-14.66,14.66-14.84-14.84,14.66-14.66Zm-32.33-3L92.54,258.42l14.67-14.66L122,258.59Zm-2.83,2.82L89.72,290.92,74.88,276.08l14.84-14.83Zm-24.5,81.49h-16l8-8Zm5.66,0L74.88,346.74l14.83-14.83,14.66,14.66-11,11Zm21.49-8.17,8.18,8.17H99ZM121,357.57l-11-11,14.84-14.84,14.83,14.84-11,11Zm21.49-8.17,8.18,8.17H134.36Zm13.84,8.17-11-11,14.84-14.84L175,346.57l-11,11Zm21.49-8.17,8.18,8.17H169.69Zm2.83-108.47,11-11v21.92Zm-2.82-2.83-8.24-8.24h16.48ZM175,240.93l-14.83,14.83-14.84-14.84,11.06-11.06H164Zm-32.5-2.84-8.23-8.23h16.46Zm-2.83,2.83-14.84,14.84L110,240.93l11.08-11.07h7.54Zm-32.5-2.82L99,229.86h16.48Zm-2.83,2.83L89.72,255.59,74.88,240.75l10.89-10.89h7.54Zm-32.33-3L64,229.86H80.11Zm0,5.66,14.84,14.84L72.05,273.25,57.66,258.86V258Zm-2.83,32.5L57.66,287.64V264.52Zm0,35.34L57.66,323V299.85Zm0,35.32L58.39,357.57h-.73v-22.4Zm122.44,10.79-11-11,11-11Zm0-35-11.14-11.14,11.14-11.14Zm0-35.34-11.14-11.13L191.66,265ZM58.33,229.86l10.89,10.89L57.66,252.31V229.86Zm-7.42,193V279.84h2.75v91.82H64.11v54.86H51.19A24,24,0,0,1,50.91,422.9Zm148.27,22.76a12.6,12.6,0,0,1-.68,4,14.45,14.45,0,0,0-9.75-3.8H73.91a23,23,0,0,1-21.7-15.39h147Zm0-19.14h-14V371.66h10.46V279.84h3.52ZM372,421.91a14.12,14.12,0,0,1-.78,4.61h-6.56V416.09H372Zm0-9.82h-7.34v-95.4a9.36,9.36,0,0,1,7.34,9.12Zm48.88,9.8V422a3.74,3.74,0,0,1-3.73,3.72H375.59a18.38,18.38,0,0,0,.41-3.81v-5.82h44.62C420.77,418,420.88,420,420.88,421.89ZM209,73.62a7.39,7.39,0,0,1,0-10.46l19.89-19.89a7.42,7.42,0,0,1,5.59-2.17h.08a7.42,7.42,0,0,1,4.8,2.17l1.15,1.15L210.16,74.78Zm42.59,31.52a43.77,43.77,0,0,0-12.88-7.25A39.18,39.18,0,0,1,230.79,94a40.43,40.43,0,0,1-6.9-5.5L213,77.6l30.37-30.35,10.91,10.91A40,40,0,0,1,263.63,73a43.74,43.74,0,0,0,4.73,9.45,38.66,38.66,0,0,0,2.51,3.43Zm4.62,4.31c-.54-.59-1.08-1.13-1.62-1.66l19-19c.52.55,1.07,1.09,1.65,1.64l1.95,1.8L258,111.4Zm4.52,4.89L280.08,95l51.28,47.42H286.7Zm-2.13,48.55a16.49,16.49,0,0,1,16.47-16.47H454.65a16.49,16.49,0,0,1,16.47,16.47v11.9H258.6Zm0,15.9H471.12v6.45H258.6Zm0,10.45H471.12v12.85H443.5v4h27.62v10.5H443.5v4h27.62v10.5H443.5v4h27.62V245.6H443.5v4h27.62v10.5H443.5v4h27.62v4.4a106.24,106.24,0,0,1-55.84,93.56,14.93,14.93,0,0,0-7.84,13.15,15.1,15.1,0,0,0,2.28,8,73,73,0,0,1,10.49,28.92H376V325.81a13.35,13.35,0,0,0-11.34-13.17V284.72H359v-27H347.9a19.68,19.68,0,0,1-3.11-5.22,23.7,23.7,0,0,1-.59-7.22c.06-4,.11-8.1-2.21-11.29s-6.29-4.42-10.11-5.6a23.17,23.17,0,0,1-6.63-2.76,22.89,22.89,0,0,1-4.59-5.39c-2.31-3.3-4.7-6.71-8.54-8-3.67-1.19-7.53.12-11.26,1.39a23.65,23.65,0,0,1-7.2,1.7,23.71,23.71,0,0,1-7.21-1.7c-3.73-1.27-7.59-2.58-11.26-1.39-3.83,1.25-6.22,4.66-8.53,8a22.91,22.91,0,0,1-4.6,5.39,13.8,13.8,0,0,1-3.46,1.72ZM360.66,363.08l-14.39,14.39-14.84-14.84,14.83-14.84,14.4,14.39Zm0,35.33L346.27,412.8,331.43,398l14.84-14.84,14.39,14.39ZM313.76,345l14.84-14.83L343.44,345,328.6,359.8Zm12,17.67-14.84,14.84L296.1,362.63l14.84-14.84Zm-14.83-20.49-14.67-14.66,14.84-14.84,14.66,14.66ZM308.11,345,293.27,359.8l-14.66-14.66,14.84-14.84Zm-17.67,17.67-14.66,14.66-14.66-14.66L275.78,348Zm-14.66-20.32L261,327.48l14.83-14.84,14.84,14.84ZM273,345.14,258.29,359.8,243.46,345l14.66-14.67Zm-32.32-3-14-14v-1.74l13.79-13.79,14.84,14.84Zm14.83,20.49-14.84,14.84-14-14v-1.75l14-14Zm-.18,35.16-14.83,14.83-13.79-13.79v-1.75l14-13.95ZM243.45,380.3l14.84-14.84L273,380.12,258.11,395ZM275.78,383l14.84,14.84-14.84,14.84-14.84-14.84Zm2.83-2.83,14.66-14.66,14.84,14.83L293.45,395Zm32.33,3L325.77,398l-14.66,14.66-14.84-14.84Zm2.82-2.83,14.84-14.83,14.84,14.84L328.6,395.13Zm32.5-38.16L331.43,327.3l14.83-14.83,14.4,14.39v.88Zm14.4-20.92-11.57-11.57,10.84-10.83h.73Zm-14.39-14.4-8-8h16Zm-13.66-8,10.83,10.83L328.6,324.47l-14.66-14.66,11-11ZM311.11,307l-8.17-8.17h16.35Zm-13.83-8.17,11,11-14.83,14.84-14.84-14.84,11-11ZM275.78,307l-8.17-8.17H284ZM262,298.81l11,11-14.83,14.84-14.84-14.84,11-11ZM240.45,307l-8.17-8.17h16.35Zm-2.83,2.83-11,11V298.84ZM237.8,345l-11.14,11.14V333.82Zm0,35.33-11.13,11.13V369.16Zm-.17,35.15-11,11V404.48Zm2.83,2.83,8.24,8.24H232.21Zm13.9,8.24-11.07-11.07,14.83-14.83L273,415.46l-11.06,11.06Zm21.43-8.24,8.23,8.24H267.55Zm13.89,8.24L278.6,415.46l14.85-14.85,14.83,14.84-11.07,11.07Zm21.44-8.24,8.24,8.24H302.87Zm13.9,8.24-11.07-11.07,14.66-14.66,14.84,14.84-10.89,10.89Zm21.26-8.07,8.06,8.07H338.21ZM360,426.52,349.1,415.63l11.56-11.57v22.46Zm.67-34.66L349.09,380.3l11.57-11.57Zm0-35.33L349.09,345l11.57-11.56ZM246.33,253.71a26.76,26.76,0,0,0,.78-8.51c0-3.48-.09-6.77,1.44-8.88s4.72-3.11,8.06-4.14a26.06,26.06,0,0,0,7.8-3.34,26,26,0,0,0,5.52-6.34c2-2.88,3.94-5.61,6.49-6.45s5.49.27,8.74,1.38a27.12,27.12,0,0,0,8.5,1.91,27,27,0,0,0,8.49-1.91c3.26-1.11,6.33-2.16,8.74-1.38,2.56.84,4.47,3.57,6.49,6.45a26,26,0,0,0,5.52,6.34,26.28,26.28,0,0,0,7.8,3.34c3.35,1,6.51,2,8.06,4.14s1.49,5.4,1.44,8.88a26.48,26.48,0,0,0,.79,8.51,16.92,16.92,0,0,0,2,4H244.31A17,17,0,0,0,246.33,253.71Zm-14.73,8H355v22.72H231.6Zm-4.94,27h134v6.09h-134ZM216,325.13a8.65,8.65,0,0,1,6.66-8.41v109.8H216Zm77,119.25H229.73A13.75,13.75,0,0,1,216,430.65v-.13H369.1a14.31,14.31,0,0,1-11.44,5.72H306.3A15,15,0,0,0,293,444.38Z"/><path d="M334.36,95.26a9.33,9.33,0,0,0-1,4.34,9.77,9.77,0,0,0,3.81,7.36,58.18,58.18,0,0,0,8.21,6.6c13.24,8.79,30,11.21,37,11.27h0a2.38,2.38,0,0,0,1.12-4.47c-4.56-2.44-16.06-8.91-24.2-16.41A103.5,103.5,0,0,1,349,93l-.18-.18A9.12,9.12,0,0,0,337,92.14c-1.75-.9-5-3.33-6.28-9.46l-3.91.83C328.21,90.39,331.79,93.72,334.36,95.26Zm4.41.59a5.11,5.11,0,0,1,3.62-1.59h.1A5.25,5.25,0,0,1,346,95.62a107.73,107.73,0,0,0,10.6,11.28,114.71,114.71,0,0,0,18.47,13.29c-7.75-1.14-18.49-4-27.49-10a53.44,53.44,0,0,1-7.72-6.23l-.22-.19a5.69,5.69,0,0,1-2.29-4.27A5.5,5.5,0,0,1,338.77,95.85Z"/><path d="M397.52,106.75a2.37,2.37,0,0,0,2.07,2.08l.3,0a2.38,2.38,0,0,0,2.21-1.52c1.85-4.84,6.85-17,13.27-26.06A103.81,103.81,0,0,1,425,69.71l.16-.2a9.28,9.28,0,0,0,1.72-6.79,9.09,9.09,0,0,0-2.53-5.08c.66-1.84,2.66-5.35,8.6-7.4l-1.3-3.78c-6.66,2.29-9.51,6.26-10.72,9a9.13,9.13,0,0,0-4.44-.48,9.71,9.71,0,0,0-6.82,4.69,57.63,57.63,0,0,0-5.53,9c-7.07,14.23-7.4,31.16-6.59,38.12Zm10.17-36.34A53.68,53.68,0,0,1,412.91,62l.16-.24a5.72,5.72,0,0,1,3.95-2.8,4.51,4.51,0,0,1,.72,0,5.62,5.62,0,0,1,3.13,1,5.16,5.16,0,0,1,2,3.4A5.28,5.28,0,0,1,422,67,107.82,107.82,0,0,0,412.12,79a113.73,113.73,0,0,0-10.9,20C401.39,91.09,402.88,80.09,407.69,70.41Z"/></g></svg>