<?xml version="1.0" standalone="no"?>
<!DOCTYPE svg PUBLIC "-//W3C//DTD SVG 1.1//EN" "http://www.w3.org/Graphics/SVG/1.1/DTD/svg11.dtd" >
<svg xmlns="http://www.w3.org/2000/svg" xmlns:xlink="http://www.w3.org/1999/xlink" version="1.1">
<metadata>
Created by FontForge 20170731 at Wed Oct 31 14:58:57 2018
 By Aleksey,,,
Copyright (c) 2018 by Phatcharaphat Chatthawatthanathon, Kwanchai Akkaratammagul. All rights reserved. Desktop use is strictly prohibited.
</metadata>
<defs>
<font id="MalteThaiMedium" horiz-adv-x="0" >
  <font-face 
    font-family="Malte Thai Medium"
    font-weight="500"
    font-stretch="normal"
    units-per-em="2048"
    panose-1="0 0 6 0 0 0 0 0 0 0"
    ascent="1536"
    descent="-512"
    x-height="1069"
    cap-height="1462"
    bbox="-1123 -699 2521 2544"
    underline-thickness="0"
    underline-position="0"
    unicode-range="U+000D-FB02"
  />
<missing-glyph horiz-adv-x="1228" 
 />
    <glyph glyph-name="uniFB01" unicode="fi" horiz-adv-x="1222" 
d="M1110 1069v-1069h-223v887h-426v-887h-223v887h-189v182h189v393h489v-182h-266v-211h649zM881 1462h235v-284h-235v284z" />
    <glyph glyph-name="uniFB02" unicode="fl" horiz-adv-x="1234" 
d="M1116 1462v-1462h-223v1280h-432v-211h266v-182h-266v-887h-223v887h-189v182h189v393h878z" />
    <glyph glyph-name="uni0E24_uni0E45.liga" unicode="&#xe24;&#xe45;" horiz-adv-x="1988" 
d="M1860 1214l-1 -1727h-226v1540h-475v-1540h-225v1540h-600v-182h209v-184h-90q-98 0 -99 -117v-248q0 -111 111 -111h102v-186h-153q-137 0 -210 76q-74 77 -74 216v241q0 168 129 220v2h-43l-98 32v428h1743z" />
    <glyph glyph-name="uni0E26_uni0E45.liga" unicode="&#xe26;&#xe45;" horiz-adv-x="2031" 
d="M1903 1214l-2 -1727h-226v1540h-485v-1540h-223v1540h-600v-182h206v-184h-88q-100 0 -100 -117v-299q0 -119 -64 -182q-65 -63 -183 -63h-90v186h41q39 0 56 15t17 53v278q0 167 131 220v2h-45l-98 32v428h1753z" />
    <glyph glyph-name=".notdef" horiz-adv-x="1228" 
 />
    <glyph glyph-name=".null" 
 />
    <glyph glyph-name="uni000D" unicode="&#xd;" horiz-adv-x="1228" 
 />
    <glyph glyph-name="space" unicode=" " horiz-adv-x="491" 
 />
    <glyph glyph-name="exclam" unicode="!" horiz-adv-x="489" 
d="M137 408l-8 747v307h231v-307l-10 -747h-213zM123 0v244h244v-244h-244z" />
    <glyph glyph-name="quotedbl" unicode="&#x22;" horiz-adv-x="933" 
d="M154 926l-31 536h244l-33 -536h-180zM600 926l-31 536h242l-31 -536h-180z" />
    <glyph glyph-name="numbersign" unicode="#" horiz-adv-x="1318" 
d="M1282 842h-242l-82 -303h228v-162h-268l-101 -377h-180l100 377h-315l-100 -377h-183l101 377h-203v162h244l81 303h-227v162h268l101 376h182l-100 -376h315l100 376h181l-101 -376h201v-162zM778 539l82 303h-315l-82 -303h315z" />
    <glyph glyph-name="dollar" unicode="$" horiz-adv-x="1380" 
d="M1198 442l-1 -1q0 -211 -102 -324q-101 -112 -317 -136v-166h-225v161q-203 17 -371 81v205q223 -90 451 -90q178 0 256 63t78 204q0 101 -42 152t-145 72l-567 120v678h340v185h225v-185h355v-196h-691v-322l406 -86q185 -40 268 -138q82 -97 82 -277z" />
    <glyph glyph-name="percent" unicode="%" horiz-adv-x="1867" 
d="M98 844v618h629v-618h-629zM446 0l734 1462h241l-733 -1462h-242zM289 1006h250v294h-250v-294zM1141 0v618h628v-618h-628zM1331 162h250v295h-250v-295z" />
    <glyph glyph-name="ampersand" unicode="&#x26;" horiz-adv-x="1439" 
d="M735 836h674v-193h-190v-268q0 -187 -141 -294q-140 -106 -394 -106q-310 0 -537 160v637h156q-125 96 -125 281v409h1010v-454h-230v264h-548v-234q0 -96 48 -149t134 -53h39v-193h-252v-403q130 -68 303 -68q307 0 307 205v266h-254v193z" />
    <glyph glyph-name="quotesingle" unicode="'" horiz-adv-x="489" 
d="M154 926l-31 536h244l-33 -536h-180z" />
    <glyph glyph-name="parenleft" unicode="(" horiz-adv-x="563" 
d="M322 -389l-1 2q-260 446 -260 962q0 517 261 962h192q-227 -484 -227 -963t227 -963h-192z" />
    <glyph glyph-name="parenright" unicode=")" horiz-adv-x="563" 
d="M49 -389v-1q227 484 227 963t-227 963h191q262 -451 262 -963q0 -513 -262 -962h-191z" />
    <glyph glyph-name="asterisk" unicode="*" horiz-adv-x="954" 
d="M893 1100l-320 -78l211 -252l-133 -98l-174 280l-174 -280l-133 98l211 252l-320 78l52 157l305 -122l-25 327h166l-22 -327l305 122z" />
    <glyph glyph-name="plus" unicode="+" horiz-adv-x="1134" 
d="M473 225v342h-338v181h338v342h189v-342h337v-181h-337v-342h-189z" />
    <glyph glyph-name="comma" unicode="," horiz-adv-x="471" 
d="M53 -328l70 328v248h225v-248l-139 -328h-156z" />
    <glyph glyph-name="hyphen" unicode="-" horiz-adv-x="555" 
d="M41 690h473v-170h-473v170z" />
    <glyph glyph-name="period" unicode="." horiz-adv-x="471" 
d="M123 0v248h225v-248h-225z" />
    <glyph glyph-name="slash" unicode="/" horiz-adv-x="800" 
d="M25 -205l528 1741h223l-528 -1741h-223z" />
    <glyph glyph-name="zero" unicode="0" horiz-adv-x="1277" 
d="M125 0v1380h1028v-1380h-1028zM356 197h566v987h-566v-987z" />
    <glyph glyph-name="one" unicode="1" horiz-adv-x="1277" 
d="M729 0v1163l-467 -270v219l467 268h232v-1380h-232z" />
    <glyph glyph-name="two" unicode="2" horiz-adv-x="1277" 
d="M162 0v300l594 496q58 50 81 102q23 54 23 136v150h-661v196h893v-346q0 -128 -37 -214q-38 -88 -121 -156l-514 -433v-34h696v-197h-954z" />
    <glyph glyph-name="three" unicode="3" horiz-adv-x="1277" 
d="M928 729l208 1v-303q0 -221 -139 -336t-408 -115q-246 0 -447 93v208q202 -104 426 -104q336 0 336 254v174h-502v197h222q122 0 186 63t64 183v140h-706v196h938v-313q0 -235 -178 -338z" />
    <glyph glyph-name="four" unicode="4" horiz-adv-x="1277" 
d="M1192 469v-197h-166v-272h-231v272h-709v174l551 934h389v-911h166zM326 469h469v715h-43z" />
    <glyph glyph-name="five" unicode="5" horiz-adv-x="1277" 
d="M145 276q200 -104 424 -104q338 0 338 254v209h-768l25 745h913v-196h-686l-14 -350h762v-408q0 -221 -139 -336t-408 -115q-246 0 -447 93v208z" />
    <glyph glyph-name="six" unicode="6" horiz-adv-x="1277" 
d="M352 834h802v-408q0 -208 -141 -330q-140 -121 -386 -121q-308 0 -504 175v1230h969v-196h-740v-350zM923 426l-1 209h-572v-383q116 -80 276 -80q141 0 219 66t78 188z" />
    <glyph glyph-name="seven" unicode="7" horiz-adv-x="1277" 
d="M399 0l506 1122v64h-762v194h992v-305l-482 -1075h-254z" />
    <glyph glyph-name="eight" unicode="8" horiz-adv-x="1277" 
d="M961 729h211v-303q0 -219 -137 -335t-395 -116q-257 0 -396 116q-138 116 -138 335v303h211q-180 109 -180 339v313h1004v-313q0 -230 -180 -339zM370 1190v-145q0 -121 68 -187t192 -66h20q124 0 192 66t68 186v146h-540zM941 425v180h-602v-182q0 -123 77 -189t224 -66
q148 0 224 66q77 66 77 191z" />
    <glyph glyph-name="nine" unicode="9" horiz-adv-x="1277" 
d="M592 -25q-246 0 -447 93v190q214 -86 424 -86q338 0 338 254v164h-768v790h1000v-954q0 -221 -139 -336t-408 -115zM369 780h538v410h-538v-410z" />
    <glyph glyph-name="colon" unicode=":" horiz-adv-x="471" 
d="M123 821v248h225v-248h-225zM123 0v248h225v-248h-225z" />
    <glyph glyph-name="semicolon" unicode=";" horiz-adv-x="471" 
d="M123 821v248h225v-248h-225zM53 -258l70 258v248h225v-248l-139 -258h-156z" />
    <glyph glyph-name="less" unicode="&#x3c;" horiz-adv-x="1134" 
d="M907 1135v-197l-504 -281l504 -280v-197l-680 379v197z" />
    <glyph glyph-name="equal" unicode="=" horiz-adv-x="1134" 
d="M133 764v178h871v-178h-871zM133 373v178h871v-178h-871z" />
    <glyph glyph-name="greater" unicode="&#x3e;" horiz-adv-x="1134" 
d="M227 1135l680 -379v-197l-680 -379v197l504 280l-504 281v197z" />
    <glyph glyph-name="question" unicode="?" horiz-adv-x="1167" 
d="M356 371v105q0 354 351 426l106 23v340h-690v196h921v-696l-270 -57q-186 -40 -186 -231v-106h-232zM350 -1v227h244v-227h-244z" />
    <glyph glyph-name="at" unicode="@" horiz-adv-x="1777" 
d="M887 -193l2 3q-370 0 -598 219t-228 575q0 360 233 582q232 222 614 222q368 0 588 -201q221 -201 221 -537q0 -220 -91 -351q-92 -132 -243 -132q-167 0 -243 150h-4q-116 -150 -306 -150q-145 0 -229 81t-84 222v472h756v-467q0 -73 30 -113q30 -41 81 -41q73 0 114 77
t41 213q0 281 -172 447q-173 167 -462 167q-298 0 -480 -176q-181 -175 -181 -467q0 -284 177 -459q178 -176 462 -176q148 0 291 49v-170q-156 -39 -289 -39zM876 372h-1q95 0 159 67v340h-278v-287q-2 -120 120 -120z" />
    <glyph glyph-name="A" unicode="A" horiz-adv-x="1333" 
d="M1071 0l-125 399h-559l-125 -399h-237l456 1462h371l457 -1462h-238zM451 598h432l-121 383l-74 301h-43l-74 -301z" />
    <glyph glyph-name="B" unicode="B" horiz-adv-x="1306" 
d="M979 758l230 -1v-316q0 -207 -129 -324t-356 -117h-586v1462h1041v-348q0 -123 -52 -214q-53 -92 -148 -138v-4zM949 1271h-582v-443h319q128 0 195 73q68 74 68 208v162zM979 441l-1 202h-612v-453h356q122 0 189 66q68 66 68 185z" />
    <glyph glyph-name="C" unicode="C" horiz-adv-x="1247" 
d="M1157 57l-1 1q-204 -82 -444 -82q-289 0 -442 135t-153 395v956h1032v-196h-801v-754q0 -340 375 -340q216 0 434 94v-209z" />
    <glyph glyph-name="D" unicode="D" horiz-adv-x="1390" 
d="M139 0l1 1462h1135v-936q0 -252 -147 -389q-148 -137 -415 -137h-574zM370 197h344q157 0 243 86t86 243v740h-673v-1069z" />
    <glyph glyph-name="E" unicode="E" horiz-adv-x="1202" 
d="M139 0v1462h965v-196h-735v-437h645v-196h-645v-436h737v-197h-967z" />
    <glyph glyph-name="F" unicode="F" horiz-adv-x="1177" 
d="M1094 1266h-725v-437h628v-196h-628v-633h-230v1462h955v-196z" />
    <glyph glyph-name="G" unicode="G" horiz-adv-x="1359" 
d="M676 827l560 1v-727q-215 -125 -525 -125q-293 0 -444 135t-151 395v956h1093v-196h-862v-754q0 -340 363 -340q144 0 300 47v410h-334v198z" />
    <glyph glyph-name="H" unicode="H" horiz-adv-x="1402" 
d="M139 0v1462h230v-622h665v622h230v-1462h-230v641h-665v-641h-230z" />
    <glyph glyph-name="I" unicode="I" horiz-adv-x="507" 
d="M139 0v1462h230v-1462h-230z" />
    <glyph glyph-name="J" unicode="J" horiz-adv-x="892" 
d="M332 -25l-1 1q-146 0 -264 62v190q129 -55 239 -55q226 0 228 225v1065h231v-1071q0 -195 -115 -306q-116 -111 -318 -111z" />
    <glyph glyph-name="K" unicode="K" horiz-adv-x="1353" 
d="M987 778l252 -1v-778h-229v653h-641v-653h-230v1462h230v-616h333q130 0 204 77q73 76 73 219v321h229v-307q0 -269 -221 -373v-4z" />
    <glyph glyph-name="L" unicode="L" horiz-adv-x="1118" 
d="M139 0v1462h230v-1265h682v-197h-912z" />
    <glyph glyph-name="M" unicode="M" horiz-adv-x="1579" 
d="M139 0l-3 1460h244q82 -167 180 -244q97 -76 226 -76q130 0 228 77q97 76 180 245h244v-1462h-230v1161h-4q-142 -217 -417 -217q-272 0 -414 217h-4v-1161h-230z" />
    <glyph glyph-name="N" unicode="N" horiz-adv-x="1413" 
d="M1042 1462h232v-1462h-232v449q-213 100 -390 260q-174 158 -292 362h-4q11 -50 13 -141v-930h-230v1462h236q96 -248 270 -447q174 -200 397 -321v768z" />
    <glyph glyph-name="O" unicode="O" horiz-adv-x="1415" 
d="M1276 1462v-1462h-1137v1462h1137zM1047 1266h-678v-1069h678v1069z" />
    <glyph glyph-name="P" unicode="P" horiz-adv-x="1241" 
d="M1167 1462l-1 -456q0 -211 -121 -328t-345 -117h-331v-561h-230v1462h1028zM935 1006v261h-567v-506h325q116 0 179 63t63 182z" />
    <glyph glyph-name="Q" unicode="Q" horiz-adv-x="1415" 
d="M1276 1462v-1462h-453v-270h-231v270h-453v1462h1137zM1047 197v1069h-678v-1069h223v311h231v-311h224z" />
    <glyph glyph-name="R" unicode="R" horiz-adv-x="1325" 
d="M971 694h239v-694h-229v567h-612v-567h-230v1462h1041v-407q0 -247 -209 -357v-4zM950 1047v219h-581v-502h284q297 0 297 283z" />
    <glyph glyph-name="S" unicode="S" horiz-adv-x="1208" 
d="M561 -25h-2q-253 0 -463 82v205q224 -90 450 -90q178 0 258 63q79 63 79 204q0 102 -43 152q-44 51 -144 72l-569 120v678h922v-196h-691v-322l406 -86q187 -39 267 -136q81 -97 81 -280q0 -242 -133 -354t-418 -112z" />
    <glyph glyph-name="T" unicode="T" horiz-adv-x="1198" 
d="M483 0v1266h-424v196h1080v-196h-424v-1266h-232z" />
    <glyph glyph-name="U" unicode="U" horiz-adv-x="1427" 
d="M139 0v1462h230v-1265h690v1265h229v-1462h-1149z" />
    <glyph glyph-name="V" unicode="V" horiz-adv-x="1333" 
d="M481 0l-456 1462h237l383 -1251h43l383 1251h238l-457 -1462h-371z" />
    <glyph glyph-name="W" unicode="W" horiz-adv-x="1996" 
d="M317 0l-292 1462h235l238 -1251h55l244 1251h403l244 -1251h55l240 1251h233l-293 -1462h-411l-248 1255h-43l-248 -1255h-412z" />
    <glyph glyph-name="X" unicode="X" horiz-adv-x="1333" 
d="M25 0l514 729l-500 733h276l347 -516h4l356 516h272l-497 -708l512 -754h-275l-362 537h-4l-371 -537h-272z" />
    <glyph glyph-name="Y" unicode="Y" horiz-adv-x="1333" 
d="M551 0v643l-526 819h264l368 -596h23l364 596h265l-527 -819v-643h-231z" />
    <glyph glyph-name="Z" unicode="Z" horiz-adv-x="1218" 
d="M84 0v317l758 875v74h-740v196h1002v-311l-764 -881v-73h795v-197h-1051z" />
    <glyph glyph-name="bracketleft" unicode="[" horiz-adv-x="577" 
d="M61 -397v1933h467v-197h-235v-1540h235v-196h-467z" />
    <glyph glyph-name="backslash" unicode="\" horiz-adv-x="800" 
d="M553 -205l-528 1741h223l528 -1741h-223z" />
    <glyph glyph-name="bracketright" unicode="]" horiz-adv-x="577" 
d="M49 -397v196h236v1540h-236v197h467v-1933h-467z" />
    <glyph glyph-name="asciicircum" unicode="^" horiz-adv-x="1134" 
d="M690 1462l477 -778h-200l-383 627h-33l-383 -627h-201l477 778h246z" />
    <glyph glyph-name="underscore" unicode="_" horiz-adv-x="808" 
d="M0 -123h809v-92h-809v92z" />
    <glyph glyph-name="grave" unicode="`" horiz-adv-x="651" 
d="M528 1176h-198l-207 284v76h242z" />
    <glyph glyph-name="a" unicode="a" horiz-adv-x="1122" 
d="M141 1069l863 -1v-940q-190 -154 -451 -154q-202 0 -326 92q-123 92 -123 243v324h676v254h-639v182zM557 157h1q130 0 222 57v252h-450v-158q0 -151 227 -151z" />
    <glyph glyph-name="b" unicode="b" horiz-adv-x="1169" 
d="M588 -25l-1 -1q-275 0 -471 154v1333h225v-393h723v-721q0 -174 -128 -273t-348 -99zM585 157h1q254 0 254 190v539h-498v-672q106 -57 243 -57z" />
    <glyph glyph-name="c" unicode="c" horiz-adv-x="1058" 
d="M590 -25h-1q-231 0 -358 99t-127 279v715h834v-182h-608v-533q0 -197 278 -195q165 0 342 71v-180q-160 -74 -360 -74z" />
    <glyph glyph-name="d" unicode="d" horiz-adv-x="1165" 
d="M580 -25l1 1q-219 0 -348 99t-129 273v721h723v393h226v-1333q-200 -154 -473 -154zM585 159q135 0 243 57v672h-497v-539q0 -190 254 -190z" />
    <glyph glyph-name="e" unicode="e" horiz-adv-x="1138" 
d="M1020 414l-690 -1v-64q0 -193 303 -192q179 0 368 71v-180q-165 -74 -383 -74q-244 0 -379 99t-135 281v715h916v-655zM797 886h-467v-307h467v307z" />
    <glyph glyph-name="f" unicode="f" horiz-adv-x="770" 
d="M721 1280h-258v-211h258v-182h-258v-887h-225v887h-189v182h189v393h483v-182z" />
    <glyph glyph-name="g" unicode="g" horiz-adv-x="1179" 
d="M559 332l-193 2v-56q0 -94 110 -94h635v-518q-230 -164 -547 -164q-231 0 -372 99t-141 261v250h209v4q-113 35 -111 161v150h131v4q-156 83 -156 283v356h1003v-182h-135v-174q0 -184 -112 -283t-321 -99zM343 889l-1 -176q0 -94 56 -145t160 -51q105 0 161 50t56 144
v178h-432zM895 -244v247h-629v-139q0 -90 80 -141t221 -51q189 0 328 84z" />
    <glyph glyph-name="h" unicode="h" horiz-adv-x="1187" 
d="M117 0v1462h225v-534h4l170 141h555v-1069h-225v887h-287l-217 -182v-705h-225z" />
    <glyph glyph-name="i" unicode="i" horiz-adv-x="446" 
d="M104 1178v284h238v-284h-238zM111 0v1069h225v-1069h-225z" />
    <glyph glyph-name="j" unicode="j" horiz-adv-x="462" 
d="M117 1178v284h237v-284h-237zM12 -418l-2 -1q-96 0 -189 35v172q87 -25 150 -25q152 0 152 160v1145h225v-1145q0 -163 -87 -252t-249 -89z" />
    <glyph glyph-name="k" unicode="k" horiz-adv-x="1120" 
d="M819 582h204v-582h-225v461h-465v-461h-223v1462h223v-821h114q169 0 258 85q90 86 90 241v102h219v-102q0 -265 -195 -381v-4z" />
    <glyph glyph-name="l" unicode="l" horiz-adv-x="458" 
d="M117 0v1462h225v-1462h-225z" />
    <glyph glyph-name="m" unicode="m" horiz-adv-x="1695" 
d="M1137 1069h442v-1069h-225v887h-174l-219 -182v-705h-226v887h-174l-219 -182v-705h-225v1069h225v-141h4l172 141h443v-141h4z" />
    <glyph glyph-name="n" unicode="n" horiz-adv-x="1187" 
d="M516 1069h555v-1069h-225v887h-287l-217 -182v-705h-225v1069h225v-141h4z" />
    <glyph glyph-name="o" unicode="o" horiz-adv-x="1146" 
d="M117 0v1069h911v-1069h-911zM805 182v705h-463v-705h463z" />
    <glyph glyph-name="p" unicode="p" horiz-adv-x="1171" 
d="M117 -393v1462h950v-704q0 -180 -124 -285q-125 -105 -337 -105q-136 0 -260 48h-4v-416h-225zM588 158q254 0 254 207v522h-500v-670q107 -59 246 -59z" />
    <glyph glyph-name="q" unicode="q" horiz-adv-x="1171" 
d="M829 -393v415h-4q-124 -46 -260 -48q-213 0 -337 105t-124 286v704h951v-1462h-226zM584 157q141 0 245 59v670h-499v-522q0 -207 254 -207z" />
    <glyph glyph-name="r" unicode="r" horiz-adv-x="804" 
d="M514 1069h242v-182h-199l-215 -182v-705h-225v1069h225v-141h4z" />
    <glyph glyph-name="s" unicode="s" horiz-adv-x="974" 
d="M469 -25l-2 -1q-218 0 -399 74v191q186 -82 389 -82q123 0 178 39t55 125q0 67 -31 99q-32 34 -103 44l-471 76v528h758v-182h-533v-191l314 -51q153 -26 221 -103q69 -78 69 -220q0 -178 -108 -262t-337 -84z" />
    <glyph glyph-name="t" unicode="t" horiz-adv-x="765" 
d="M717 1069v-182h-221v-887h-226v887h-221v182h221v234h226v-234h221z" />
    <glyph glyph-name="u" unicode="u" horiz-adv-x="1150" 
d="M1034 1069v-1069h-917v1069h225v-887h467v887h225z" />
    <glyph glyph-name="v" unicode="v" horiz-adv-x="1097" 
d="M381 0l-356 1069h235l279 -866h20l277 866h237l-356 -1069h-336z" />
    <glyph glyph-name="w" unicode="w" horiz-adv-x="1568" 
d="M1319 1069h225l-213 -1069h-360l-174 866h-25l-174 -866h-362l-211 1069h225l160 -866h34l172 866h336l172 -866h33z" />
    <glyph glyph-name="x" unicode="x" horiz-adv-x="1097" 
d="M1073 0h-270l-252 377h-6l-256 -377h-264l385 530l-373 539h268l242 -362h4l246 362h264l-375 -516z" />
    <glyph glyph-name="y" unicode="y" horiz-adv-x="1112" 
d="M367 -393l129 393h-101l-370 1069h235l293 -872h22l277 872h235l-485 -1462h-235z" />
    <glyph glyph-name="z" unicode="z" horiz-adv-x="1026" 
d="M63 0v287l646 565v35h-629v182h866v-287l-643 -565v-35h660v-182h-900z" />
    <glyph glyph-name="braceleft" unicode="{" horiz-adv-x="598" 
d="M174 -397v716q0 127 -113 177v143q113 50 113 177v719h375v-162h-150v-557q0 -196 -166 -248q166 -52 166 -246v-558h150v-161h-375z" />
    <glyph glyph-name="bar" unicode="|" horiz-adv-x="477" 
d="M123 -123v1708h231v-1708h-231z" />
    <glyph glyph-name="braceright" unicode="}" horiz-adv-x="598" 
d="M422 -397l-373 -1v161h148v558q0 193 168 247q-168 56 -168 249v557h-148v162h373v-719q0 -125 115 -176v-143q-115 -51 -115 -176v-719z" />
    <glyph glyph-name="asciitilde" unicode="~" horiz-adv-x="1134" 
d="M61 504v307h488l137 -131h182v131h207v-307h-489l-137 131h-181v-131h-207z" />
    <glyph glyph-name="uni00A0" unicode="&#xa0;" horiz-adv-x="491" 
 />
    <glyph glyph-name="exclamdown" unicode="&#xa1;" horiz-adv-x="489" 
d="M123 1069h244v-244h-244v244zM137 662h213l10 -748v-307h-231v307z" />
    <glyph glyph-name="cent" unicode="&#xa2;" horiz-adv-x="1380" 
d="M1120 229l-1 -181q-125 -58 -288 -72v-161h-223v172q-163 29 -248 123q-86 95 -86 243v715h334v184h223v-184h277v-182h-608v-533q0 -197 278 -195q165 -1 342 71z" />
    <glyph glyph-name="sterling" unicode="&#xa3;" horiz-adv-x="1380" 
d="M362 197l902 -1v-197h-1125v184q143 168 144 361q0 21 -2 37h-179v170h154q-33 163 -33 264v446h1014v-510h-231v314h-545v-297q0 -82 24 -217h441v-170h-416q2 -14 2 -33q0 -182 -150 -351z" />
    <glyph glyph-name="currency" unicode="&#xa4;" horiz-adv-x="1380" 
d="M1069 995v-528l127 -127l-115 -117l-129 129h-524l-129 -129l-115 117l127 127v528l-127 127l115 117l129 -129h524l129 129l115 -117zM473 948v-434h434v434h-434z" />
    <glyph glyph-name="yen" unicode="&#xa5;" horiz-adv-x="1380" 
d="M1333 1462l-440 -682h178v-174h-266v-123h266v-176h-266v-307h-230v307h-264v176h264v123h-264v174h176l-440 682h264l369 -596h22l367 596h264z" />
    <glyph glyph-name="brokenbar" unicode="&#xa6;" horiz-adv-x="477" 
d="M123 848v737h231v-737h-231zM123 -123v737h231v-737h-231z" />
    <glyph glyph-name="section" unicode="&#xa7;" horiz-adv-x="983" 
d="M922 985l1 -309l-105 -170h105v-338q0 -174 -105 -255t-335 -81q-196 0 -360 55v187q163 -62 339 -63q125 0 180 37t55 120v166h-635v309l105 170h-98v338q0 174 105 255t335 81q164 0 352 -47v-183q-185 49 -333 51q-125 0 -180 -37t-55 -120v-166h629zM273 506h306
l135 219v88h-307l-134 -219v-88z" />
    <glyph glyph-name="dieresis" unicode="&#xa8;" horiz-adv-x="860" 
d="M123 1192v270h205v-270h-205zM532 1192v270h205v-270h-205z" />
    <glyph glyph-name="copyright" unicode="&#xa9;" horiz-adv-x="1816" 
d="M909 -49h-1q-358 0 -579 215q-220 214 -220 564t220 564q221 215 579 215t578 -215q219 -214 219 -564t-219 -564q-220 -215 -577 -215zM907 109v-2q275 0 443 171t168 452t-168 452t-443 171q-276 0 -444 -171t-168 -451t168 -451t444 -171zM948 326v-1q-179 0 -273 77
q-93 76 -93 225v456h622v-161h-409v-285q0 -72 36 -111t140 -39q117 0 237 56v-168q-111 -49 -260 -49z" />
    <glyph glyph-name="ordfeminine" unicode="&#xaa;" horiz-adv-x="811" 
d="M145 1536l543 -1v-584q-118 -96 -282 -96q-129 0 -206 59t-77 165v189h424v149h-402v119zM406 974q82 0 141 33v151h-285v-80q2 -104 144 -104z" />
    <glyph glyph-name="guillemotleft" unicode="&#xab;" horiz-adv-x="1196" 
d="M428 135l-305 400l305 399h229l-305 -399l305 -400h-229zM844 135l-305 400l305 399h229l-305 -399l305 -400h-229z" />
    <glyph glyph-name="logicalnot" unicode="&#xac;" horiz-adv-x="1134" 
d="M999 930v-541h-180v361h-682v180h862z" />
    <glyph glyph-name="uni00AD" unicode="&#xad;" horiz-adv-x="555" 
d="M41 690h473v-170h-473v170z" />
    <glyph glyph-name="registered" unicode="&#xae;" horiz-adv-x="888" 
d="M444 1487h-2q170 0 276 -102q107 -102 107 -268q0 -167 -106 -267q-107 -101 -276 -101t-276 101q-106 100 -106 267q0 166 107 268q106 102 276 102zM442 825q135 0 219 81t84 212t-84 212t-219 81t-219 -81t-84 -212t84 -212t219 -81zM599 1206q0 -66 -47 -96h55v-197
h-102v148h-127v-148h-102v410h323v-117zM378 1243v-104h51q66 0 66 61v43h-117z" />
    <glyph glyph-name="macron" unicode="&#xaf;" horiz-adv-x="864" 
d="M123 1176v170h618v-170h-618z" />
    <glyph glyph-name="degree" unicode="&#xb0;" horiz-adv-x="741" 
d="M370 1024l-2 -1q-112 0 -180 66q-67 66 -67 176q0 111 68 176t180 65q113 0 180 -66q68 -66 68 -175t-67 -175q-68 -66 -180 -66zM368 1136q56 0 90 36q34 35 34 93t-34 93q-34 36 -90 36t-89 -36t-33 -93t33 -93t89 -36z" />
    <glyph glyph-name="plusminus" unicode="&#xb1;" horiz-adv-x="1134" 
d="M473 274v342h-338v181h338v342h189v-342h337v-181h-337v-342h-189zM135 0v170h864v-170h-864z" />
    <glyph glyph-name="uni00B2" unicode="&#xb2;" horiz-adv-x="737" 
d="M98 909v188l326 268q33 27 45 54t12 74v61h-362v125h506v-186q0 -137 -88 -209l-279 -231v-19h381v-125h-541z" />
    <glyph glyph-name="uni00B3" unicode="&#xb3;" horiz-adv-x="733" 
d="M520 1317l113 -1v-168q0 -123 -79 -187t-232 -64q-135 0 -249 53v129q115 -57 240 -57q176 0 176 127v88h-270v123h131q59 0 92 33t33 93v69h-387v125h530v-174q0 -127 -98 -189z" />
    <glyph glyph-name="acute" unicode="&#xb4;" horiz-adv-x="651" 
d="M123 1176l164 360h241v-76l-206 -284h-199z" />
    <glyph glyph-name="paragraph" unicode="&#xb6;" horiz-adv-x="1462" 
d="M1362 1462l1 -149h-213v-1518h-176v1518h-246v-1518h-176v764q-206 0 -330 124t-124 327v452h1264z" />
    <glyph glyph-name="periodcentered" unicode="&#xb7;" horiz-adv-x="471" 
d="M123 442v248h225v-248h-225z" />
    <glyph glyph-name="cedilla" unicode="&#xb8;" horiz-adv-x="724" 
d="M328 -545v1q-99 0 -203 37v137q87 -37 168 -37q117 0 117 86v70h-273v84l117 168h172l-66 -115h242v-223q0 -94 -73 -151t-201 -57z" />
    <glyph glyph-name="uni00B9" unicode="&#xb9;" horiz-adv-x="569" 
d="M330 909v631l-232 -131v137l232 133h141v-770h-141z" />
    <glyph glyph-name="ordmasculine" unicode="&#xba;" horiz-adv-x="819" 
d="M123 881v655h573v-655h-573zM557 999v418h-295v-418h295z" />
    <glyph glyph-name="guillemotright" unicode="&#xbb;" horiz-adv-x="1196" 
d="M352 135h-229l305 400l-305 399h229l305 -399zM768 135h-229l305 400l-305 399h229l305 -399z" />
    <glyph glyph-name="onequarter" unicode="&#xbc;" horiz-adv-x="1835" 
d="M330 909v631l-232 -131v137l232 133h141v-770h-141zM1378 1677h189l-1088 -1890h-188zM1761 55v-123h-90v-149h-143v149h-393v109l301 512h235v-498h90zM1284 55h244v377h-21z" />
    <glyph glyph-name="onehalf" unicode="&#xbd;" horiz-adv-x="1798" 
d="M330 909v631l-232 -131v137l232 133h141v-770h-141zM176 -213l1090 1890h188l-1089 -1890h-189zM1159 -217v186l326 269q33 27 45 54t12 75v61h-362v125h506v-186q0 -137 -89 -209l-278 -232v-18h381v-125h-541z" />
    <glyph glyph-name="threequarters" unicode="&#xbe;" horiz-adv-x="1998" 
d="M635 1149l-2 -1q0 -123 -79 -187t-232 -64q-135 0 -249 53v129q115 -57 240 -57q176 0 176 127v88h-270v123h131q59 0 92 33t33 93v69h-387v125h530v-174q0 -127 -98 -189h115v-168zM1473 1676h190l-1090 -1890h-188zM1923 54v-123h-92v-149h-141v149h-394v109l299 512
h236v-498h92zM1446 54h244v377h-23z" />
    <glyph glyph-name="questiondown" unicode="&#xbf;" horiz-adv-x="1167" 
d="M815 1069v-227h-242v227h242zM809 698l-1 -106q0 -173 -89 -282t-258 -143l-107 -23v-340h690v-196h-921v696l270 57q185 40 187 231v106h229z" />
    <glyph glyph-name="Agrave" unicode="&#xc0;" horiz-adv-x="1333" 
d="M760 1569h-199l-207 284v76h242zM1071 0l-125 399h-559l-125 -399h-237l456 1462h371l457 -1462h-238zM451 598h432l-121 383l-74 301h-43l-74 -301z" />
    <glyph glyph-name="Aacute" unicode="&#xc1;" horiz-adv-x="1333" 
d="M981 1853l-207 -284h-199l164 360h242v-76zM1071 0l-125 399h-559l-125 -399h-237l456 1462h371l457 -1462h-238zM451 598h432l-121 383l-74 301h-43l-74 -301z" />
    <glyph glyph-name="Acircumflex" unicode="&#xc2;" horiz-adv-x="1333" 
d="M653 1733l-127 -164h-227v76l225 210h287l225 -210v-76h-227l-125 164h-31zM1071 0l-125 399h-559l-125 -399h-237l456 1462h371l457 -1462h-238zM451 598h432l-121 383l-74 301h-43l-74 -301z" />
    <glyph glyph-name="Atilde" unicode="&#xc3;" horiz-adv-x="1333" 
d="M477 1657v-88h-190v231h370l95 -88h104v88h191v-231h-371l-94 88h-105zM1071 0l-125 399h-559l-125 -399h-237l456 1462h371l457 -1462h-238zM451 598h432l-121 383l-74 301h-43l-74 -301z" />
    <glyph glyph-name="Adieresis" unicode="&#xc4;" horiz-adv-x="1333" 
d="M565 1855v-270h-205v270h205zM975 1855v-270h-205v270h205zM1071 0l-125 399h-559l-125 -399h-237l456 1462h371l457 -1462h-238zM451 598h432l-121 383l-74 301h-43l-74 -301z" />
    <glyph glyph-name="Aring" unicode="&#xc5;" horiz-adv-x="1333" 
d="M666 1569l-1 -3q-128 0 -210 74q-81 74 -81 192t81 191q82 74 210 74q131 0 210 -73q80 -74 80 -190q0 -119 -79 -192t-210 -73zM665 1945h-2q-43 0 -72 -32t-29 -81q0 -50 29 -84q29 -33 72 -33q45 0 74 33q29 34 29 84q0 51 -28 82t-73 31zM1068 -3l-125 399h-559
l-125 -399h-237l456 1462h371l457 -1462h-238zM448 595h432l-121 383l-74 301h-43l-74 -301z" />
    <glyph glyph-name="AE" unicode="&#xc6;" horiz-adv-x="1740" 
d="M1247 197h398v-197h-574l-125 399h-559l-125 -399h-237l456 1462h1157v-196h-725l138 -437h491v-196h-432zM451 598h432l-121 383l-74 285h-43l-74 -285z" />
    <glyph glyph-name="Ccedilla" unicode="&#xc7;" horiz-adv-x="1247" 
d="M1157 57l-1 1q-186 -76 -411 -82l-51 -90h242v-223q0 -94 -74 -151t-200 -57q-99 0 -203 37v137q89 -37 168 -37q58 0 87.5 21.5t28.5 64.5v70h-272v84l107 152q-225 31 -343 163q-118 131 -118 359v956h1032v-196h-801v-754q0 -340 375 -340q216 0 434 94v-209z" />
    <glyph glyph-name="Egrave" unicode="&#xc8;" horiz-adv-x="1202" 
d="M717 1569h-199l-207 284v76h242zM139 0v1462h965v-196h-735v-437h645v-196h-645v-436h737v-197h-967z" />
    <glyph glyph-name="Eacute" unicode="&#xc9;" horiz-adv-x="1202" 
d="M532 1569l164 360h242v-76l-207 -284h-199zM139 0v1462h965v-196h-735v-437h645v-196h-645v-436h737v-197h-967z" />
    <glyph glyph-name="Ecircumflex" unicode="&#xca;" horiz-adv-x="1202" 
d="M768 1855l225 -210v-76h-227l-125 164h-31l-127 -164h-227v76l225 210h287zM139 0v1462h965v-196h-735v-437h645v-196h-645v-436h737v-197h-967z" />
    <glyph glyph-name="Edieresis" unicode="&#xcb;" horiz-adv-x="1202" 
d="M317 1585v270h205v-270h-205zM727 1585v270h205v-270h-205zM139 0v1462h965v-196h-735v-437h645v-196h-645v-436h737v-197h-967z" />
    <glyph glyph-name="Igrave" unicode="&#xcc;" horiz-adv-x="507" 
d="M346 1569h-199l-206 284v76h241zM139 0v1462h230v-1462h-230z" />
    <glyph glyph-name="Iacute" unicode="&#xcd;" horiz-adv-x="507" 
d="M162 1569l164 360h241v-76l-207 -284h-198zM139 0v1462h230v-1462h-230z" />
    <glyph glyph-name="Icircumflex" unicode="&#xce;" horiz-adv-x="507" 
d="M397 1855l226 -210v-76h-228l-125 164h-30l-127 -164h-228v76l226 210h286zM139 0v1462h230v-1462h-230z" />
    <glyph glyph-name="Idieresis" unicode="&#xcf;" horiz-adv-x="507" 
d="M-53 1585v270h205v-270h-205zM356 1585v270h205v-270h-205zM139 0v1462h230v-1462h-230z" />
    <glyph glyph-name="Eth" unicode="&#xd0;" horiz-adv-x="1390" 
d="M139 1462h1136v-936q0 -252 -147 -389q-148 -137 -415 -137h-574v645h-127v172h127v645zM1043 526v740h-673v-449h168v-172h-168v-448h344q157 0 243 86t86 243z" />
    <glyph glyph-name="Ntilde" unicode="&#xd1;" horiz-adv-x="1413" 
d="M322 1569v231h370l94 -88h105v88h190v-231h-370l-95 88h-104v-88h-190zM1042 1462h232v-1462h-232v449q-213 100 -390 260q-174 158 -292 362h-4q11 -50 13 -141v-930h-230v1462h236q96 -248 270 -447q174 -200 397 -321v768z" />
    <glyph glyph-name="Ograve" unicode="&#xd2;" horiz-adv-x="1415" 
d="M799 1569h-199l-207 284v76h242zM1276 1462v-1462h-1137v1462h1137zM1047 1266h-678v-1069h678v1069z" />
    <glyph glyph-name="Oacute" unicode="&#xd3;" horiz-adv-x="1415" 
d="M616 1569l164 360h242v-76l-207 -284h-199zM1276 1462v-1462h-1137v1462h1137zM1047 1266h-678v-1069h678v1069z" />
    <glyph glyph-name="Ocircumflex" unicode="&#xd4;" horiz-adv-x="1415" 
d="M850 1855l225 -210v-76h-227l-125 164h-31l-127 -164h-227v76l225 210h287zM1276 1462v-1462h-1137v1462h1137zM1047 1266h-678v-1069h678v1069z" />
    <glyph glyph-name="Otilde" unicode="&#xd5;" horiz-adv-x="1415" 
d="M328 1569v231h370l95 -88h104v88h190v-231h-370l-94 88h-105v-88h-190zM1276 1462v-1462h-1137v1462h1137zM1047 1266h-678v-1069h678v1069z" />
    <glyph glyph-name="Odieresis" unicode="&#xd6;" horiz-adv-x="1415" 
d="M399 1585v270h205v-270h-205zM809 1585v270h205v-270h-205zM1276 1462v-1462h-1137v1462h1137zM1047 1266h-678v-1069h678v1069z" />
    <glyph glyph-name="multiply" unicode="&#xd7;" horiz-adv-x="1134" 
d="M283 246l-127 127l284 284l-284 285l127 127l284 -285l287 285l127 -127l-287 -285l287 -284l-127 -127l-287 284z" />
    <glyph glyph-name="Oslash" unicode="&#xd8;" horiz-adv-x="1415" 
d="M1276 1462v-1462h-850l-53 -121l-74 31l41 90h-201v1462h850l53 121l74 -31l-41 -90h201zM369 197h57l475 1069h-532v-1069zM1047 197v1069h-58l-475 -1069h533z" />
    <glyph glyph-name="Ugrave" unicode="&#xd9;" horiz-adv-x="1427" 
d="M805 1569h-199l-207 284v76h242zM139 0v1462h230v-1265h690v1265h229v-1462h-1149z" />
    <glyph glyph-name="Uacute" unicode="&#xda;" horiz-adv-x="1427" 
d="M623 1569l163 360h242v-76l-207 -284h-198zM139 0v1462h230v-1265h690v1265h229v-1462h-1149z" />
    <glyph glyph-name="Ucircumflex" unicode="&#xdb;" horiz-adv-x="1427" 
d="M856 1855l225 -210v-76h-227l-125 164h-31l-127 -164h-227v76l225 210h287zM139 0v1462h230v-1265h690v1265h229v-1462h-1149z" />
    <glyph glyph-name="Udieresis" unicode="&#xdc;" horiz-adv-x="1427" 
d="M406 1585v270h204v-270h-204zM815 1585v270h205v-270h-205zM139 0v1462h230v-1265h690v1265h229v-1462h-1149z" />
    <glyph glyph-name="Yacute" unicode="&#xdd;" horiz-adv-x="1333" 
d="M575 1569l164 360h242v-76l-207 -284h-199zM551 0v643l-526 819h264l368 -596h23l364 596h265l-527 -819v-643h-231z" />
    <glyph glyph-name="Thorn" unicode="&#xde;" horiz-adv-x="1210" 
d="M373 1176h772v-416q0 -218 -129 -346q-128 -127 -354 -127h-289v-287h-232v1462h232v-286zM913 760l-1 219h-540v-496h284q122 0 189 73q68 74 68 204z" />
    <glyph glyph-name="germandbls" unicode="&#xdf;" horiz-adv-x="1294" 
d="M1198 772l-1 -398q0 -190 -111 -294q-112 -104 -313 -104q-148 0 -260 58v203q109 -70 229 -70q109 0 167 53q57 52 57 153v270h-453v193h66q129 0 197 72q68 73 68 212v152h-475v-1272h-230v1462h936v-332q0 -244 -178 -358h301z" />
    <glyph glyph-name="agrave" unicode="&#xe0;" horiz-adv-x="1122" 
d="M666 1176h-199l-207 284v76h242zM141 1069l863 -1v-940q-190 -154 -451 -154q-202 0 -326 92q-123 92 -123 243v324h676v254h-639v182zM557 157h1q130 0 222 57v252h-450v-158q0 -151 227 -151z" />
    <glyph glyph-name="aacute" unicode="&#xe1;" horiz-adv-x="1122" 
d="M887 1460l-207 -284h-199l164 360h242v-76zM141 1069l863 -1v-940q-190 -154 -451 -154q-202 0 -326 92q-123 92 -123 243v324h676v254h-639v182zM557 157h1q130 0 222 57v252h-450v-158q0 -151 227 -151z" />
    <glyph glyph-name="acircumflex" unicode="&#xe2;" horiz-adv-x="1122" 
d="M559 1339l-127 -163h-227v75l225 211h287l225 -211v-75h-227l-125 163h-31zM141 1069l863 -1v-940q-190 -154 -451 -154q-202 0 -326 92q-123 92 -123 243v324h676v254h-639v182zM557 157h1q130 0 222 57v252h-450v-158q0 -151 227 -151z" />
    <glyph glyph-name="atilde" unicode="&#xe3;" horiz-adv-x="1122" 
d="M383 1264v-88h-190v231h370l94 -88h105v88h190v-231h-370l-95 88h-104zM141 1069l863 -1v-940q-190 -154 -451 -154q-202 0 -326 92q-123 92 -123 243v324h676v254h-639v182zM557 157h1q130 0 222 57v252h-450v-158q0 -151 227 -151z" />
    <glyph glyph-name="adieresis" unicode="&#xe4;" horiz-adv-x="1122" 
d="M471 1462v-270h-205v270h205zM881 1462v-270h-205v270h205zM141 1069l863 -1v-940q-190 -154 -451 -154q-202 0 -326 92q-123 92 -123 243v324h676v254h-639v182zM557 157h1q130 0 222 57v252h-450v-158q0 -151 227 -151z" />
    <glyph glyph-name="aring" unicode="&#xe5;" horiz-adv-x="1122" 
d="M573 1176v-3q-128 0 -210 74q-81 73 -81 192q0 117 81 191q82 74 210 74q131 0 210 -73q80 -74 80 -190q0 -118 -80 -192q-79 -73 -210 -73zM573 1551l-1 1q-44 0 -72 -31t-28 -81t29 -84q29 -33 72 -33q45 0 74 33q29 34 29 84t-29 81q-28 30 -74 30zM140 1067l863 -1
v-940q-190 -154 -451 -154q-202 0 -326 92q-123 92 -123 243v324h676v254h-639v182zM556 155h1q131 0 222 57v252h-450v-158q0 -151 227 -151z" />
    <glyph glyph-name="ae" unicode="&#xe6;" horiz-adv-x="1806" 
d="M1690 467l-673 -1v-250q98 -59 276 -59q205 0 379 84v-193q-168 -74 -379 -74q-232 0 -389 88q-155 -88 -352 -88q-206 0 -327 93t-121 261v305h687v254h-650v182h1549v-602zM1465 886h-448v-256h448v256zM560 157q139 0 232 57v252h-461v-139q0 -170 229 -170z" />
    <glyph glyph-name="ccedilla" unicode="&#xe7;" horiz-adv-x="1058" 
d="M950 49l-1 -1q-148 -68 -332 -74l-51 -90h242v-223q0 -94 -73 -151t-201 -57q-99 0 -203 37v137q89 -37 168 -37q58 0 87.5 21.5t28.5 64.5v70h-272v84l107 154q-166 28 -256 123t-90 246v715h834v-182h-608v-533q0 -197 278 -195q165 0 342 71v-180z" />
    <glyph glyph-name="egrave" unicode="&#xe8;" horiz-adv-x="1138" 
d="M633 1176h-199l-207 284v76h242zM1020 414l-690 -1v-64q0 -193 303 -192q179 0 368 71v-180q-165 -74 -383 -74q-244 0 -379 99t-135 281v715h916v-655zM797 886h-467v-307h467v307z" />
    <glyph glyph-name="eacute" unicode="&#xe9;" horiz-adv-x="1138" 
d="M856 1460l-207 -284h-198l163 360h242v-76zM1020 414l-690 -1v-64q0 -193 303 -192q179 0 368 71v-180q-165 -74 -383 -74q-244 0 -379 99t-135 281v715h916v-655zM797 886h-467v-307h467v307z" />
    <glyph glyph-name="ecircumflex" unicode="&#xea;" horiz-adv-x="1138" 
d="M526 1339l-127 -163h-227v75l225 211h289l225 -211v-75h-227l-127 163h-31zM1020 414l-690 -1v-64q0 -193 303 -192q179 0 368 71v-180q-165 -74 -383 -74q-244 0 -379 99t-135 281v715h916v-655zM797 886h-467v-307h467v307z" />
    <glyph glyph-name="edieresis" unicode="&#xeb;" horiz-adv-x="1138" 
d="M449 1462v-270h-207v270h207zM856 1462v-270h-205v270h205zM1020 414l-690 -1v-64q0 -193 303 -192q179 0 368 71v-180q-165 -74 -383 -74q-244 0 -379 99t-135 281v715h916v-655zM797 886h-467v-307h467v307z" />
    <glyph glyph-name="igrave" unicode="&#xec;" horiz-adv-x="466" 
d="M326 1176h-199l-207 284v76h242zM123 0v1069h221v-1069h-221z" />
    <glyph glyph-name="iacute" unicode="&#xed;" horiz-adv-x="466" 
d="M141 1176l164 360h242v-76l-207 -284h-199zM123 0v1069h221v-1069h-221z" />
    <glyph glyph-name="icircumflex" unicode="&#xee;" horiz-adv-x="466" 
d="M377 1462l225 -211v-75h-227l-125 163h-31l-127 -163h-227v75l225 211h287zM123 0v1069h221v-1069h-221z" />
    <glyph glyph-name="idieresis" unicode="&#xef;" horiz-adv-x="466" 
d="M-74 1192v270h205v-270h-205zM336 1192v270h205v-270h-205zM123 0v1069h221v-1069h-221z" />
    <glyph glyph-name="eth" unicode="&#xf0;" horiz-adv-x="1165" 
d="M743 1536l1 1q308 -141 310 -506v-901q-200 -154 -473 -154q-219 0 -348 99t-129 273v721h723q0 251 -245 334l-318 -258l-98 123l217 176q-101 10 -211 10l23 174q206 0 372 -35l176 144l97 -123zM828 216v672h-497v-539q0 -190 254 -190q133 0 243 57z" />
    <glyph glyph-name="ntilde" unicode="&#xf1;" horiz-adv-x="1187" 
d="M406 1264v-88h-191v231h371l94 -88h104v88h191v-231h-371l-94 88h-104zM516 1069h555v-1069h-225v887h-287l-217 -182v-705h-225v1069h225v-141h4z" />
    <glyph glyph-name="ograve" unicode="&#xf2;" horiz-adv-x="1146" 
d="M666 1176h-199l-207 284v76h242zM117 0v1069h911v-1069h-911zM805 182v705h-463v-705h463z" />
    <glyph glyph-name="oacute" unicode="&#xf3;" horiz-adv-x="1146" 
d="M481 1176l164 360h242v-76l-207 -284h-199zM117 0v1069h911v-1069h-911zM805 182v705h-463v-705h463z" />
    <glyph glyph-name="ocircumflex" unicode="&#xf4;" horiz-adv-x="1146" 
d="M717 1462l225 -211v-75h-227l-125 163h-31l-127 -163h-227v75l225 211h287zM117 0v1069h911v-1069h-911zM805 182v705h-463v-705h463z" />
    <glyph glyph-name="otilde" unicode="&#xf5;" horiz-adv-x="1146" 
d="M193 1176v231h370l94 -88h105v88h190v-231h-370l-95 88h-104v-88h-190zM117 0v1069h911v-1069h-911zM805 182v705h-463v-705h463z" />
    <glyph glyph-name="odieresis" unicode="&#xf6;" horiz-adv-x="1146" 
d="M266 1192v270h205v-270h-205zM676 1192v270h205v-270h-205zM117 0v1069h911v-1069h-911zM805 182v705h-463v-705h463z" />
    <glyph glyph-name="divide" unicode="&#xf7;" horiz-adv-x="1134" 
d="M455 1008v247h225v-247h-225zM53 567v181h1028v-181h-1028zM455 59v248h225v-248h-225z" />
    <glyph glyph-name="oslash" unicode="&#xf8;" horiz-adv-x="1146" 
d="M1028 1069v-1069h-647l-62 -137l-75 31l47 106h-174v1069h651l61 137l74 -30l-47 -107h172zM342 182h31l313 705h-344v-705zM805 182v705h-31l-313 -705h344z" />
    <glyph glyph-name="ugrave" unicode="&#xf9;" horiz-adv-x="1150" 
d="M668 1176h-199l-207 284v76h242zM1034 1069v-1069h-917v1069h225v-887h467v887h225z" />
    <glyph glyph-name="uacute" unicode="&#xfa;" horiz-adv-x="1150" 
d="M483 1176l164 360h242v-76l-207 -284h-199zM1034 1069v-1069h-917v1069h225v-887h467v887h225z" />
    <glyph glyph-name="ucircumflex" unicode="&#xfb;" horiz-adv-x="1150" 
d="M719 1462l225 -211v-75h-227l-125 163h-31l-127 -163h-227v75l225 211h287zM1034 1069v-1069h-917v1069h225v-887h467v887h225z" />
    <glyph glyph-name="udieresis" unicode="&#xfc;" horiz-adv-x="1150" 
d="M268 1192v270h205v-270h-205zM678 1192v270h205v-270h-205zM1034 1069v-1069h-917v1069h225v-887h467v887h225z" />
    <glyph glyph-name="yacute" unicode="&#xfd;" horiz-adv-x="1112" 
d="M473 1176l164 360h242v-76l-207 -284h-199zM367 -393l129 393h-101l-370 1069h235l293 -872h22l277 872h235l-485 -1462h-235z" />
    <glyph glyph-name="thorn" unicode="&#xfe;" horiz-adv-x="1171" 
d="M338 1069h729v-721q0 -169 -125 -271q-124 -102 -336 -102q-136 0 -260 48h-4v-416h-225v1855h221v-393zM588 158q254 0 254 190v539h-500v-670q106 -59 246 -59z" />
    <glyph glyph-name="ydieresis" unicode="&#xff;" horiz-adv-x="1112" 
d="M258 1192v270h205v-270h-205zM668 1192v270h204v-270h-204zM367 -393l129 393h-101l-370 1069h235l293 -872h22l277 872h235l-485 -1462h-235z" />
    <glyph glyph-name="Amacron" unicode="&#x100;" horiz-adv-x="1333" 
d="M977 1739v-170h-619v170h619zM1071 0l-125 399h-559l-125 -399h-237l456 1462h371l457 -1462h-238zM451 598h432l-121 383l-74 301h-43l-74 -301z" />
    <glyph glyph-name="amacron" unicode="&#x101;" horiz-adv-x="1122" 
d="M883 1346v-170h-619v170h619zM141 1069l863 -1v-940q-190 -154 -451 -154q-202 0 -326 92q-123 92 -123 243v324h676v254h-639v182zM557 157h1q130 0 222 57v252h-450v-158q0 -151 227 -151z" />
    <glyph glyph-name="Abreve" unicode="&#x102;" horiz-adv-x="1333" 
d="M667 1569q-155 0 -258 80q-102 80 -122 215h205q33 -136 176 -138q145 0 178 138h203q-20 -136 -123 -215q-104 -80 -259 -80zM1070 0l-125 399h-559l-125 -399h-237l456 1462h371l457 -1462h-238zM450 598h432l-121 383l-74 301h-43l-74 -301z" />
    <glyph glyph-name="abreve" unicode="&#x103;" horiz-adv-x="1122" 
d="M573 1176l-2 -2q-155 0 -258 80q-102 80 -122 215h204q33 -137 176 -137q145 0 180 137h202q-19 -134 -122 -214q-101 -79 -258 -79zM138 1067l863 -1v-940q-190 -154 -451 -154q-202 0 -326 92q-123 92 -123 243v324h676v254h-639v182zM554 155h1q131 0 222 57v252h-450
v-158q0 -151 227 -151z" />
    <glyph glyph-name="Aogonek" unicode="&#x104;" horiz-adv-x="1333" 
d="M1225 -307h1q90 0 195 41v-156q-102 -41 -237 -41q-307 0 -307 199v98l215 166h-21l-125 399h-559l-125 -399h-237l456 1462h371l457 -1462h2l-211 -190v-46q0 -71 125 -71zM452 598h432l-121 383l-74 301h-43l-74 -301z" />
    <glyph glyph-name="aogonek" unicode="&#x105;" horiz-adv-x="1122" 
d="M707 -8l-186 -170v-45q0 -72 125 -72q91 0 197 41v-156q-102 -41 -238 -41q-307 0 -307 199v98l172 134q-169 18 -267 106q-99 88 -99 223v324h676v254h-639v182h863v-940q-128 -103 -297 -137zM331 309l1 -1q0 -152 227 -150q131 0 222 57v252h-450v-158z" />
    <glyph glyph-name="Cacute" unicode="&#x106;" horiz-adv-x="1247" 
d="M578 1569l163 360h242v-76l-207 -284h-198zM1157 57l-1 1q-204 -82 -444 -82q-289 0 -442 135t-153 395v956h1032v-196h-801v-754q0 -340 375 -340q216 0 434 94v-209z" />
    <glyph glyph-name="cacute" unicode="&#x107;" horiz-adv-x="1058" 
d="M440 1176l164 360h242v-76l-207 -284h-199zM590 -25h-1q-231 0 -358 99t-127 279v715h834v-182h-608v-533q0 -197 278 -195q165 0 342 71v-180q-160 -74 -360 -74z" />
    <glyph glyph-name="Ccircumflex" unicode="&#x108;" horiz-adv-x="1247" 
d="M813 1855l225 -210v-76h-227l-125 164h-31l-127 -164h-227v76l225 210h287zM1157 57l-1 1q-204 -82 -444 -82q-289 0 -442 135t-153 395v956h1032v-196h-801v-754q0 -340 375 -340q216 0 434 94v-209z" />
    <glyph glyph-name="ccircumflex" unicode="&#x109;" horiz-adv-x="1058" 
d="M676 1462l225 -211v-75h-227l-125 163h-31l-127 -163h-227v75l225 211h287zM590 -25h-1q-231 0 -358 99t-127 279v715h834v-182h-608v-533q0 -197 278 -195q165 0 342 71v-180q-160 -74 -360 -74z" />
    <glyph glyph-name="Cdotaccent" unicode="&#x10a;" horiz-adv-x="1247" 
d="M557 1585v270h227v-270h-227zM1157 57l-1 1q-204 -82 -444 -82q-289 0 -442 135t-153 395v956h1032v-196h-801v-754q0 -340 375 -340q216 0 434 94v-209z" />
    <glyph glyph-name="cdotaccent" unicode="&#x10b;" horiz-adv-x="1058" 
d="M420 1192v270h227v-270h-227zM590 -25h-1q-231 0 -358 99t-127 279v715h834v-182h-608v-533q0 -197 278 -195q165 0 342 71v-180q-160 -74 -360 -74z" />
    <glyph glyph-name="Ccaron" unicode="&#x10c;" horiz-adv-x="1247" 
d="M811 1855h227v-75l-225 -211h-287l-225 211v75h227l127 -163h31zM1157 57l-1 1q-204 -82 -444 -82q-289 0 -442 135t-153 395v956h1032v-196h-801v-754q0 -340 375 -340q216 0 434 94v-209z" />
    <glyph glyph-name="ccaron" unicode="&#x10d;" horiz-adv-x="1058" 
d="M674 1462h227v-76l-225 -210h-287l-225 210v76h227l127 -164h31zM590 -25h-1q-231 0 -358 99t-127 279v715h834v-182h-608v-533q0 -197 278 -195q165 0 342 71v-180q-160 -74 -360 -74z" />
    <glyph glyph-name="Dcaron" unicode="&#x10e;" horiz-adv-x="1390" 
d="M854 1855h227v-75l-225 -211h-287l-225 211v75h227l127 -163h31zM139 0l1 1462h1135v-936q0 -252 -147 -389q-148 -137 -415 -137h-574zM370 197h344q157 0 243 86t86 243v740h-673v-1069z" />
    <glyph glyph-name="dcaron" unicode="&#x10f;" horiz-adv-x="1165" 
d="M580 -25l1 1q-219 0 -348 99t-129 273v721h723v393h226v-1333q-200 -154 -473 -154zM1220 1086l-29 377h219l-29 -377h-161zM585 159q135 0 243 57v672h-497v-539q0 -190 254 -190z" />
    <glyph glyph-name="Dcroat" unicode="&#x110;" horiz-adv-x="1390" 
d="M139 1462h1136v-936q0 -252 -147 -389q-148 -137 -415 -137h-574v645h-127v172h127v645zM1043 526v740h-673v-449h168v-172h-168v-448h344q157 0 243 86t86 243z" />
    <glyph glyph-name="dcroat" unicode="&#x111;" horiz-adv-x="1165" 
d="M1196 1337l1 -160h-143v-1047q-200 -154 -473 -154q-219 0 -348 99t-129 273v721h723v107h-143v161h143v125h226v-125h143zM828 216v672h-497v-539q0 -190 254 -190q133 0 243 57z" />
    <glyph glyph-name="Emacron" unicode="&#x112;" horiz-adv-x="1202" 
d="M315 1569v170h619v-170h-619zM139 0v1462h965v-196h-735v-437h645v-196h-645v-436h737v-197h-967z" />
    <glyph glyph-name="emacron" unicode="&#x113;" horiz-adv-x="1138" 
d="M858 1346v-170h-618v170h618zM1020 414l-690 -1v-64q0 -193 303 -192q179 0 368 71v-180q-165 -74 -383 -74q-244 0 -379 99t-135 281v715h916v-655zM797 886h-467v-307h467v307z" />
    <glyph glyph-name="Ebreve" unicode="&#x114;" horiz-adv-x="1202" 
d="M803 1864h203q-20 -136 -123 -215q-104 -80 -259 -80t-258 80q-102 80 -122 215h205q33 -136 176 -138q145 1 178 138zM139 0v1462h965v-196h-735v-437h645v-196h-645v-436h737v-197h-967z" />
    <glyph glyph-name="ebreve" unicode="&#x115;" horiz-adv-x="1138" 
d="M575 1176l-2 -2q-155 0 -258 80q-102 80 -122 215h202q38 -137 178 -137q145 0 180 137h202q-19 -134 -122 -214q-101 -79 -258 -79zM1017 412l-690 -1v-64q0 -193 303 -192q179 0 368 71v-180q-165 -74 -383 -74q-244 0 -379 99t-135 281v715h916v-655zM794 884h-467
v-307h467v307z" />
    <glyph glyph-name="Edotaccent" unicode="&#x116;" horiz-adv-x="1202" 
d="M512 1585v270h227v-270h-227zM139 0v1462h965v-196h-735v-437h645v-196h-645v-436h737v-197h-967z" />
    <glyph glyph-name="edotaccent" unicode="&#x117;" horiz-adv-x="1138" 
d="M662 1462v-270h-226v270h226zM1020 414l-690 -1v-64q0 -193 303 -192q179 0 368 71v-180q-165 -74 -383 -74q-244 0 -379 99t-135 281v715h916v-655zM797 886h-467v-307h467v307z" />
    <glyph glyph-name="Eogonek" unicode="&#x118;" horiz-adv-x="1202" 
d="M1022 -307q91 0 197 41v-156q-102 -41 -238 -41q-307 0 -307 199v98l215 166h-750v1462h965v-196h-735v-437h645v-196h-645v-436h737v-197h2l-211 -190v-46q0 -71 125 -71z" />
    <glyph glyph-name="eogonek" unicode="&#x119;" horiz-adv-x="1138" 
d="M918 -258l3 -1q90 0 195 41v-156q-102 -41 -237 -41q-308 0 -309 199v98l123 94q-34 -2 -75 -2q-244 0 -379 99t-135 281v715h916v-655h-690v-64q0 -194 303 -192q179 0 368 71v-180h3l-211 -190v-45q0 -72 125 -72zM800 886h-467v-307h467v307z" />
    <glyph glyph-name="Ecaron" unicode="&#x11a;" horiz-adv-x="1202" 
d="M766 1855h227v-75l-225 -211h-287l-225 211v75h227l127 -163h31zM139 0v1462h965v-196h-735v-437h645v-196h-645v-436h737v-197h-967z" />
    <glyph glyph-name="ecaron" unicode="&#x11b;" horiz-adv-x="1138" 
d="M686 1176h-289l-225 210v76h227l127 -164h31l127 164h227v-76zM1020 414l-690 -1v-64q0 -193 303 -192q179 0 368 71v-180q-165 -74 -383 -74q-244 0 -379 99t-135 281v715h916v-655zM797 886h-467v-307h467v307z" />
    <glyph glyph-name="Gcircumflex" unicode="&#x11c;" horiz-adv-x="1359" 
d="M850 1855l225 -210v-76h-227l-125 164h-31l-127 -164h-227v76l225 210h287zM676 827l560 1v-727q-215 -125 -525 -125q-293 0 -444 135t-151 395v956h1093v-196h-862v-754q0 -340 363 -340q144 0 300 47v410h-334v198z" />
    <glyph glyph-name="gcircumflex" unicode="&#x11d;" horiz-adv-x="1179" 
d="M573 1339l-127 -163h-227v75l225 211h287l225 -211v-75h-227l-125 163h-31zM559 332l-193 2v-56q0 -94 110 -94h635v-518q-230 -164 -547 -164q-231 0 -372 99t-141 261v250h209v4q-113 35 -111 161v150h131v4q-156 83 -156 283v356h1003v-182h-135v-174
q0 -184 -112 -283t-321 -99zM343 889l-1 -176q0 -94 56 -145t160 -51q105 0 161 50t56 144v178h-432zM895 -244v247h-629v-139q0 -90 80 -141t221 -51q189 0 328 84z" />
    <glyph glyph-name="Gbreve" unicode="&#x11e;" horiz-adv-x="1359" 
d="M887 1864h203q-20 -136 -123 -215q-104 -80 -259 -80t-258 80q-102 80 -122 215h204q33 -136 177 -138q145 1 178 138zM676 827l560 1v-727q-215 -125 -525 -125q-293 0 -444 135t-151 395v956h1093v-196h-862v-754q0 -340 363 -340q144 0 300 47v410h-334v198z" />
    <glyph glyph-name="gbreve" unicode="&#x11f;" horiz-adv-x="1179" 
d="M589 1176v-2q-155 0 -258 80q-102 80 -122 215h205q33 -137 176 -137q145 0 178 137h203q-19 -134 -123 -214q-103 -79 -259 -79zM558 330l-193 2v-56q0 -94 110 -94h635v-518q-230 -164 -547 -164q-231 0 -372 99t-141 261v250h209v4q-113 35 -111 161v150h131v4
q-156 82 -156 283v356h1003v-182h-135v-174q0 -184 -112 -283q-113 -99 -321 -99zM342 887l-1 -176q0 -94 56 -145q55 -51 160 -51t161 50t56 144v178h-432zM894 -246v247h-629v-139q0 -90 80 -141q79 -51 221 -51q188 0 328 84z" />
    <glyph glyph-name="Gdotaccent" unicode="&#x120;" horiz-adv-x="1359" 
d="M594 1585v270h227v-270h-227zM676 827l560 1v-727q-215 -125 -525 -125q-293 0 -444 135t-151 395v956h1093v-196h-862v-754q0 -340 363 -340q144 0 300 47v410h-334v198z" />
    <glyph glyph-name="gdotaccent" unicode="&#x121;" horiz-adv-x="1179" 
d="M702 1462v-270h-227v270h227zM559 332l-193 2v-56q0 -94 110 -94h635v-518q-230 -164 -547 -164q-231 0 -372 99t-141 261v250h209v4q-113 35 -111 161v150h131v4q-156 83 -156 283v356h1003v-182h-135v-174q0 -184 -112 -283t-321 -99zM343 889l-1 -176q0 -94 56 -145
t160 -51q105 0 161 50t56 144v178h-432zM895 -244v247h-629v-139q0 -90 80 -141t221 -51q189 0 328 84z" />
    <glyph glyph-name="uni0122" unicode="&#x122;" horiz-adv-x="1359" 
d="M676 827l560 1v-727q-215 -125 -525 -125q-293 0 -444 135t-151 395v956h1093v-196h-862v-754q0 -340 363 -340q144 0 300 47v410h-334v198zM525 -697l68 327v248h225v-248l-139 -327h-154z" />
    <glyph glyph-name="uni0123" unicode="&#x123;" horiz-adv-x="1179" 
d="M698 1423v-247h-225v247l139 328h154zM559 332l-193 2v-56q0 -94 110 -94h635v-518q-230 -164 -547 -164q-231 0 -372 99t-141 261v250h209v4q-113 35 -111 161v150h131v4q-156 83 -156 283v356h1003v-182h-135v-174q0 -184 -112 -283t-321 -99zM343 889l-1 -176
q0 -94 56 -145t160 -51q105 0 161 50t56 144v178h-432zM895 -244v247h-629v-139q0 -90 80 -141t221 -51q189 0 328 84z" />
    <glyph glyph-name="Hcircumflex" unicode="&#x124;" horiz-adv-x="1402" 
d="M844 1855l225 -210v-76h-227l-125 164h-31l-127 -164h-227v76l225 210h287zM139 0v1462h230v-622h665v622h230v-1462h-230v641h-665v-641h-230z" />
    <glyph glyph-name="hcircumflex" unicode="&#x125;" horiz-adv-x="1187" 
d="M373 1855l225 -210v-76h-227l-125 164h-31l-127 -164h-227v76l225 210h287zM117 0v1462h225v-534h4l170 141h555v-1069h-225v887h-287l-217 -182v-705h-225z" />
    <glyph glyph-name="Hbar" unicode="&#x126;" horiz-adv-x="1402" 
d="M1350 1229v-170h-86v-1059h-230v641h-665v-641h-230v1059h-86v170h86v233h230v-233h665v233h230v-233h86zM1034 840v219h-665v-219h665z" />
    <glyph glyph-name="hbar" unicode="&#x127;" horiz-adv-x="1169" 
d="M516 1069h555v-1069h-225v887h-287l-217 -182v-705h-225v1139h-117v161h117v162h225v-162h182v-161h-182v-211h4z" />
    <glyph glyph-name="Itilde" unicode="&#x128;" horiz-adv-x="507" 
d="M-125 1569v231h371l94 -88h104v88h191v-231h-371l-94 88h-104v-88h-191zM139 0v1462h230v-1462h-230z" />
    <glyph glyph-name="itilde" unicode="&#x129;" horiz-adv-x="466" 
d="M-147 1176v231h370l94 -88h105v88h190v-231h-370l-95 88h-104v-88h-190zM123 0v1069h221v-1069h-221z" />
    <glyph glyph-name="Imacron" unicode="&#x12a;" horiz-adv-x="507" 
d="M-55 1569v170h618v-170h-618zM139 0v1462h230v-1462h-230z" />
    <glyph glyph-name="imacron" unicode="&#x12b;" horiz-adv-x="466" 
d="M-76 1176v170h619v-170h-619zM123 0v1069h221v-1069h-221z" />
    <glyph glyph-name="Ibreve" unicode="&#x12c;" horiz-adv-x="507" 
d="M434 1864h202q-20 -135 -122 -215q-103 -80 -258 -80t-258 80q-102 79 -123 215h205q33 -136 176 -138q145 1 178 138zM138 0v1462h230v-1462h-230z" />
    <glyph glyph-name="ibreve" unicode="&#x12d;" horiz-adv-x="466" 
d="M412 1470l201 -2q-19 -134 -122 -214q-101 -79 -258 -79q-155 0 -258 80q-102 80 -122 215h204q33 -137 176 -137q146 0 179 137zM122 -2v1069h221v-1069h-221z" />
    <glyph glyph-name="Iogonek" unicode="&#x12e;" horiz-adv-x="507" 
d="M285 -307h1q90 0 195 41v-156q-102 -41 -237 -41q-307 0 -307 199v98l215 166h-13v1462h230v-1462h2l-211 -190v-46q0 -71 125 -71z" />
    <glyph glyph-name="iogonek" unicode="&#x12f;" horiz-adv-x="446" 
d="M342 1462v-284h-238v284h238zM250 -307q94 0 196 41v-156q-102 -41 -237 -41q-307 0 -307 199v98l215 166h-6v1069h225v-1069l-211 -190v-46q0 -71 125 -71z" />
    <glyph glyph-name="Idotaccent" unicode="&#x130;" horiz-adv-x="507" 
d="M141 1585v270h228v-270h-228zM139 0v1462h230v-1462h-230z" />
    <glyph glyph-name="dotlessi" unicode="&#x131;" horiz-adv-x="466" 
d="M123 0v1069h221v-1069h-221z" />
    <glyph glyph-name="IJ" unicode="&#x132;" horiz-adv-x="1400" 
d="M139 0v1462h230v-1462h-230zM840 -25l-1 1q-146 0 -265 62v190q129 -55 240 -55q227 0 227 225v1065h232v-1071q0 -195 -115 -306q-116 -111 -318 -111z" />
    <glyph glyph-name="ij" unicode="&#x133;" horiz-adv-x="909" 
d="M104 1178v284h238v-284h-238zM563 1178v284h238v-284h-238zM111 0v1069h225v-1069h-225zM459 -418l1 -1q-97 0 -191 35v172q87 -25 150 -25q151 0 150 160v1145h226v-1145q0 -163 -87 -252t-249 -89z" />
    <glyph glyph-name="Jcircumflex" unicode="&#x134;" horiz-adv-x="892" 
d="M795 1855l225 -210v-76h-227l-125 164h-31l-127 -164h-227v76l225 210h287zM332 -25l-1 1q-146 0 -264 62v190q129 -55 239 -55q226 0 228 225v1065h231v-1071q0 -195 -115 -306q-116 -111 -318 -111z" />
    <glyph glyph-name="jcircumflex" unicode="&#x135;" horiz-adv-x="456" 
d="M379 1462l225 -211v-75h-227l-125 163h-31l-127 -163h-227v75l225 211h287zM12 -418l-2 -1q-96 0 -189 35v172q87 -25 150 -25q152 0 152 160v1145h225v-1145q0 -163 -87 -252t-249 -89z" />
    <glyph glyph-name="uni0136" unicode="&#x136;" horiz-adv-x="1353" 
d="M987 778l252 -1v-778h-229v653h-641v-653h-230v1462h230v-616h333q130 0 204 77q73 76 73 219v321h229v-307q0 -269 -221 -373v-4zM557 -372v248h225v-248l-139 -327h-154z" />
    <glyph glyph-name="uni0137" unicode="&#x137;" horiz-adv-x="1120" 
d="M819 582h204v-582h-225v461h-465v-461h-223v1462h223v-821h114q169 0 258 85q90 86 90 241v102h219v-102q0 -265 -195 -381v-4zM454 -371v248h225v-248l-139 -327h-154z" />
    <glyph glyph-name="kgreenlandic" unicode="&#x138;" horiz-adv-x="1120" 
d="M819 582h204v-582h-225v461h-465v-461h-223v1069h223v-428h114q169 0 258 85q90 86 90 241v102h219v-102q0 -265 -195 -381v-4z" />
    <glyph glyph-name="Lacute" unicode="&#x139;" horiz-adv-x="1118" 
d="M162 1569l164 360h241v-76l-207 -284h-198zM139 0v1462h230v-1265h682v-197h-912z" />
    <glyph glyph-name="lacute" unicode="&#x13a;" horiz-adv-x="458" 
d="M137 1569l164 360h242v-76l-207 -284h-199zM117 0v1462h225v-1462h-225z" />
    <glyph glyph-name="uni013B" unicode="&#x13b;" horiz-adv-x="1118" 
d="M139 0v1462h230v-1265h682v-197h-912zM461 -698l67 327v248h226v-248l-140 -327h-153z" />
    <glyph glyph-name="uni013C" unicode="&#x13c;" horiz-adv-x="458" 
d="M117 0v1462h225v-1462h-225zM49 -698l68 327v248h225v-248l-139 -327h-154z" />
    <glyph glyph-name="Lcaron" unicode="&#x13d;" horiz-adv-x="1118" 
d="M395 1855h228v-75l-226 -211h-286l-226 211v75h228l127 -163h30zM139 0v1462h230v-1265h682v-197h-912z" />
    <glyph glyph-name="lcaron" unicode="&#x13e;" horiz-adv-x="458" 
d="M117 0v1462h225v-1462h-225zM539 1085l-29 377h219l-29 -377h-161z" />
    <glyph glyph-name="Ldot" unicode="&#x13f;" horiz-adv-x="1118" 
d="M139 0v1462h230v-1265h682v-197h-912zM600 729v248h225v-248h-225z" />
    <glyph glyph-name="ldot" unicode="&#x140;" horiz-adv-x="458" 
d="M117 0v1462h225v-1462h-225zM541 606v250h223v-250h-223z" />
    <glyph glyph-name="Lslash" unicode="&#x141;" horiz-adv-x="1118" 
d="M369 197h682v-197h-912v561l-139 -69v208l139 70v692h230v-579l266 133v-209l-266 -133v-477z" />
    <glyph glyph-name="lslash" unicode="&#x142;" horiz-adv-x="458" 
d="M547 989v-198l-205 -103v-688h-225v575l-205 -102v201l205 102v686h225v-575z" />
    <glyph glyph-name="Nacute" unicode="&#x143;" horiz-adv-x="1413" 
d="M610 1569l164 360h242v-76l-207 -284h-199zM1042 1462h232v-1462h-232v449q-213 100 -390 260q-174 158 -292 362h-4q11 -50 13 -141v-930h-230v1462h236q96 -248 270 -447q174 -200 397 -321v768z" />
    <glyph glyph-name="nacute" unicode="&#x144;" horiz-adv-x="1187" 
d="M907 1460l-207 -284h-198l164 360h241v-76zM516 1069h555v-1069h-225v887h-287l-217 -182v-705h-225v1069h225v-141h4z" />
    <glyph glyph-name="uni0145" unicode="&#x145;" horiz-adv-x="1413" 
d="M1042 1462h232v-1462h-232v449q-213 100 -390 260q-174 158 -292 362h-4q11 -50 13 -141v-930h-230v1462h236q96 -248 270 -447q174 -200 397 -321v768zM522 -698l68 327v248h225v-248l-139 -327h-154z" />
    <glyph glyph-name="uni0146" unicode="&#x146;" horiz-adv-x="1187" 
d="M516 1069h555v-1069h-225v887h-287l-217 -182v-705h-225v1069h225v-141h4zM481 -371v248h226v-248l-140 -327h-153z" />
    <glyph glyph-name="Ncaron" unicode="&#x147;" horiz-adv-x="1413" 
d="M842 1855h227v-75l-225 -211h-287l-225 211v75h227l127 -163h31zM1042 1462h232v-1462h-232v449q-213 100 -390 260q-174 158 -292 362h-4q11 -50 13 -141v-930h-230v1462h236q96 -248 270 -447q174 -200 397 -321v768z" />
    <glyph glyph-name="ncaron" unicode="&#x148;" horiz-adv-x="1187" 
d="M737 1176h-286l-226 210v76h228l127 -164h30l125 164h228v-76zM516 1069h555v-1069h-225v887h-287l-217 -182v-705h-225v1069h225v-141h4z" />
    <glyph glyph-name="napostrophe" unicode="&#x149;" horiz-adv-x="1597" 
d="M158 1214v248h225v-248l-139 -327h-154zM926 1069h555v-1069h-226v887h-286l-217 -182v-705h-226v1069h226v-141h4z" />
    <glyph glyph-name="Eng" unicode="&#x14a;" horiz-adv-x="1402" 
d="M1034 1462h229v-1546q0 -326 -306 -326q-67 0 -153 21v188q54 -20 104 -20q66 0 96 33t30 109v545q-216 100 -391 261q-173 160 -289 366h-4l19 -115v-977h-230v1462h254q84 -245 251 -447q166 -200 390 -322v768z" />
    <glyph glyph-name="eng" unicode="&#x14b;" horiz-adv-x="1187" 
d="M516 1069h556v-1165q0 -156 -81 -238t-232 -82q-78 0 -141 19v180q57 -12 93 -12q135 0 135 143v973h-287l-217 -182v-705h-225v1069h225v-141h4z" />
    <glyph glyph-name="Omacron" unicode="&#x14c;" horiz-adv-x="1415" 
d="M399 1569v170h619v-170h-619zM1276 1462v-1462h-1137v1462h1137zM1047 1266h-678v-1069h678v1069z" />
    <glyph glyph-name="omacron" unicode="&#x14d;" horiz-adv-x="1146" 
d="M264 1176v170h619v-170h-619zM117 0v1069h911v-1069h-911zM805 182v705h-463v-705h463z" />
    <glyph glyph-name="Obreve" unicode="&#x14e;" horiz-adv-x="1415" 
d="M887 1864h203q-20 -136 -123 -215q-104 -80 -259 -80t-258 80q-102 80 -122 215h204q33 -136 177 -138q145 1 178 138zM1276 1462v-1462h-1137v1462h1137zM1047 1266h-678v-1069h678v1069z" />
    <glyph glyph-name="obreve" unicode="&#x14f;" horiz-adv-x="1146" 
d="M752 1470l201 -2q-19 -134 -122 -214q-101 -79 -258 -79q-155 0 -258 80q-102 80 -122 215h204q33 -137 176 -137q146 0 179 137zM116 -2v1069h911v-1069h-911zM804 180v705h-463v-705h463z" />
    <glyph glyph-name="Ohungarumlaut" unicode="&#x150;" horiz-adv-x="1415" 
d="M360 1569l164 360h242v-76l-207 -284h-199zM829 1569l164 360h242v-76l-207 -284h-199zM1276 1462v-1462h-1137v1462h1137zM1047 1266h-678v-1069h678v1069z" />
    <glyph glyph-name="ohungarumlaut" unicode="&#x151;" horiz-adv-x="1146" 
d="M227 1176l164 360h242v-76l-207 -284h-199zM696 1176l164 360h242v-76l-207 -284h-199zM117 0v1069h911v-1069h-911zM805 182v705h-463v-705h463z" />
    <glyph glyph-name="OE" unicode="&#x152;" horiz-adv-x="2109" 
d="M1276 197h737v-197h-1874v1462h1872v-196h-735v-437h643v-196h-643v-436zM1047 197v1069h-678v-1069h678z" />
    <glyph glyph-name="oe" unicode="&#x153;" horiz-adv-x="1845" 
d="M1729 467l-675 -1v-113q0 -197 297 -195q186 0 360 84v-193q-162 -74 -372 -74q-190 0 -315 68v-43h-907v1069h1612v-602zM828 181v705h-485v-705h485zM1504 886h-450v-256h450v256z" />
    <glyph glyph-name="Racute" unicode="&#x154;" horiz-adv-x="1325" 
d="M989 1853l-207 -284h-198l164 360h241v-76zM971 694h239v-694h-229v567h-612v-567h-230v1462h1041v-407q0 -247 -209 -357v-4zM950 1047v219h-581v-502h284q297 0 297 283z" />
    <glyph glyph-name="racute" unicode="&#x155;" horiz-adv-x="804" 
d="M543 1460l-207 -284h-199l164 360h242v-76zM514 1069h242v-182h-199l-215 -182v-705h-225v1069h225v-141h4z" />
    <glyph glyph-name="uni0156" unicode="&#x156;" horiz-adv-x="1325" 
d="M971 694h239v-694h-229v567h-612v-567h-230v1462h1041v-407q0 -247 -209 -357v-4zM950 1047v219h-581v-502h284q297 0 297 283zM563 -371v248h225v-248l-139 -327h-153z" />
    <glyph glyph-name="uni0157" unicode="&#x157;" horiz-adv-x="804" 
d="M514 1069h242v-182h-199l-215 -182v-705h-225v1069h225v-141h4zM117 -371v248h225v-248l-139 -327h-154z" />
    <glyph glyph-name="Rcaron" unicode="&#x158;" horiz-adv-x="1325" 
d="M817 1569h-287l-225 211v75h227l127 -163h31l125 163h227v-75zM971 694h239v-694h-229v567h-612v-567h-230v1462h1041v-407q0 -247 -209 -357v-4zM950 1047v219h-581v-502h284q297 0 297 283z" />
    <glyph glyph-name="rcaron" unicode="&#x159;" horiz-adv-x="804" 
d="M598 1386l-225 -210h-287l-225 210v76h227l127 -164h31l125 164h227v-76zM514 1069h242v-182h-199l-215 -182v-705h-225v1069h225v-141h4z" />
    <glyph glyph-name="Sacute" unicode="&#x15a;" horiz-adv-x="1208" 
d="M514 1569l164 360h242v-76l-207 -284h-199zM561 -25h-2q-253 0 -463 82v205q224 -90 450 -90q178 0 258 63q79 63 79 204q0 102 -43 152q-44 51 -144 72l-569 120v678h922v-196h-691v-322l406 -86q187 -39 267 -136q81 -97 81 -280q0 -242 -133 -354t-418 -112z" />
    <glyph glyph-name="sacute" unicode="&#x15b;" horiz-adv-x="974" 
d="M385 1176l164 360h242v-76l-207 -284h-199zM469 -25l-2 -1q-218 0 -399 74v191q186 -82 389 -82q123 0 178 39t55 125q0 67 -31 99q-32 34 -103 44l-471 76v528h758v-182h-533v-191l314 -51q153 -26 221 -103q69 -78 69 -220q0 -178 -108 -262t-337 -84z" />
    <glyph glyph-name="Scircumflex" unicode="&#x15c;" horiz-adv-x="1208" 
d="M750 1855l225 -210v-76h-227l-125 164h-31l-127 -164h-227v76l225 210h287zM561 -25h-2q-253 0 -463 82v205q224 -90 450 -90q178 0 258 63q79 63 79 204q0 102 -43 152q-44 51 -144 72l-569 120v678h922v-196h-691v-322l406 -86q187 -39 267 -136q81 -97 81 -280
q0 -242 -133 -354t-418 -112z" />
    <glyph glyph-name="scircumflex" unicode="&#x15d;" horiz-adv-x="974" 
d="M621 1462l225 -211v-75h-228l-124 163h-31l-127 -163h-227v75l225 211h287zM469 -25l-2 -1q-218 0 -399 74v191q186 -82 389 -82q123 0 178 39t55 125q0 67 -31 99q-32 34 -103 44l-471 76v528h758v-182h-533v-191l314 -51q153 -26 221 -103q69 -78 69 -220
q0 -178 -108 -262t-337 -84z" />
    <glyph glyph-name="Scedilla" unicode="&#x15e;" horiz-adv-x="1208" 
d="M1112 442l-3 2q0 -213 -103 -325q-104 -113 -322 -135l-55 -97h241v-223q0 -94 -73 -151t-201 -57q-99 0 -203 37v137q87 -37 168 -37q117 0 117 86v70h-272v84l100 143q-220 8 -410 81v205q224 -90 450 -90q178 0 258 63q79 63 79 204q0 102 -43 152q-44 51 -144 72
l-569 120v678h922v-196h-691v-322l406 -86q187 -39 267 -136q81 -97 81 -279z" />
    <glyph glyph-name="scedilla" unicode="&#x15f;" horiz-adv-x="974" 
d="M915 322q0 -162 -87 -245t-273 -96l-53 -95h241v-223q0 -94 -73 -151q-74 -57 -201 -57q-99 0 -203 37v137q89 -37 168 -37q117 0 117 86v70h-272v84l102 148q-161 8 -312 69v191q186 -82 389 -82q122 0 178 39q55 39 55 125q0 67 -31 99q-32 34 -103 44l-471 76v528h758
v-182h-533v-191l314 -51q153 -26 221 -103q69 -78 69 -220z" />
    <glyph glyph-name="Scaron" unicode="&#x160;" horiz-adv-x="1208" 
d="M748 1855h227v-75l-225 -211h-287l-225 211v75h227l127 -163h31zM561 -25h-2q-253 0 -463 82v205q224 -90 450 -90q178 0 258 63q79 63 79 204q0 102 -43 152q-44 51 -144 72l-569 120v678h922v-196h-691v-322l406 -86q187 -39 267 -136q81 -97 81 -280q0 -242 -133 -354
t-418 -112z" />
    <glyph glyph-name="scaron" unicode="&#x161;" horiz-adv-x="974" 
d="M618 1462h228v-76l-225 -210h-287l-225 210v76h227l127 -164h31zM469 -25l-2 -1q-218 0 -399 74v191q186 -82 389 -82q123 0 178 39t55 125q0 67 -31 99q-32 34 -103 44l-471 76v528h758v-182h-533v-191l314 -51q153 -26 221 -103q69 -78 69 -220q0 -178 -108 -262
t-337 -84z" />
    <glyph glyph-name="uni0162" unicode="&#x162;" horiz-adv-x="1198" 
d="M715 0l-27 1l-65 -115h241v-223q0 -94 -73 -151t-201 -57q-99 0 -203 37v137q87 -37 168 -37q117 0 117 86v70h-273v84l117 168h-33v1266h-424v196h1080v-196h-424v-1266z" />
    <glyph glyph-name="uni0163" unicode="&#x163;" horiz-adv-x="765" 
d="M496 0l-23 1l-65 -115h241v-223q0 -94 -73 -151q-74 -57 -201 -57q-99 0 -203 37v137q89 -37 168 -37q117 0 117 86v70h-273v84l117 168h-31v887h-221v182h221v234h226v-234h221v-182h-221v-887z" />
    <glyph glyph-name="Tcaron" unicode="&#x164;" horiz-adv-x="1198" 
d="M739 1855h228v-75l-226 -211h-286l-226 211v75h228l127 -163h30zM483 0v1266h-424v196h1080v-196h-424v-1266h-232z" />
    <glyph glyph-name="tcaron" unicode="&#x165;" horiz-adv-x="765" 
d="M555 1483h217l-27 -324h-163zM496 1303v-234h221v-182h-221v-887h-226v887h-221v182h221v234h226z" />
    <glyph glyph-name="Tbar" unicode="&#x166;" horiz-adv-x="1198" 
d="M1139 1266h-424v-475h276v-170h-276v-621h-232v621h-274v170h274v475h-424v196h1080v-196z" />
    <glyph glyph-name="tbar" unicode="&#x167;" horiz-adv-x="765" 
d="M717 887h-221v-344h168v-170h-168v-373h-226v373h-174v170h174v344h-221v182h221v234h226v-234h221v-182z" />
    <glyph glyph-name="Utilde" unicode="&#x168;" horiz-adv-x="1427" 
d="M334 1569v231h371l94 -88h104v88h191v-231h-371l-94 88h-105v-88h-190zM139 0v1462h230v-1265h690v1265h229v-1462h-1149z" />
    <glyph glyph-name="utilde" unicode="&#x169;" horiz-adv-x="1150" 
d="M197 1176v231h370l95 -88h104v88h190v-231h-370l-94 88h-105v-88h-190zM1034 1069v-1069h-917v1069h225v-887h467v887h225z" />
    <glyph glyph-name="Umacron" unicode="&#x16a;" horiz-adv-x="1427" 
d="M406 1569v170h618v-170h-618zM139 0v1462h230v-1265h690v1265h229v-1462h-1149z" />
    <glyph glyph-name="umacron" unicode="&#x16b;" horiz-adv-x="1150" 
d="M266 1176v170h619v-170h-619zM1034 1069v-1069h-917v1069h225v-887h467v887h225z" />
    <glyph glyph-name="Ubreve" unicode="&#x16c;" horiz-adv-x="1427" 
d="M893 1864h203q-20 -136 -123 -215q-104 -80 -259 -80t-258 80q-102 80 -122 215h205q33 -136 176 -138q145 1 178 138zM139 0v1462h230v-1265h690v1265h229v-1462h-1149z" />
    <glyph glyph-name="ubreve" unicode="&#x16d;" horiz-adv-x="1150" 
d="M756 1470l201 -2q-19 -134 -122 -214q-101 -79 -258 -79q-155 0 -258 80q-102 80 -122 215h204q33 -137 177 -137q145 0 178 137zM1033 1067v-1069h-917v1069h225v-887h467v887h225z" />
    <glyph glyph-name="Uring" unicode="&#x16e;" horiz-adv-x="1427" 
d="M713 2099v-3q131 0 210 -73q80 -74 80 -190q0 -118 -80 -192q-79 -73 -210 -73q-128 0 -210 74q-81 74 -81 192q0 117 81 191q82 74 210 74zM713 1715h-2q45 0 74 33q29 34 29 84q0 51 -28 82t-73 31q-43 0 -72 -32t-29 -81q0 -50 29 -84q29 -33 72 -33zM137 -3v1462h230
v-1265h690v1265h229v-1462h-1149z" />
    <glyph glyph-name="uring" unicode="&#x16f;" horiz-adv-x="1150" 
d="M575 1706v-3q131 0 210 -73q80 -74 80 -190q0 -119 -79 -192t-211 -73q-128 0 -210 74q-81 73 -81 192q0 117 81 191q82 74 210 74zM575 1322l-1 1q46 0 74 33q29 34 29 84q0 52 -28 81q-29 30 -75 30q-44 0 -72 -31t-28 -81t29 -84q29 -33 72 -33zM1033 1067v-1069h-917
v1069h225v-887h467v887h225z" />
    <glyph glyph-name="Uhungarumlaut" unicode="&#x170;" horiz-adv-x="1427" 
d="M367 1569l163 360h242v-76l-207 -284h-198zM836 1569l163 360h242v-76l-207 -284h-198zM139 0v1462h230v-1265h690v1265h229v-1462h-1149z" />
    <glyph glyph-name="uhungarumlaut" unicode="&#x171;" horiz-adv-x="1150" 
d="M229 1176l164 360h242v-76l-207 -284h-199zM698 1176l164 360h242v-76l-207 -284h-199zM1034 1069v-1069h-917v1069h225v-887h467v887h225z" />
    <glyph glyph-name="Uogonek" unicode="&#x172;" horiz-adv-x="1427" 
d="M1202 -307q91 0 197 41v-156q-102 -41 -238 -41q-307 0 -307 199v98l215 166h-930v1462h230v-1265h690v1265h229v-1462l-211 -190v-46q0 -71 125 -71z" />
    <glyph glyph-name="uogonek" unicode="&#x173;" horiz-adv-x="1150" 
d="M948 -307q91 0 197 41v-156q-102 -41 -238 -41q-307 0 -307 199v98l215 166h-698v1069h225v-887h467v887h225v-1069l-211 -190v-46q0 -71 125 -71z" />
    <glyph glyph-name="Wcircumflex" unicode="&#x174;" horiz-adv-x="1996" 
d="M1143 1855l225 -210v-76h-227l-125 164h-31l-127 -164h-227v76l225 210h287zM317 0l-292 1462h235l238 -1251h55l244 1251h403l244 -1251h55l240 1251h233l-293 -1462h-411l-248 1255h-43l-248 -1255h-412z" />
    <glyph glyph-name="wcircumflex" unicode="&#x175;" horiz-adv-x="1568" 
d="M928 1462l225 -211v-75h-227l-125 163h-31l-127 -163h-227v75l225 211h287zM1319 1069h225l-213 -1069h-360l-174 866h-25l-174 -866h-362l-211 1069h225l160 -866h34l172 866h336l172 -866h33z" />
    <glyph glyph-name="Ycircumflex" unicode="&#x176;" horiz-adv-x="1333" 
d="M811 1855l225 -210v-76h-227l-125 164h-31l-127 -164h-227v76l225 210h287zM551 0v643l-526 819h264l368 -596h23l364 596h265l-527 -819v-643h-231z" />
    <glyph glyph-name="ycircumflex" unicode="&#x177;" horiz-adv-x="1112" 
d="M707 1462l225 -211v-75h-227l-125 163h-31l-127 -163h-227v75l225 211h287zM367 -393l129 393h-101l-370 1069h235l293 -872h22l277 872h235l-485 -1462h-235z" />
    <glyph glyph-name="Ydieresis" unicode="&#x178;" horiz-adv-x="1333" 
d="M360 1585v270h205v-270h-205zM770 1585v270h205v-270h-205zM551 0v643l-526 819h264l368 -596h23l364 596h265l-527 -819v-643h-231z" />
    <glyph glyph-name="Zacute" unicode="&#x179;" horiz-adv-x="1218" 
d="M516 1569l164 360h242v-76l-207 -284h-199zM84 0v317l758 875v74h-740v196h1002v-311l-764 -881v-73h795v-197h-1051z" />
    <glyph glyph-name="zacute" unicode="&#x17a;" horiz-adv-x="1026" 
d="M422 1176l164 360h241v-76l-206 -284h-199zM63 0v287l646 565v35h-629v182h866v-287l-643 -565v-35h660v-182h-900z" />
    <glyph glyph-name="Zdotaccent" unicode="&#x17b;" horiz-adv-x="1218" 
d="M496 1585v270h227v-270h-227zM84 0v317l758 875v74h-740v196h1002v-311l-764 -881v-73h795v-197h-1051z" />
    <glyph glyph-name="zdotaccent" unicode="&#x17c;" horiz-adv-x="1026" 
d="M401 1192v270h228v-270h-228zM63 0v287l646 565v35h-629v182h866v-287l-643 -565v-35h660v-182h-900z" />
    <glyph glyph-name="Zcaron" unicode="&#x17d;" horiz-adv-x="1218" 
d="M750 1855h227v-75l-225 -211h-287l-225 211v75h227l127 -163h31zM84 0v317l758 875v74h-740v196h1002v-311l-764 -881v-73h795v-197h-1051z" />
    <glyph glyph-name="zcaron" unicode="&#x17e;" horiz-adv-x="1026" 
d="M655 1462h228v-76l-226 -210h-286l-226 210v76h228l127 -164h30zM63 0v287l646 565v35h-629v182h866v-287l-643 -565v-35h660v-182h-900z" />
    <glyph glyph-name="uni018F" unicode="&#x18f;" horiz-adv-x="1406" 
d="M160 1462h1100v-1462h-1113v827h883v439h-870v196zM379 197h651v432h-651v-432z" />
    <glyph glyph-name="florin" unicode="&#x192;" horiz-adv-x="1380" 
d="M1118 1280h-204l-57 -395h260v-185h-287l-116 -798q-27 -169 -100 -243q-74 -75 -217 -75q-73 0 -133 19v180q45 -14 87 -14q66 0 96 32q30 31 42 111l115 788h-235v185h264l84 577h401v-182z" />
    <glyph glyph-name="Ohorn" unicode="&#x1a0;" horiz-adv-x="1415" 
d="M1536 1669l213 2q0 -180 -102 -285t-278 -105h-94v-1280h-1137v1462h1198q92 0 146 54t54 152zM1045 199v1069h-678v-1069h678z" />
    <glyph glyph-name="ohorn" unicode="&#x1a1;" horiz-adv-x="1146" 
d="M1288 1276l215 2q0 -180 -102 -285t-278 -105h-94v-887h-911v1069h973q91 0 144 54q53 55 53 152zM805 184v705h-463v-705h463z" />
    <glyph glyph-name="Uhorn" unicode="&#x1af;" horiz-adv-x="1427" 
d="M1548 1669l216 2q0 -180 -102 -285t-279 -105h-94v-1280h-1149v1462h230v-1265h690v1265h291q91 0 144 54q53 55 53 152z" />
    <glyph glyph-name="uhorn" unicode="&#x1b0;" horiz-adv-x="1150" 
d="M1294 1276l216 2q0 -180 -102 -285t-279 -105h-94v-887h-917v1069h225v-887h467v887h287q91 0 144 54q53 55 53 152z" />
    <glyph glyph-name="uni01CD" unicode="&#x1cd;" horiz-adv-x="1333" 
d="M811 1569h-287l-225 211v75h227l127 -163h31l125 163h227v-75zM1071 0l-125 399h-559l-125 -399h-237l456 1462h371l457 -1462h-238zM451 598h432l-121 383l-74 301h-43l-74 -301z" />
    <glyph glyph-name="uni01CE" unicode="&#x1ce;" horiz-adv-x="1122" 
d="M717 1176h-287l-225 210v76h227l127 -164h31l125 164h227v-76zM141 1069l863 -1v-940q-190 -154 -451 -154q-202 0 -326 92q-123 92 -123 243v324h676v254h-639v182zM557 157h1q130 0 222 57v252h-450v-158q0 -151 227 -151z" />
    <glyph glyph-name="uni01CF" unicode="&#x1cf;" horiz-adv-x="507" 
d="M395 1855h228v-75l-226 -211h-286l-226 211v75h228l127 -163h30zM139 0v1462h230v-1462h-230z" />
    <glyph glyph-name="uni01D0" unicode="&#x1d0;" horiz-adv-x="466" 
d="M375 1462h227v-76l-225 -210h-287l-225 210v76h227l127 -164h31zM123 0v1069h221v-1069h-221z" />
    <glyph glyph-name="uni01D1" unicode="&#x1d1;" horiz-adv-x="1415" 
d="M848 1855h227v-75l-225 -211h-287l-225 211v75h227l127 -163h31zM1276 1462v-1462h-1137v1462h1137zM1047 1266h-678v-1069h678v1069z" />
    <glyph glyph-name="uni01D2" unicode="&#x1d2;" horiz-adv-x="1146" 
d="M715 1462h227v-76l-225 -210h-287l-225 210v76h227l127 -164h31zM117 0v1069h911v-1069h-911zM805 182v705h-463v-705h463z" />
    <glyph glyph-name="uni01D3" unicode="&#x1d3;" horiz-adv-x="1427" 
d="M854 1855h227v-75l-225 -211h-287l-225 211v75h227l127 -163h31zM139 0v1462h230v-1265h690v1265h229v-1462h-1149z" />
    <glyph glyph-name="uni01D4" unicode="&#x1d4;" horiz-adv-x="1150" 
d="M717 1462h227v-76l-225 -210h-287l-225 210v76h227l127 -164h31zM1034 1069v-1069h-917v1069h225v-887h467v887h225z" />
    <glyph glyph-name="uni01D5" unicode="&#x1d5;" horiz-adv-x="1427" 
d="M403 1962v170h619v-170h-619zM406 1585v270h204v-270h-204zM815 1585v270h205v-270h-205zM139 0v1462h230v-1265h690v1265h229v-1462h-1149z" />
    <glyph glyph-name="uni01D6" unicode="&#x1d6;" horiz-adv-x="1150" 
d="M266 1569v170h619v-170h-619zM268 1192v270h205v-270h-205zM678 1192v270h205v-270h-205zM1034 1069v-1069h-917v1069h225v-887h467v887h225z" />
    <glyph glyph-name="uni01D7" unicode="&#x1d7;" horiz-adv-x="1427" 
d="M621 1962l163 360h242v-75l-207 -285h-198zM406 1585v270h204v-270h-204zM815 1585v270h205v-270h-205zM139 0v1462h230v-1265h690v1265h229v-1462h-1149z" />
    <glyph glyph-name="uni01D8" unicode="&#x1d8;" horiz-adv-x="1150" 
d="M483 1569l164 360h242v-76l-207 -284h-199zM268 1192v270h205v-270h-205zM678 1192v270h205v-270h-205zM1034 1069v-1069h-917v1069h225v-887h467v887h225z" />
    <glyph glyph-name="uni01D9" unicode="&#x1d9;" horiz-adv-x="1427" 
d="M854 2249h227v-76l-225 -211h-287l-225 211v76h227l127 -164h31zM406 1585v270h204v-270h-204zM815 1585v270h205v-270h-205zM139 0v1462h230v-1265h690v1265h229v-1462h-1149z" />
    <glyph glyph-name="uni01DA" unicode="&#x1da;" horiz-adv-x="1150" 
d="M717 1855h227v-75l-225 -211h-287l-225 211v75h227l127 -163h31zM268 1192v270h205v-270h-205zM678 1192v270h205v-270h-205zM1034 1069v-1069h-917v1069h225v-887h467v887h225z" />
    <glyph glyph-name="uni01DB" unicode="&#x1db;" horiz-adv-x="1427" 
d="M805 1962h-199l-207 285v75h242zM406 1585v270h204v-270h-204zM815 1585v270h205v-270h-205zM139 0v1462h230v-1265h690v1265h229v-1462h-1149z" />
    <glyph glyph-name="uni01DC" unicode="&#x1dc;" horiz-adv-x="1150" 
d="M668 1569h-199l-207 284v76h242zM268 1192v270h205v-270h-205zM678 1192v270h205v-270h-205zM1034 1069v-1069h-917v1069h225v-887h467v887h225z" />
    <glyph glyph-name="Gcaron" unicode="&#x1e6;" horiz-adv-x="1359" 
d="M848 1855h227v-75l-225 -211h-287l-225 211v75h227l127 -163h31zM676 827l560 1v-727q-215 -125 -525 -125q-293 0 -444 135t-151 395v956h1093v-196h-862v-754q0 -340 363 -340q144 0 300 47v410h-334v198z" />
    <glyph glyph-name="gcaron" unicode="&#x1e7;" horiz-adv-x="1179" 
d="M731 1176h-287l-225 210v76h227l127 -164h31l125 164h227v-76zM559 332l-193 2v-56q0 -94 110 -94h635v-518q-230 -164 -547 -164q-231 0 -372 99t-141 261v250h209v4q-113 35 -111 161v150h131v4q-156 83 -156 283v356h1003v-182h-135v-174q0 -184 -112 -283t-321 -99z
M343 889l-1 -176q0 -94 56 -145t160 -51q105 0 161 50t56 144v178h-432zM895 -244v247h-629v-139q0 -90 80 -141t221 -51q189 0 328 84z" />
    <glyph glyph-name="Aringacute" unicode="&#x1fa;" horiz-adv-x="1333" 
d="M979 2468l-207 -285h-199l164 361h242v-76zM666 1569l-1 -3q-128 0 -210 74q-81 74 -81 192t81 191q82 74 210 74q131 0 210 -73q80 -74 80 -190q0 -119 -79 -192t-210 -73zM665 1945h-2q-43 0 -72 -32t-29 -81q0 -50 29 -84q29 -33 72 -33q45 0 74 33q29 34 29 84
q0 51 -28 82t-73 31zM1068 -3l-125 399h-559l-125 -399h-237l456 1462h371l457 -1462h-238zM448 595h432l-121 383l-74 301h-43l-74 -301z" />
    <glyph glyph-name="aringacute" unicode="&#x1fb;" horiz-adv-x="1122" 
d="M887 2075l-207 -285h-199l164 360h242v-75zM573 1176v-3q-128 0 -210 74q-81 73 -81 192q0 117 81 191q82 74 210 74q131 0 210 -73q80 -74 80 -190q0 -118 -80 -192q-79 -73 -210 -73zM573 1551l-1 1q-44 0 -72 -31t-28 -81t29 -84q29 -33 72 -33q45 0 74 33
q29 34 29 84t-29 81q-28 30 -74 30zM140 1067l863 -1v-940q-190 -154 -451 -154q-202 0 -326 92q-123 92 -123 243v324h676v254h-639v182zM556 155h1q131 0 222 57v252h-450v-158q0 -151 227 -151z" />
    <glyph glyph-name="AEacute" unicode="&#x1fc;" horiz-adv-x="1740" 
d="M1167 1853l-206 -284h-199l164 360h241v-76zM1247 197h398v-197h-574l-125 399h-559l-125 -399h-237l456 1462h1157v-196h-725l138 -437h491v-196h-432zM451 598h432l-121 383l-74 285h-43l-74 -285z" />
    <glyph glyph-name="aeacute" unicode="&#x1fd;" horiz-adv-x="1806" 
d="M1212 1460l-206 -284h-199l164 360h241v-76zM1690 467l-673 -1v-250q98 -59 276 -59q205 0 379 84v-193q-168 -74 -379 -74q-232 0 -389 88q-155 -88 -352 -88q-206 0 -327 93t-121 261v305h687v254h-650v182h1549v-602zM1465 886h-448v-256h448v256zM560 157
q139 0 232 57v252h-461v-139q0 -170 229 -170z" />
    <glyph glyph-name="Oslashacute" unicode="&#x1fe;" horiz-adv-x="1415" 
d="M1022 1853l-207 -284h-199l164 360h242v-76zM1276 1462v-1462h-850l-53 -121l-74 31l41 90h-201v1462h850l53 121l74 -31l-41 -90h201zM369 197h57l475 1069h-532v-1069zM1047 197v1069h-58l-475 -1069h533z" />
    <glyph glyph-name="oslashacute" unicode="&#x1ff;" horiz-adv-x="1146" 
d="M887 1460l-207 -284h-199l164 360h242v-76zM1028 1069v-1069h-647l-62 -137l-75 31l47 106h-174v1069h651l61 137l74 -30l-47 -107h172zM342 182h31l313 705h-344v-705zM805 182v705h-31l-313 -705h344z" />
    <glyph glyph-name="uni0218" unicode="&#x218;" horiz-adv-x="1208" 
d="M561 -25h-2q-253 0 -463 82v205q224 -90 450 -90q178 0 258 63q79 63 79 204q0 102 -43 152q-44 51 -144 72l-569 120v678h922v-196h-691v-322l406 -86q187 -39 267 -136q81 -97 81 -280q0 -242 -133 -354t-418 -112zM424 -698l68 327v248h225v-248l-139 -327h-154z" />
    <glyph glyph-name="uni0219" unicode="&#x219;" horiz-adv-x="974" 
d="M469 -25l-2 -1q-218 0 -399 74v191q186 -82 389 -82q123 0 178 39t55 125q0 67 -31 99q-32 34 -103 44l-471 76v528h758v-182h-533v-191l314 -51q153 -26 221 -103q69 -78 69 -220q0 -178 -108 -262t-337 -84zM297 -699l68 327v248h225v-248l-139 -327h-154z" />
    <glyph glyph-name="uni021A" unicode="&#x21a;" horiz-adv-x="1198" 
d="M483 0v1266h-424v196h1080v-196h-424v-1266h-232zM420 -698l67 327v248h226v-248l-140 -327h-153z" />
    <glyph glyph-name="uni021B" unicode="&#x21b;" horiz-adv-x="765" 
d="M717 1069v-182h-221v-887h-226v887h-221v182h221v234h226v-234h221zM270 -371v248h226v-248l-140 -327h-153z" />
    <glyph glyph-name="uni0237" unicode="&#x237;" horiz-adv-x="456" 
d="M12 -418l-2 -1q-96 0 -189 35v172q87 -25 150 -25q152 0 152 160v1145h225v-1145q0 -163 -87 -252t-249 -89z" />
    <glyph glyph-name="uni0251" unicode="&#x251;" horiz-adv-x="1173" 
d="M840 0l1 79h-6q-122 -104 -310 -105q-193 0 -307 102t-114 272v721h955v-1069h-219zM560 157h-2q184 0 276 137v592h-504v-539q0 -91 62 -141q61 -49 168 -49z" />
    <glyph glyph-name="uni0259" unicode="&#x259;" horiz-adv-x="1138" 
d="M520 1094q244 0 379 -99t135 -280v-715h-915v655h690v64q0 193 -303 192q-179 0 -369 -71v180q165 74 383 74zM342 182h467v307h-467v-307z" />
    <glyph glyph-name="uni02BB" unicode="&#x2bb;" horiz-adv-x="505" 
d="M416 1751l-68 -328v-247h-225v247l139 328h154z" />
    <glyph glyph-name="uni02BC" unicode="&#x2bc;" horiz-adv-x="505" 
d="M90 887l68 327v248h225v-248l-139 -327h-154z" />
    <glyph glyph-name="uni02BE" unicode="&#x2be;" horiz-adv-x="573" 
d="M123 1176v139q79 0 126 43q48 44 48 113t-48 113q-47 43 -126 43v139q147 0 237 -81t90 -214t-90 -214t-237 -81z" />
    <glyph glyph-name="uni02BF" unicode="&#x2bf;" horiz-adv-x="573" 
d="M451 1176h-1q-147 0 -237 81t-90 214t90 214t238 81v-139q-79 0 -125 -42q-47 -42 -47 -114t47 -114t125 -42v-139z" />
    <glyph glyph-name="circumflex" unicode="&#x2c6;" horiz-adv-x="983" 
d="M635 1462l225 -211v-75h-227l-125 163h-31l-127 -163h-227v75l225 211h287z" />
    <glyph glyph-name="caron" unicode="&#x2c7;" horiz-adv-x="983" 
d="M633 1462h227v-76l-225 -210h-287l-225 210v76h227l127 -164h31z" />
    <glyph glyph-name="uni02C8" unicode="&#x2c8;" horiz-adv-x="473" 
d="M123 946v516h227v-516h-227z" />
    <glyph glyph-name="uni02C9" unicode="&#x2c9;" horiz-adv-x="864" 
d="M123 1176v170h618v-170h-618z" />
    <glyph glyph-name="uni02CA" unicode="&#x2ca;" horiz-adv-x="651" 
d="M123 1176l164 360h241v-76l-206 -284h-199z" />
    <glyph glyph-name="uni02CB" unicode="&#x2cb;" horiz-adv-x="651" 
d="M528 1176h-198l-207 284v76h242z" />
    <glyph glyph-name="uni02CC" unicode="&#x2cc;" horiz-adv-x="473" 
d="M123 -393v516h227v-516h-227z" />
    <glyph glyph-name="breve" unicode="&#x2d8;" horiz-adv-x="1007" 
d="M682 1470l203 -2q-19 -134 -123 -214q-103 -79 -259 -79q-155 0 -258 80q-102 80 -122 215h205q33 -137 176 -137q145 0 178 137z" />
    <glyph glyph-name="dotaccent" unicode="&#x2d9;" horiz-adv-x="473" 
d="M123 1192v270h227v-270h-227z" />
    <glyph glyph-name="ring" unicode="&#x2da;" horiz-adv-x="827" 
d="M414 1706v-3q131 0 210 -73q80 -74 80 -190q0 -118 -80 -192q-79 -73 -210 -73q-128 0 -210 74q-81 73 -81 192q0 117 81 191q82 74 210 74zM414 1322l-2 1q46 0 74 33q29 34 29 84q0 52 -28 81q-29 30 -73 30t-72 -31q-29 -32 -29 -81q0 -50 29 -84q28 -33 72 -33z" />
    <glyph glyph-name="ogonek" unicode="&#x2db;" horiz-adv-x="790" 
d="M430 -463h-1q-307 0 -307 199v98l215 166h219l-211 -190v-46q0 -73 125 -71q91 0 197 41v-156q-102 -41 -237 -41z" />
    <glyph glyph-name="tilde" unicode="&#x2dc;" horiz-adv-x="1005" 
d="M123 1176v231h371l94 -88h104v88h191v-231h-371l-94 88h-105v-88h-190z" />
    <glyph glyph-name="hungarumlaut" unicode="&#x2dd;" horiz-adv-x="1130" 
d="M123 1176l164 360h241v-76l-206 -284h-199zM592 1176l164 360h241v-76l-206 -284h-199z" />
    <glyph glyph-name="gravecomb" unicode="&#x300;" 
d="M-123 1176h-199l-206 284v76h241z" />
    <glyph glyph-name="acutecomb" unicode="&#x301;" 
d="M-528 1176l163 360h242v-76l-207 -284h-198z" />
    <glyph glyph-name="uni0302" unicode="&#x302;" 
d="M-348 1462l225 -211v-75h-227l-125 163h-31l-127 -163h-227v75l225 211h287z" />
    <glyph glyph-name="tildecomb" unicode="&#x303;" 
d="M-883 1176v231h371l94 -88h105v88h190v-231h-371l-94 88h-104v-88h-191z" />
    <glyph glyph-name="uni0304" unicode="&#x304;" 
d="M-741 1176v170h618v-170h-618z" />
    <glyph glyph-name="uni0306" unicode="&#x306;" 
d="M-326 1470l202 -2q-19 -134 -122 -214q-101 -79 -258 -79q-155 0 -258 80q-102 79 -123 215h205q33 -137 176 -137q145 0 178 137z" />
    <glyph glyph-name="uni0307" unicode="&#x307;" 
d="M-348 1192v270h227v-270h-227z" />
    <glyph glyph-name="uni0308" unicode="&#x308;" 
d="M-737 1192v270h205v-270h-205zM-328 1192v270h205v-270h-205z" />
    <glyph glyph-name="hookabovecomb" unicode="&#x309;" 
d="M-397 1720l-1 -1q127 0 201 -56t74 -150v-223h-242l66 -114h-172l-117 167v84h273v70q0 86 -117 86q-81 0 -168 -37v137q104 37 203 37z" />
    <glyph glyph-name="uni030A" unicode="&#x30a;" 
d="M-414 1706v-3q131 0 210 -73q80 -74 80 -190q0 -118 -80 -192q-79 -73 -210 -73q-128 0 -210 74q-81 73 -81 192q0 117 81 191q82 74 210 74zM-414 1322l-1 1q45 0 74 33q29 34 29 84t-29 81q-28 30 -74 30q-44 0 -72 -31t-28 -81t29 -84q28 -33 72 -33z" />
    <glyph glyph-name="uni030B" unicode="&#x30b;" 
d="M-1008 1176l164 360h242v-76l-207 -284h-199zM-539 1176l164 360h242v-76l-207 -284h-199z" />
    <glyph glyph-name="uni030C" unicode="&#x30c;" 
d="M-350 1462h227v-76l-225 -210h-287l-225 210v76h227l127 -164h31z" />
    <glyph glyph-name="uni031B" unicode="&#x31b;" 
d="M-598 1147l-2 184h61q92 0 146 54t54 152h215q0 -180 -102 -285t-278 -105h-94z" />
    <glyph glyph-name="dotbelowcomb" unicode="&#x323;" 
d="M-350 -393v270h227v-270h-227z" />
    <glyph glyph-name="uni0324" unicode="&#x324;" 
d="M-737 -393v270h205v-270h-205zM-328 -393v270h205v-270h-205z" />
    <glyph glyph-name="uni0326" unicode="&#x326;" 
d="M-416 -698l68 327v248h225v-248l-139 -327h-154z" />
    <glyph glyph-name="uni0327" unicode="&#x327;" 
d="M-397 -545v1q-99 0 -203 37v137q87 -37 168 -37q117 0 117 86v70h-273v84l117 168h172l-66 -115h242v-223q0 -94 -73 -151q-74 -57 -201 -57z" />
    <glyph glyph-name="uni0328" unicode="&#x328;" 
d="M-360 -463h2q-308 0 -309 199v98l215 166h220l-211 -190v-46q0 -73 125 -71q90 0 195 41v-156q-102 -41 -237 -41z" />
    <glyph glyph-name="uni032E" unicode="&#x32e;" 
d="M-326 -123h202q-20 -135 -122 -215q-103 -80 -258 -80t-258 80q-102 79 -123 215h205q33 -137 176 -137q145 0 178 137z" />
    <glyph glyph-name="uni0331" unicode="&#x331;" 
d="M-741 -291v170h618v-170h-618z" />
    <glyph glyph-name="uni0394" unicode="&#x394;" horiz-adv-x="1511" 
d="M940 1462l510 -1462h-1389l510 1462h369zM373 197h766l-279 784l-82 285h-45l-82 -285z" />
    <glyph glyph-name="uni03A9" unicode="&#x3a9;" horiz-adv-x="1456" 
d="M1157 182l213 2v-182h-514v133l39 57q238 142 238 417v658h-809v-658q0 -275 237 -418l39 -57v-133h-514v182h213v4q-201 147 -201 422v854h1260v-854q0 -275 -201 -423v-4z" />
    <glyph glyph-name="uni03BC" unicode="&#x3bc;" horiz-adv-x="1169" 
d="M838 1069h224v-1069h-219v80h-4q-123 -104 -312 -105q-108 0 -195 41v-409h-223v1462h223v-721q0 -91 62 -141q61 -49 168 -49q181 0 276 137v774z" />
    <glyph glyph-name="pi" unicode="&#x3c0;" horiz-adv-x="1312" 
d="M1264 887h-182v-637q0 -102 93 -103q36 0 90 17v-166q-63 -23 -141 -23q-266 0 -266 273v639h-401v-887h-226v887h-182v182h1215v-182z" />
    <glyph glyph-name="uni0E01" unicode="&#xe01;" horiz-adv-x="1288" 
d="M129 0v532q0 168 129 220v2h-43l-98 32v428h1042v-1214h-225v1028h-600v-182h209v-184h-90q-97 0 -99 -117v-545h-225z" />
    <glyph glyph-name="uni0E02" unicode="&#xe02;" horiz-adv-x="1241" 
d="M133 0l-1 601q0 147 98 225l131 105q20 18 21 43v80q-59 -8 -150 -8h-129v167h500v-245q0 -88 -57 -133l-129 -107q-59 -50 -60 -127v-416h355q186 0 186 183v845h225v-845q0 -182 -101 -275q-100 -93 -297 -93h-592z" />
    <glyph glyph-name="uni0E03" unicode="&#xe03;" horiz-adv-x="1253" 
d="M911 1214h231v-845q0 -369 -398 -369h-592v602q0 150 97 225l131 105q22 20 21 42v49h-6q-55 -63 -150 -63q-100 0 -159 71v182h78q41 -78 132 -77q85 0 144 77h176v-245q0 -86 -55 -132l-131 -107q-59 -50 -59 -127v-416h356q184 0 184 183v845z" />
    <glyph glyph-name="uni0E04" unicode="&#xe04;" horiz-adv-x="1318" 
d="M129 1214l1061 -1v-1214h-225v1028h-611v-428q0 -41 -6 -114h2q45 162 223 162h154v-184h-176q-180 0 -182 -227l-15 -236h-225v1214z" />
    <glyph glyph-name="uni0E05" unicode="&#xe05;" horiz-adv-x="1355" 
d="M969 1214l257 -1v-1214h-226v993q-131 -131 -323 -131t-323 131v-393q0 -41 -6 -114h2q45 162 223 162h168v-192h-190q-181 0 -182 -226l-15 -229h-225v1214h258q112 -166 291 -166t291 166z" />
    <glyph glyph-name="uni0E06" unicode="&#xe06;" horiz-adv-x="1327" 
d="M977 1214l226 -2v-806q0 -205 -118 -319q-119 -114 -333 -114q-224 0 -379 113h-4l-7 -88h-211v602q0 150 97 225l131 105q23 20 21 42v49h-6q-56 -63 -150 -63q-100 0 -159 71v182h78q41 -78 132 -77q85 0 144 77h176v-245q0 -86 -55 -132l-131 -107q-59 -50 -59 -127
v-328q139 -112 340 -111q129 0 198 63t69 184v806z" />
    <glyph glyph-name="uni0E07" unicode="&#xe07;" horiz-adv-x="1134" 
d="M567 1214l440 -1v-845q0 -182 -94 -275q-95 -93 -274 -93h-270l-344 907h241l273 -721h90q155 0 153 179v663h-215v186z" />
    <glyph glyph-name="uni0E08" unicode="&#xe08;" horiz-adv-x="1204" 
d="M98 1214l979 -2v-845q0 -369 -397 -369h-272l-160 479q-17 56 -76 57h-74v184h146q80 0 123 -28t67 -100l135 -404h99q186 0 186 183v659h-756v186z" />
    <glyph glyph-name="uni0E09" unicode="&#xe09;" horiz-adv-x="1214" 
d="M152 1214h933v-1214h-211l-6 88h-6q-137 -113 -342 -113q-200 0 -309 114q-109 113 -109 319v278h224v-278q0 -246 231 -246q181 0 303 112v754h-708v186z" />
    <glyph glyph-name="uni0E0A" unicode="&#xe0a;" horiz-adv-x="1255" 
d="M133 0l-1 602q0 147 98 225l131 105q20 18 21 43v80q-59 -8 -150 -8h-129v167h500v-245q0 -88 -57 -133l-129 -107q-59 -50 -60 -127v-416h359q184 0 184 183v293h-231v186h22q103 0 153 54q50 55 50 169v168h225v-162q0 -107 -34 -174t-114 -115v-4h155v-415
q0 -369 -397 -369h-596z" />
    <glyph glyph-name="uni0E0B" unicode="&#xe0b;" horiz-adv-x="1269" 
d="M983 784h161v-415q0 -369 -398 -369h-594v602q0 150 97 225l131 105q22 20 21 42v49h-6q-55 -63 -150 -63q-100 0 -159 71v182h78q41 -78 132 -77q85 0 144 77h176v-245q0 -86 -55 -132l-131 -107q-59 -50 -59 -127v-416h358q186 0 186 183v293h-233v186h23q107 0 156 54
q49 53 49 169v168h224v-162q0 -110 -34 -175q-34 -66 -117 -114v-4z" />
    <glyph glyph-name="uni0E0C" unicode="&#xe0c;" horiz-adv-x="2002" 
d="M1661 1214l226 -2v-806q0 -205 -111 -319t-310 -114q-205 0 -342 113h-4l-6 -88h-211v1028h-569v-182h209v-184h-90q-97 0 -99 -117v-248q0 -111 111 -111h102v-186h-153q-137 0 -210 76q-74 77 -74 216v241q0 167 129 220v2h-43l-98 32v428h1009v-940q125 -113 303 -111
q231 0 231 246v806z" />
    <glyph glyph-name="uni0E0D" unicode="&#xe0d;" horiz-adv-x="2045" 
d="M1772 123l155 -2v-293q0 -283 -299 -283h-700v187h678q102 0 102 102v164h-780v1028h-596v-182h209v-184h-90q-97 0 -99 -117v-248q0 -111 111 -111h102v-186h-153q-137 0 -210 76q-74 77 -74 216v241q0 167 129 220v2h-43l-98 32v428h1036v-1028h283q132 0 193 56
q60 56 60 179v794h225v-780q0 -211 -141 -307v-4z" />
    <glyph glyph-name="uni0E0E" unicode="&#xe0e;" horiz-adv-x="1323" 
d="M150 1214l1039 -1v-1364q0 -179 -96 -270q-97 -92 -278 -92h-504v186h473q182 0 183 181v1173h-600v-182h206v-184h-88q-100 0 -100 -117v-299q0 -119 -64 -182q-65 -63 -183 -63h-90v186h41q39 0 56 15t17 53v278q0 167 131 220v2h-45l-98 32v428z" />
    <glyph glyph-name="uni0E0F" unicode="&#xe0f;" horiz-adv-x="1323" 
d="M150 1214l1040 -1v-1443q0 -283 -299 -283h-96q-142 0 -179 106h-4q-37 -106 -178 -106h-223v186h225q94 0 94 90v52h168v-52q0 -90 93 -90h71q104 0 105 103v1251h-600v-182h206v-184h-88q-100 0 -100 -117v-299q0 -119 -64 -182q-65 -63 -183 -63h-90v186h41
q39 0 56 15t17 53v278q0 167 131 220v2h-45l-98 32v428z" />
    <glyph glyph-name="uni0E10" unicode="&#xe10;" horiz-adv-x="1212" 
d="M98 -453l-2 186h232q94 0 94 90v51h170v-51q0 -90 92 -90h86q56 0 81 24t25 77v164h-469l-160 479q-17 56 -76 57h-74v184h146q80 0 123 -28t67 -100l135 -404h31q133 0 194 56q60 56 60 179v608h-756v186h568q213 0 213 170v72h223v-72q0 -160 -144 -229v-4h119v-717
q0 -213 -139 -307v-4h158v-293q0 -283 -299 -283h-107q-142 0 -177 107h-6q-34 -106 -176 -108h-232z" />
    <glyph glyph-name="uni0E11" unicode="&#xe11;" horiz-adv-x="1300" 
d="M735 1214l437 1v-1214h-223v1028h-151l-365 -299q-59 -50 -59 -127v-602h-224v602q0 150 107 234l121 96q22 19 21 42v49h-6q-55 -63 -150 -63q-104 0 -158 71v182h78q41 -78 132 -77q88 0 145 77h154v-112h4z" />
    <glyph glyph-name="uni0E12" unicode="&#xe12;" horiz-adv-x="2119" 
d="M1778 1214l225 -1v-806q0 -206 -109 -319q-110 -114 -309 -114q-202 0 -344 113h-4l-6 -88h-211v993q-148 -131 -340 -131q-190 0 -339 131v-581q0 -250 242 -250q84 0 164 26v-190q-98 -23 -187 -23q-218 0 -331 111q-112 111 -112 326v802h256q123 -166 307 -165
q186 0 309 165h256v-940q123 -112 301 -111q230 0 232 246v806z" />
    <glyph glyph-name="uni0E13" unicode="&#xe13;" horiz-adv-x="2015" 
d="M1661 1214l224 -1v-1214h-211l-6 88h-6q-137 -113 -342 -113q-200 0 -309 114q-109 113 -109 319v620h-569v-182h209v-184h-90q-98 0 -99 -117v-248q0 -111 111 -111h102v-186h-153q-137 0 -210 76q-74 77 -74 216v241q0 168 129 220v2h-43l-98 32v428h1009v-806
q0 -246 232 -246q181 0 303 112v940z" />
    <glyph glyph-name="uni0E14" unicode="&#xe14;" horiz-adv-x="1335" 
d="M117 1214h1088v-1214h-225v1028h-639v-616q0 -250 242 -250q84 0 164 26v-190q-98 -23 -187 -23q-218 0 -331 111q-112 111 -112 326v802z" />
    <glyph glyph-name="uni0E15" unicode="&#xe15;" horiz-adv-x="1374" 
d="M989 1214h256v-1214h-225v993q-148 -131 -340 -131q-190 0 -339 131v-581q0 -250 242 -250q84 0 164 26v-190q-98 -23 -187 -23q-218 0 -331 111q-112 111 -112 326v802h256q123 -166 307 -165q186 -1 309 165z" />
    <glyph glyph-name="uni0E16" unicode="&#xe16;" horiz-adv-x="1288" 
d="M414 0l-1 -1q-137 0 -210 76q-74 77 -74 216v241q0 168 129 220v2h-43l-98 32v428h1042v-1214h-225v1028h-600v-182h209v-184h-90q-97 0 -99 -117v-248q0 -111 111 -111h102v-186h-153z" />
    <glyph glyph-name="uni0E17" unicode="&#xe17;" horiz-adv-x="1300" 
d="M129 0v1214h225v-139h4l170 139h643v-1214h-223v1028h-362l-232 -190v-838h-225z" />
    <glyph glyph-name="uni0E18" unicode="&#xe18;" horiz-adv-x="1189" 
d="M774 721h-1q161 -33 247 -126q85 -92 85 -235q0 -185 -139 -285t-393 -100q-246 0 -444 88v459h225v-329q108 -31 226 -31q145 0 223 51t78 147q0 141 -170 179l-570 120v555h903v-186h-677v-221z" />
    <glyph glyph-name="uni0E19" unicode="&#xe19;" horiz-adv-x="1300" 
d="M946 1214l225 1v-1214h-210l-7 88h-6q-155 -113 -379 -113q-213 0 -333 114t-120 319v806h225v-806q0 -121 68 -184q67 -63 197 -63q201 0 340 112v940z" />
    <glyph glyph-name="uni0E1A" unicode="&#xe1a;" horiz-adv-x="1288" 
d="M129 0v1214h225v-1028h408q186 0 186 183v845h223v-845q0 -369 -397 -369h-645z" />
    <glyph glyph-name="uni0E1B" unicode="&#xe1b;" horiz-adv-x="1288" 
d="M129 0v1214h225v-1028h408q186 0 186 183v1357h223v-1357q0 -369 -397 -369h-645z" />
    <glyph glyph-name="uni0E1C" unicode="&#xe1c;" horiz-adv-x="1355" 
d="M129 0v1214h471v-186h-246v-749h29l188 170h215l187 -170h28v935h226v-1214h-246l-287 262h-32l-287 -262h-246z" />
    <glyph glyph-name="uni0E1D" unicode="&#xe1d;" horiz-adv-x="1355" 
d="M129 0v1214h471v-186h-246v-749h29l188 170h215l187 -170h28v1447h226v-1726h-246l-287 262h-32l-287 -262h-246z" />
    <glyph glyph-name="uni0E1E" unicode="&#xe1e;" horiz-adv-x="1650" 
d="M1331 1214h228l-160 -1214h-355l-198 752h-39l-199 -752h-356l-160 1214h227l107 -1001h37l194 735h336l195 -735h39z" />
    <glyph glyph-name="uni0E1F" unicode="&#xe1f;" horiz-adv-x="1652" 
d="M1358 1726h227l-166 -1726h-375l-198 752h-39l-199 -752h-356l-160 1214h227l107 -1001h37l194 735h336l195 -735h39z" />
    <glyph glyph-name="uni0E20" unicode="&#xe20;" horiz-adv-x="1323" 
d="M49 0l-2 185h41q40 0 56 15q17 15 17 53v278q0 167 131 220v2h-45l-98 32v428h1042v-1214h-223v1028h-600v-182h206v-184h-88q-100 0 -100 -117v-299q0 -119 -64 -182t-183 -63h-90z" />
    <glyph glyph-name="uni0E21" unicode="&#xe21;" horiz-adv-x="1300" 
d="M958 1214l226 -1v-806q0 -205 -120 -319t-333 -114q-224 0 -379 113h-6l-6 -88h-211v1214h225v-940q139 -112 340 -111q264 0 264 246v806z" />
    <glyph glyph-name="uni0E22" unicode="&#xe22;" horiz-adv-x="1288" 
d="M948 1214l222 1v-845q0 -369 -397 -369h-639v645h146v4q-82 46 -117 114t-35 174v276h508v-186h-283v-102q0 -112 50 -165q49 -52 156 -52h131v-187h-330v-336h402q186 0 186 183v845z" />
    <glyph glyph-name="uni0E23" unicode="&#xe23;" horiz-adv-x="1163" 
d="M571 -25h-1q-249 0 -441 88v195q205 -96 430 -96q146 0 216 47q69 47 69 149q0 150 -160 177l-543 86v593h867v-186h-643v-248l374 -61q169 -27 249 -114q79 -86 79 -245q0 -197 -121 -291t-375 -94z" />
    <glyph glyph-name="uni0E24" unicode="&#xe24;" horiz-adv-x="1288" 
d="M934 -512l-1 1539h-600v-182h209v-184h-90q-98 0 -99 -117v-248q0 -111 111 -111h102v-186h-153q-137 0 -210 76q-74 77 -74 216v241q0 168 129 220v2h-43l-98 32v428h1042v-1726h-225z" />
    <glyph glyph-name="uni0E25" unicode="&#xe25;" horiz-adv-x="1236" 
d="M393 0l-1 -1q-137 0 -210 76t-73 216v428h774v309h-725v186h950v-1214h-225v535h-551v-238q0 -111 112 -111h195v-186h-246z" />
    <glyph glyph-name="uni0E26" unicode="&#xe26;" horiz-adv-x="1323" 
d="M150 1214l1040 -1v-1726h-223v1540h-600v-182h206v-184h-88q-100 0 -100 -117v-299q0 -119 -64 -182q-65 -63 -183 -63h-90v186h41q39 0 56 15t17 53v278q0 167 131 220v2h-45l-98 32v428z" />
    <glyph glyph-name="uni0E27" unicode="&#xe27;" horiz-adv-x="1040" 
d="M449 -25v-1q-213 0 -381 70v205q178 -84 370 -84q157 0 222 62t65 179v622h-657v186h882v-808q1 -215 -124.5 -323t-376.5 -108z" />
    <glyph glyph-name="uni0E28" unicode="&#xe28;" horiz-adv-x="1318" 
d="M1214 1384v-1q0 -160 -143 -229v-4h119v-1151h-225v1028h-611v-428q0 -41 -6 -114h2q45 162 223 162h154v-184h-176q-180 0 -182 -227l-15 -236h-225v1214h649q211 0 211 170v72h225v-72z" />
    <glyph glyph-name="uni0E29" unicode="&#xe29;" horiz-adv-x="1345" 
d="M1296 774l-1 -186h-147v-219q0 -369 -397 -369h-623v1214h225v-1028h385q184 0 186 183v219h-285v186h285v440h225v-440h147z" />
    <glyph glyph-name="uni0E2A" unicode="&#xe2a;" horiz-adv-x="1261" 
d="M393 0l-1 -1q-137 0 -210 76t-73 216v428h774v309h-725v186h538q211 0 211 170v72h226v-72q0 -160 -144 -229v-4h119v-1151h-225v535h-551v-238q0 -111 112 -111h195v-186h-246z" />
    <glyph glyph-name="uni0E2B" unicode="&#xe2b;" horiz-adv-x="1253" 
d="M915 686h222v-686h-224v563h-559v-563h-225v1214h225v-464h187q181 0 272 90q92 90 92 264v110h225v-110q0 -156 -51 -255t-164 -159v-4z" />
    <glyph glyph-name="uni0E2C" unicode="&#xe2c;" horiz-adv-x="1640" 
d="M252 0l-160 1213h227l107 -1001h37l194 735h336l195 -735h39l82 815h-258v186h61q90 0 138 54t48 150v309h226v-296q0 -187 -152 -273v-4h176l-149 -1153h-355l-198 752h-39l-199 -752h-356z" />
    <glyph glyph-name="uni0E2D" unicode="&#xe2d;" horiz-adv-x="1251" 
d="M154 1214l979 -1v-808q0 -224 -133 -327q-134 -104 -393 -104q-272 0 -479 105v639h469v-184h-117q-68 0 -127 8v-338q117 -39 254 -39q161 0 231 57q71 57 71 184v622h-755v186z" />
    <glyph glyph-name="uni0E2E" unicode="&#xe2e;" horiz-adv-x="1275" 
d="M1159 1384l-2 -1q0 -160 -143 -229v-4h119v-745q0 -224 -133 -327q-134 -104 -393 -104q-272 0 -479 105v639h469v-184h-117q-68 0 -127 8v-338q117 -39 254 -39q161 0 231 57q71 57 71 184v622h-755v186h569q211 0 211 170v72h225v-72z" />
    <glyph glyph-name="uni0E2F" unicode="&#xe2f;" horiz-adv-x="1200" 
d="M846 1214l225 1v-1214h-225v643h-381q-397 0 -397 369v202h225v-202q0 -185 184 -186h369v387z" />
    <glyph glyph-name="uni0E30" unicode="&#xe30;" horiz-adv-x="737" 
d="M322 766q-248 0 -248 244v82h225v-74q0 -40 15 -55t59 -15h291v-182h-342zM322 162q-248 0 -248 244v81h225v-73q0 -40 15 -55t59 -15h291v-182h-342z" />
    <glyph glyph-name="uni0E31" unicode="&#xe31;" 
d="M-649 1393h1q-279 0 -279 233v113h209v-109q0 -40 18 -58t63 -18h539v-161h-551z" />
    <glyph glyph-name="uni0E32" unicode="&#xe32;" horiz-adv-x="1058" 
d="M92 1028v186h836v-1214h-223v1028h-613z" />
    <glyph glyph-name="uni0E33" unicode="&#xe33;" horiz-adv-x="1712" 
d="M88 1616l-2 -2q0 100 65 162t169 62q105 0 169 -61q65 -62 65 -162q0 -101 -64 -162t-169 -61q-104 0 -169 62q-64 61 -64 162zM231 1614q0 -39 25 -63q26 -24 64 -24q40 0 65 24q26 24 26 63t-25 63q-26 24 -66 24q-38 0 -64 -24q-25 -24 -25 -63zM743 1026v186h836
v-1214h-223v1028h-613z" />
    <glyph glyph-name="uni0E34" unicode="&#xe34;" 
d="M-98 1554v-161h-850v161h850z" />
    <glyph glyph-name="uni0E35" unicode="&#xe35;" 
d="M-309 1735h210v-342h-883v161h518q91 0 153 -8h2v189z" />
    <glyph glyph-name="uni0E36" unicode="&#xe36;" 
d="M-326 1839l2 -1q103 0 165 -61q63 -61 63 -162t-63 -162q-62 -61 -166 -61h-680v161h334q60 0 125 -4q-8 29 -8 66q0 101 63 162q64 62 165 62zM-325 1527h-2q39 0 63 24t24 63t-24 63t-63 24q-41 0 -65 -24t-24 -63t26 -63t65 -24z" />
    <glyph glyph-name="uni0E37" unicode="&#xe37;" 
d="M-274 1747h176v-354h-893v161h229q94 0 150 -8h6v201h176v-201h156v201z" />
    <glyph glyph-name="uni0E38" unicode="&#xe38;" 
d="M-307 -633v289q-88 -8 -127 -8h-43v174h379v-455h-209z" />
    <glyph glyph-name="uni0E39" unicode="&#xe39;" 
d="M-289 -178l190 1v-221q0 -233 -271 -234h-327v301q-59 -8 -127 -8h-25v162h344v-297h127q47 0 68 18t21 63v215z" />
    <glyph glyph-name="uni0E3A" unicode="&#xe3a;" 
d="M-356 -305h-1q0 57 36 92q37 35 93 35t93 -35q36 -35 36 -92q0 -58 -35 -93t-94 -35t-94 35q-34 34 -34 93z" />
    <glyph glyph-name="uni0E3F" unicode="&#xe3f;" horiz-adv-x="1380" 
d="M999 758l234 1v-316q0 -199 -118 -316q-118 -116 -330 -127v-184h-229v184h-395v1462h395v185h229v-185h416v-348q0 -123 -52 -214q-53 -92 -150 -138v-4zM973 1273h-583v-443h320q128 0 195 73q68 74 68 208v162zM1002 443l-1 202h-612v-453h356q121 0 189 66t68 185z
" />
    <glyph glyph-name="uni0E40" unicode="&#xe40;" horiz-adv-x="573" 
d="M375 0h-1q-128 0 -196 69q-67 68 -67 203v942h225v-938q0 -90 92 -90h96v-186h-149z" />
    <glyph glyph-name="uni0E41" unicode="&#xe41;" horiz-adv-x="1146" 
d="M375 0h-1q-128 0 -196 69q-67 68 -67 203v942h225v-938q0 -90 92 -90h96v-186h-149zM947 0h-1q-128 0 -196 69q-67 68 -67 203v942h225v-938q0 -90 92 -90h97v-186h-150z" />
    <glyph glyph-name="uni0E42" unicode="&#xe42;" horiz-adv-x="563" 
d="M680 1706l-584 -2v-49q258 -131 258 -450v-930q0 -90 92 -90h97v-186h-150q-129 0 -196 69q-67 68 -67 203v934q0 139 -69 234t-190 117v336h809v-186z" />
    <glyph glyph-name="uni0E43" unicode="&#xe43;" horiz-adv-x="563" 
d="M393 0l-1 -1q-128 0 -196 69q-67 68 -67 203v709q0 350 315 483v248h-352v-147h109v-156h-314v483h770v-520q-303 -79 -303 -390v-705q0 -90 92 -90h97v-186h-150z" />
    <glyph glyph-name="uni0E44" unicode="&#xe44;" horiz-adv-x="573" 
d="M391 0l1 -2q-129 0 -195 69t-66 203v934q0 156 66 272t189 180v49h-571v186h796v-336q-120 -22 -190 -116q-69 -93 -69 -233v-930q0 -90 92 -90h97v-186h-150z" />
    <glyph glyph-name="uni0E45" unicode="&#xe45;" horiz-adv-x="1058" 
d="M92 1028v186h836v-1726h-223v1540h-613z" />
    <glyph glyph-name="uni0E46" unicode="&#xe46;" horiz-adv-x="1374" 
d="M989 1214l256 -1v-1726h-225v1505q-148 -131 -340 -131q-190 0 -339 131v-180q0 -250 242 -250q81 0 165 29v-191q-90 -22 -187 -21q-444 0 -444 434v401h256q123 -166 307 -165q186 -1 309 165z" />
    <glyph glyph-name="uni0E47" unicode="&#xe47;" 
d="M-283 1655h184v-56q0 -101 -55 -153q-56 -53 -157 -53h-68q-122 0 -160 92h-4q-39 -92 -159 -92h-70q-100 0 -156 53q-55 52 -55 153v324h868v-158h-686v-157q0 -78 78 -78h25q78 0 77 78v47h160v-47q0 -78 76 -78h27q76 0 75 78v47z" />
    <glyph glyph-name="uni0E48" unicode="&#xe48;" 
d="M-307 1393v391h209v-391h-209z" />
    <glyph glyph-name="uni0E49" unicode="&#xe49;" 
d="M-444 1536h346v-143h-668v123l82 137v4q-117 -6 -119 -6h-37v127h324v-111l-82 -139h4q69 8 150 8z" />
    <glyph glyph-name="uni0E4A" unicode="&#xe4a;" 
d="M-254 1868h158v-230q0 -119 -66 -182t-189 -63h-209v260q-84 -84 -205 -84q-123 0 -203 84v-260h-155v407h180q68 -98 177 -98t180 98h178v-270h54q100 0 100 115v223z" />
    <glyph glyph-name="uni0E4B" unicode="&#xe4b;" 
d="M-154 1700h57v-139h-56q-66 0 -127 8h-10q6 -57 6 -117v-59h-209v59q0 74 5 117h-11q-59 -8 -127 -8h-55v139h55q68 0 127 -8h11q-4 38 -6 117v60h209v-60q0 -61 -6 -117h10q61 8 127 8z" />
    <glyph glyph-name="uni0E4C" unicode="&#xe4c;" 
d="M-762 1393v331h664v-161h-455v-170h-209z" />
    <glyph glyph-name="uni0E4D" unicode="&#xe4d;" 
d="M-565 1616l-2 -2q0 100 65 162t169 62q105 0 169 -61q65 -62 65 -162q0 -101 -64 -162t-169 -61q-104 0 -169 62q-64 61 -64 162zM-422 1614h-2q0 -39 24 -63t63 -24t65 24t26 63t-24 63t-65 24q-39 0 -63 -24t-24 -63z" />
    <glyph glyph-name="uni0E4E" unicode="&#xe4e;" 
d="M-348 1810h-1q-47 0 -64 -16q-18 -16 -18 -60v-45h188v-162h-327q-46 0 -63 -16q-18 -17 -18 -60v-59h-209v65q0 211 221 231v53q0 231 264 231h277v-162h-250z" />
    <glyph glyph-name="uni0E4F" unicode="&#xe4f;" horiz-adv-x="1302" 
d="M651 1110h-1q260 0 419 -156t159 -412t-159 -412t-419 -156q-259 0 -418 156t-159 412t159 412t419 156zM650 1036h-2q-224 0 -361 -135q-136 -135 -136 -358q0 -221 137 -356q136 -135 360 -135q223 0 361 135t138 356q0 223 -136 358q-137 135 -361 135zM648 897l-1 -3
q157 0 251 -97q95 -98 95 -256q0 -157 -95 -255q-94 -97 -250 -97t-252 98q-96 97 -96 255q0 160 96 258q96 97 252 97z" />
    <glyph glyph-name="uni0E50" unicode="&#xe50;" horiz-adv-x="1347" 
d="M129 1044h1090v-1044h-1090v1044zM354 858v-672h639v672h-639z" />
    <glyph glyph-name="uni0E51" unicode="&#xe51;" horiz-adv-x="1349" 
d="M109 1044l1112 -1v-749q0 -260 -160 -399t-457 -139q-184 0 -358 56v192q168 -63 346 -63q208 0 305 87q98 87 98 267v563h-663v-223q0 -182 186 -182h270v-187h-282q-397 0 -397 369v409z" />
    <glyph glyph-name="uni0E52" unicode="&#xe52;" horiz-adv-x="1454" 
d="M1073 1044h253v-868q-242 -201 -597 -201q-289 0 -453 126q-163 126 -163 348v790h225v-790q0 -137 102 -212t288 -75q215 0 375 94v543q-100 -95 -249 -97q-150 0 -246 97v-111q0 -87 37 -125q37 -39 123 -39q49 0 104 13v-160q-57 -13 -129 -15q-350 0 -350 338v344
h242q71 -156 219 -155q151 -1 219 155z" />
    <glyph glyph-name="uni0E53" unicode="&#xe53;" horiz-adv-x="1441" 
d="M1055 1044h256v-1044h-226v823q-161 -131 -370 -131t-372 131v-411q0 -250 244 -250q83 0 164 26v-190q-97 -23 -189 -23q-442 0 -442 437v632h258q137 -167 338 -165q200 -1 339 165z" />
    <glyph glyph-name="uni0E54" unicode="&#xe54;" horiz-adv-x="1378" 
d="M944 858h-603v-471q0 -225 215 -225q94 0 171 45q-16 54 -16 115v315h506v-182h-283v-136q0 -66 33 -102t93 -36h194v-182h-227q-131 0 -215 72q-122 -95 -295 -97q-191 0 -294 108q-103 107 -103 309v653h799q147 0 147 140v55h225v-55q0 -158 -89 -242
q-88 -84 -258 -84z" />
    <glyph glyph-name="uni0E55" unicode="&#xe55;" horiz-adv-x="1378" 
d="M944 858l-603 -1v-471q0 -225 215 -225q94 0 171 45q-16 54 -16 115v315h506v-182h-283v-136q0 -66 33 -102t93 -36h194v-182h-227q-131 0 -215 72q-122 -95 -295 -97q-191 0 -294 108q-103 107 -103 309v653h276q-22 47 -21 105q0 110 72 177q73 68 188 68
q116 0 189 -68q72 -68 72 -176q0 -56 -23 -105h46q147 0 147 140v55h225v-55q0 -158 -89 -242q-88 -84 -258 -84zM548 1134v-2q0 -40 24 -65q24 -26 61 -26q39 0 63 26q24 25 24 65t-24 65q-24 26 -63 26q-37 0 -61 -25q-24 -26 -24 -64z" />
    <glyph glyph-name="uni0E56" unicode="&#xe56;" horiz-adv-x="1390" 
d="M1270 1044l-1 -602q0 -467 -547 -467q-210 0 -379 62v188q155 -63 340 -63q189 0 277 68q87 68 87 216v412h-435l-75 -186h-285l-283 567h250l182 -381l74 186h795z" />
    <glyph glyph-name="uni0E57" unicode="&#xe57;" horiz-adv-x="1947" 
d="M1593 1214h224v-886q0 -172 -93 -262t-269 -90q-229 0 -387 150v698q-151 -131 -356 -131q-208 0 -359 131v-411q0 -250 242 -250q84 0 164 26v-190q-92 -23 -187 -23q-219 0 -331 111t-112 326v632h258q129 -166 326 -166t324 165h258v-821q67 -57 153 -57
q145 0 145 162v886z" />
    <glyph glyph-name="uni0E58" unicode="&#xe58;" horiz-adv-x="1470" 
d="M440 -25v-1q-143 0 -227 93t-84 255v720h842q147 0 147 140v55h223v-55q0 -161 -88 -243q-89 -83 -258 -83h-641v-539q0 -79 30 -118t89 -38q124 0 164 184h174q37 -184 165 -184q119 0 119 157v164h-332v185h555v-344q0 -162 -84 -255t-227 -93q-205 0 -282 191h-4
q-72 -191 -281 -191z" />
    <glyph glyph-name="uni0E59" unicode="&#xe59;" horiz-adv-x="1648" 
d="M1636 1053h-285l-305 -611l178 -442h-242l-346 858h-283v-446q0 -250 242 -250q84 0 164 26v-190q-92 -23 -187 -23q-219 0 -331 111t-112 326v632h674l131 -323l260 518h442v-186z" />
    <glyph glyph-name="uni0E5A" unicode="&#xe5a;" horiz-adv-x="1566" 
d="M846 827v388h225v-1214h-225v643h-381q-397 0 -397 369v202h225v-202q0 -185 184 -186h369zM1212 1215h226v-1214h-226v1214z" />
    <glyph glyph-name="uni0E5B" unicode="&#xe5b;" horiz-adv-x="2582" 
d="M2263 614h234v-184h-340l-31 92l-111 -344h-184l-127 393l-154 -469h-174l-157 494l-193 -596h-500q-397 0 -397 369v675h782v-186h-557v-489q0 -181 185 -183h356l244 756h159l172 -530l148 454h168l135 -415l117 356h164z" />
    <glyph glyph-name="uni1E0C" unicode="&#x1e0c;" horiz-adv-x="1390" 
d="M139 0l1 1462h1135v-936q0 -252 -147 -389q-148 -137 -415 -137h-574zM370 197h344q157 0 243 86t86 243v740h-673v-1069zM601 -393v270h227v-270h-227z" />
    <glyph glyph-name="uni1E0D" unicode="&#x1e0d;" horiz-adv-x="1165" 
d="M580 -25l1 1q-219 0 -348 99t-129 273v721h723v393h226v-1333q-200 -154 -473 -154zM585 159q135 0 243 57v672h-497v-539q0 -190 254 -190zM472 -392v270h227v-270h-227z" />
    <glyph glyph-name="uni1E0E" unicode="&#x1e0e;" horiz-adv-x="1390" 
d="M139 0l1 1462h1135v-936q0 -252 -147 -389q-148 -137 -415 -137h-574zM370 197h344q157 0 243 86t86 243v740h-673v-1069zM404 -291v170h619v-170h-619z" />
    <glyph glyph-name="uni1E0F" unicode="&#x1e0f;" horiz-adv-x="1165" 
d="M580 -25l1 1q-219 0 -348 99t-129 273v721h723v393h226v-1333q-200 -154 -473 -154zM585 159q135 0 243 57v672h-497v-539q0 -190 254 -190zM275 -290v170h619v-170h-619z" />
    <glyph glyph-name="uni1E20" unicode="&#x1e20;" horiz-adv-x="1359" 
d="M397 1569v170h619v-170h-619zM676 827l560 1v-727q-215 -125 -525 -125q-293 0 -444 135t-151 395v956h1093v-196h-862v-754q0 -340 363 -340q144 0 300 47v410h-334v198z" />
    <glyph glyph-name="uni1E21" unicode="&#x1e21;" horiz-adv-x="1179" 
d="M897 1346v-170h-618v170h618zM559 332l-193 2v-56q0 -94 110 -94h635v-518q-230 -164 -547 -164q-231 0 -372 99t-141 261v250h209v4q-113 35 -111 161v150h131v4q-156 83 -156 283v356h1003v-182h-135v-174q0 -184 -112 -283t-321 -99zM343 889l-1 -176q0 -94 56 -145
t160 -51q105 0 161 50t56 144v178h-432zM895 -244v247h-629v-139q0 -90 80 -141t221 -51q189 0 328 84z" />
    <glyph glyph-name="uni1E24" unicode="&#x1e24;" horiz-adv-x="1402" 
d="M139 0v1462h230v-622h665v622h230v-1462h-230v641h-665v-641h-230zM588 -393v270h227v-270h-227z" />
    <glyph glyph-name="uni1E25" unicode="&#x1e25;" horiz-adv-x="1187" 
d="M117 0v1462h225v-534h4l170 141h555v-1069h-225v887h-287l-217 -182v-705h-225zM481 -393v270h228v-270h-228z" />
    <glyph glyph-name="uni1E2A" unicode="&#x1e2a;" horiz-adv-x="1402" 
d="M139 0v1462h230v-622h665v622h230v-1462h-230v641h-665v-641h-230zM879 -123h201q-20 -135 -122 -215q-103 -80 -258 -80t-258 80q-102 79 -123 215h205q33 -137 176 -137q146 0 179 137z" />
    <glyph glyph-name="uni1E2B" unicode="&#x1e2b;" horiz-adv-x="1187" 
d="M117 0v1462h225v-534h4l170 141h555v-1069h-225v887h-287l-217 -182v-705h-225zM772 -123h201q-20 -135 -122 -215q-103 -80 -258 -80t-258 80q-102 80 -122 215h205q33 -137 176 -137q145 0 178 137z" />
    <glyph glyph-name="uni1E36" unicode="&#x1e36;" horiz-adv-x="1118" 
d="M139 0v1462h230v-1265h682v-197h-912zM526 -393v270h228v-270h-228z" />
    <glyph glyph-name="uni1E37" unicode="&#x1e37;" horiz-adv-x="458" 
d="M117 0v1462h225v-1462h-225zM117 -393v270h227v-270h-227z" />
    <glyph glyph-name="uni1E38" unicode="&#x1e38;" horiz-adv-x="1118" 
d="M-55 1569v170h618v-170h-618zM139 0v1462h230v-1265h682v-197h-912zM526 -393v270h228v-270h-228z" />
    <glyph glyph-name="uni1E39" unicode="&#x1e39;" horiz-adv-x="458" 
d="M-80 1569v170h619v-170h-619zM117 0v1462h225v-1462h-225zM117 -393v270h227v-270h-227z" />
    <glyph glyph-name="uni1E3A" unicode="&#x1e3a;" horiz-adv-x="1118" 
d="M139 0v1462h230v-1265h682v-197h-912zM330 -291v170h618v-170h-618z" />
    <glyph glyph-name="uni1E3B" unicode="&#x1e3b;" horiz-adv-x="458" 
d="M117 0v1462h225v-1462h-225zM-80 -291v170h619v-170h-619z" />
    <glyph glyph-name="uni1E42" unicode="&#x1e42;" horiz-adv-x="1579" 
d="M139 0l-3 1460h244q82 -167 180 -244q97 -76 226 -76q130 0 228 77q97 76 180 245h244v-1462h-230v1161h-4q-142 -217 -417 -217q-272 0 -414 217h-4v-1161h-230zM673 -395v270h227v-270h-227z" />
    <glyph glyph-name="uni1E43" unicode="&#x1e43;" horiz-adv-x="1695" 
d="M1137 1069h442v-1069h-225v887h-174l-219 -182v-705h-226v887h-174l-219 -182v-705h-225v1069h225v-141h4l172 141h443v-141h4zM735 -393v270h228v-270h-228z" />
    <glyph glyph-name="uni1E44" unicode="&#x1e44;" horiz-adv-x="1413" 
d="M588 1585v270h227v-270h-227zM1042 1462h232v-1462h-232v449q-213 100 -390 260q-174 158 -292 362h-4q11 -50 13 -141v-930h-230v1462h236q96 -248 270 -447q174 -200 397 -321v768z" />
    <glyph glyph-name="uni1E45" unicode="&#x1e45;" horiz-adv-x="1187" 
d="M709 1462v-270h-228v270h228zM516 1069h555v-1069h-225v887h-287l-217 -182v-705h-225v1069h225v-141h4z" />
    <glyph glyph-name="uni1E46" unicode="&#x1e46;" horiz-adv-x="1413" 
d="M1042 1462h232v-1462h-232v449q-213 100 -390 260q-174 158 -292 362h-4q11 -50 13 -141v-930h-230v1462h236q96 -248 270 -447q174 -200 397 -321v768zM588 -393v270h227v-270h-227z" />
    <glyph glyph-name="uni1E47" unicode="&#x1e47;" horiz-adv-x="1187" 
d="M516 1069h555v-1069h-225v887h-287l-217 -182v-705h-225v1069h225v-141h4zM481 -393v270h228v-270h-228z" />
    <glyph glyph-name="uni1E48" unicode="&#x1e48;" horiz-adv-x="1413" 
d="M1042 1462h232v-1462h-232v449q-213 100 -390 260q-174 158 -292 362h-4q11 -50 13 -141v-930h-230v1462h236q96 -248 270 -447q174 -200 397 -321v768zM391 -291v170h619v-170h-619z" />
    <glyph glyph-name="uni1E49" unicode="&#x1e49;" horiz-adv-x="1187" 
d="M516 1069h555v-1069h-225v887h-287l-217 -182v-705h-225v1069h225v-141h4zM285 -291v170h618v-170h-618z" />
    <glyph glyph-name="uni1E5A" unicode="&#x1e5a;" horiz-adv-x="1325" 
d="M971 694h239v-694h-229v567h-612v-567h-230v1462h1041v-407q0 -247 -209 -357v-4zM950 1047v219h-581v-502h284q297 0 297 283zM561 -393v270h227v-270h-227z" />
    <glyph glyph-name="uni1E5B" unicode="&#x1e5b;" horiz-adv-x="804" 
d="M514 1069h242v-182h-199l-215 -182v-705h-225v1069h225v-141h4zM117 -393v270h227v-270h-227z" />
    <glyph glyph-name="uni1E5C" unicode="&#x1e5c;" horiz-adv-x="1325" 
d="M985 1739v-170h-618v170h618zM971 694h239v-694h-229v567h-612v-567h-230v1462h1041v-407q0 -247 -209 -357v-4zM950 1047v219h-581v-502h284q297 0 297 283zM561 -393v270h227v-270h-227z" />
    <glyph glyph-name="uni1E5D" unicode="&#x1e5d;" horiz-adv-x="804" 
d="M539 1346v-170h-619v170h619zM514 1069h242v-182h-199l-215 -182v-705h-225v1069h225v-141h4zM117 -393v270h227v-270h-227z" />
    <glyph glyph-name="uni1E5E" unicode="&#x1e5e;" horiz-adv-x="1325" 
d="M971 694h239v-694h-229v567h-612v-567h-230v1462h1041v-407q0 -247 -209 -357v-4zM950 1047v219h-581v-502h284q297 0 297 283zM365 -291v170h618v-170h-618z" />
    <glyph glyph-name="uni1E5F" unicode="&#x1e5f;" horiz-adv-x="804" 
d="M514 1069h242v-182h-199l-215 -182v-705h-225v1069h225v-141h4zM-80 -291v170h619v-170h-619z" />
    <glyph glyph-name="uni1E60" unicode="&#x1e60;" horiz-adv-x="1208" 
d="M492 1585v270h227v-270h-227zM561 -25h-2q-253 0 -463 82v205q224 -90 450 -90q178 0 258 63q79 63 79 204q0 102 -43 152q-44 51 -144 72l-569 120v678h922v-196h-691v-322l406 -86q187 -39 267 -136q81 -97 81 -280q0 -242 -133 -354t-418 -112z" />
    <glyph glyph-name="uni1E61" unicode="&#x1e61;" horiz-adv-x="974" 
d="M365 1192v270h227v-270h-227zM469 -25l-2 -1q-218 0 -399 74v191q186 -82 389 -82q123 0 178 39t55 125q0 67 -31 99q-32 34 -103 44l-471 76v528h758v-182h-533v-191l314 -51q153 -26 221 -103q69 -78 69 -220q0 -178 -108 -262t-337 -84z" />
    <glyph glyph-name="uni1E62" unicode="&#x1e62;" horiz-adv-x="1208" 
d="M561 -25h-2q-253 0 -463 82v205q224 -90 450 -90q178 0 258 63q79 63 79 204q0 102 -43 152q-44 51 -144 72l-569 120v678h922v-196h-691v-322l406 -86q187 -39 267 -136q81 -97 81 -280q0 -242 -133 -354t-418 -112zM490 -393v270h227v-270h-227z" />
    <glyph glyph-name="uni1E63" unicode="&#x1e63;" horiz-adv-x="974" 
d="M469 -25l-2 -1q-218 0 -399 74v191q186 -82 389 -82q123 0 178 39t55 125q0 67 -31 99q-32 34 -103 44l-471 76v528h758v-182h-533v-191l314 -51q153 -26 221 -103q69 -78 69 -220q0 -178 -108 -262t-337 -84zM363 -394v270h227v-270h-227z" />
    <glyph glyph-name="uni1E6C" unicode="&#x1e6c;" horiz-adv-x="1198" 
d="M483 0v1266h-424v196h1080v-196h-424v-1266h-232zM485 -393v270h228v-270h-228z" />
    <glyph glyph-name="uni1E6D" unicode="&#x1e6d;" horiz-adv-x="765" 
d="M496 1069h221v-182h-221v-887h-226v887h-221v182h221v234h226v-234zM270 -393v270h228v-270h-228z" />
    <glyph glyph-name="uni1E6E" unicode="&#x1e6e;" horiz-adv-x="1198" 
d="M483 0v1266h-424v196h1080v-196h-424v-1266h-232zM289 -291v170h618v-170h-618z" />
    <glyph glyph-name="uni1E6F" unicode="&#x1e6f;" horiz-adv-x="765" 
d="M496 1069h221v-182h-221v-887h-226v887h-221v182h221v234h226v-234zM74 -291v170h618v-170h-618z" />
    <glyph glyph-name="Wgrave" unicode="&#x1e80;" horiz-adv-x="1996" 
d="M1092 1569h-199l-207 284v76h242zM317 0l-292 1462h235l238 -1251h55l244 1251h403l244 -1251h55l240 1251h233l-293 -1462h-411l-248 1255h-43l-248 -1255h-412z" />
    <glyph glyph-name="wgrave" unicode="&#x1e81;" horiz-adv-x="1568" 
d="M877 1176h-199l-207 284v76h242zM1319 1069h225l-213 -1069h-360l-174 866h-25l-174 -866h-362l-211 1069h225l160 -866h34l172 866h336l172 -866h33z" />
    <glyph glyph-name="Wacute" unicode="&#x1e82;" horiz-adv-x="1996" 
d="M907 1569l164 360h242v-76l-207 -284h-199zM317 0l-292 1462h235l238 -1251h55l244 1251h403l244 -1251h55l240 1251h233l-293 -1462h-411l-248 1255h-43l-248 -1255h-412z" />
    <glyph glyph-name="wacute" unicode="&#x1e83;" horiz-adv-x="1568" 
d="M692 1176l164 360h242v-76l-207 -284h-199zM1319 1069h225l-213 -1069h-360l-174 866h-25l-174 -866h-362l-211 1069h225l160 -866h34l172 866h336l172 -866h33z" />
    <glyph glyph-name="Wdieresis" unicode="&#x1e84;" horiz-adv-x="1996" 
d="M692 1585v270h205v-270h-205zM1102 1585v270h205v-270h-205zM317 0l-292 1462h235l238 -1251h55l244 1251h403l244 -1251h55l240 1251h233l-293 -1462h-411l-248 1255h-43l-248 -1255h-412z" />
    <glyph glyph-name="wdieresis" unicode="&#x1e85;" horiz-adv-x="1568" 
d="M477 1192v270h205v-270h-205zM887 1192v270h205v-270h-205zM1319 1069h225l-213 -1069h-360l-174 866h-25l-174 -866h-362l-211 1069h225l160 -866h34l172 866h336l172 -866h33z" />
    <glyph glyph-name="uni1E8E" unicode="&#x1e8e;" horiz-adv-x="1333" 
d="M553 1585v270h227v-270h-227zM551 0v643l-526 819h264l368 -596h23l364 596h265l-527 -819v-643h-231z" />
    <glyph glyph-name="uni1E8F" unicode="&#x1e8f;" horiz-adv-x="1112" 
d="M451 1192v270h227v-270h-227zM367 -393l129 393h-101l-370 1069h235l293 -872h22l277 872h235l-485 -1462h-235z" />
    <glyph glyph-name="uni1E92" unicode="&#x1e92;" horiz-adv-x="1218" 
d="M84 0v317l758 875v74h-740v196h1002v-311l-764 -881v-73h795v-197h-1051zM496 -393v270h227v-270h-227z" />
    <glyph glyph-name="uni1E93" unicode="&#x1e93;" horiz-adv-x="1026" 
d="M63 0v287l646 565v35h-629v182h866v-287l-643 -565v-35h660v-182h-900zM401 -393v270h228v-270h-228z" />
    <glyph glyph-name="uni1E97" unicode="&#x1e97;" horiz-adv-x="765" 
d="M281 1696v-271h-205v271h205zM690 1696v-271h-205v271h205zM717 1069v-182h-221v-887h-226v887h-221v182h221v234h226v-234h221z" />
    <glyph glyph-name="uni1E9E" unicode="&#x1e9e;" horiz-adv-x="1439" 
d="M1008 1022v-1q0 -71 38 -141q37 -68 92 -126t107 -116q53 -58 90 -138q38 -81 38 -165q0 -166 -128 -262q-127 -96 -354 -96q-193 0 -372 78v221q176 -104 354 -104q127 0 198 54q70 54 70 152q0 68 -37 132q-38 64 -90 117q-35 35 -103 105q-50 51 -88 123
q-37 70 -37 146q0 142 140 261v4h-557v-1266h-230v1462h1037v-180q-168 -102 -168 -260z" />
    <glyph glyph-name="uni1EA0" unicode="&#x1ea0;" horiz-adv-x="1333" 
d="M1309 0h-238l-125 399h-559l-125 -399h-237l456 1462h371zM451 598h432l-121 383l-74 301h-43l-74 -301zM553 -393v270h227v-270h-227z" />
    <glyph glyph-name="uni1EA1" unicode="&#x1ea1;" horiz-adv-x="1122" 
d="M141 1069l863 -1v-940q-190 -154 -451 -154q-202 0 -326 92q-123 92 -123 243v324h676v254h-639v182zM557 157h1q130 0 222 57v252h-450v-158q0 -151 227 -151zM441 -394v270h228v-270h-228z" />
    <glyph glyph-name="uni1EA2" unicode="&#x1ea2;" horiz-adv-x="1333" 
d="M752 1890l-1 1q0 86 -117 86q-79 0 -168 -37v138q102 37 203 37q127 0 201 -57t74 -151v-224h-242l66 -114h-172l-117 168v84h273v69zM1070 1l-125 399h-559l-125 -399h-237l456 1462h371l457 -1462h-238zM450 599h432l-121 383l-74 301h-43l-74 -301z" />
    <glyph glyph-name="uni1EA3" unicode="&#x1ea3;" horiz-adv-x="1122" 
d="M657 1497l1 -1q0 86 -116 86q-79 0 -168 -37v137q102 37 201 37q127 0 201 -56t74 -150v-223h-242l66 -114h-172l-117 167v84h272v70zM142 1068l863 -1v-940q-190 -154 -451 -154q-202 0 -326 92q-123 91 -123 243v324h676v254h-639v182zM558 156h1q131 0 222 57v252
h-450v-158q0 -151 227 -151z" />
    <glyph glyph-name="uni1EA4" unicode="&#x1ea4;" horiz-adv-x="1333" 
d="M981 2247l-207 -285h-199l164 360h242v-75zM653 1733l-127 -164h-227v76l225 210h287l225 -210v-76h-227l-125 164h-31zM1071 0l-125 399h-559l-125 -399h-237l456 1462h371l457 -1462h-238zM451 598h432l-121 383l-74 301h-43l-74 -301z" />
    <glyph glyph-name="uni1EA5" unicode="&#x1ea5;" horiz-adv-x="1122" 
d="M887 1853l-207 -284h-199l164 360h242v-76zM559 1339l-127 -163h-227v75l225 211h287l225 -211v-75h-227l-125 163h-31zM141 1069l863 -1v-940q-190 -154 -451 -154q-202 0 -326 92q-123 92 -123 243v324h676v254h-639v182zM557 157h1q130 0 222 57v252h-450v-158
q0 -151 227 -151z" />
    <glyph glyph-name="uni1EA6" unicode="&#x1ea6;" horiz-adv-x="1333" 
d="M760 1962h-199l-207 285v75h242zM653 1733l-127 -164h-227v76l225 210h287l225 -210v-76h-227l-125 164h-31zM1071 0l-125 399h-559l-125 -399h-237l456 1462h371l457 -1462h-238zM451 598h432l-121 383l-74 301h-43l-74 -301z" />
    <glyph glyph-name="uni1EA7" unicode="&#x1ea7;" horiz-adv-x="1122" 
d="M666 1569h-199l-207 284v76h242zM559 1339l-127 -163h-227v75l225 211h287l225 -211v-75h-227l-125 163h-31zM141 1069l863 -1v-940q-190 -154 -451 -154q-202 0 -326 92q-123 92 -123 243v324h676v254h-639v182zM557 157h1q130 0 222 57v252h-450v-158q0 -151 227 -151z
" />
    <glyph glyph-name="uni1EA8" unicode="&#x1ea8;" horiz-adv-x="1333" 
d="M754 2284l-1 1q0 86 -117 86q-81 0 -168 -37v137q102 37 203 37q127 0 201 -57t74 -151v-223h-241l65 -115h-172l-117 168v84h273v70zM652 1734l-127 -164h-227v76l225 210h287l225 -210v-76h-227l-125 164h-31zM1070 1l-125 399h-559l-125 -399h-237l456 1462h371
l457 -1462h-238zM450 599h432l-121 383l-74 301h-43l-74 -301z" />
    <glyph glyph-name="uni1EA9" unicode="&#x1ea9;" horiz-adv-x="1122" 
d="M659 1890l-1 1q0 86 -116 86q-81 0 -168 -37v138q102 37 203 37q127 0 201 -57t74 -151v-224h-242l66 -114h-172l-117 168v84h272v69zM558 1340l-127 -163h-227v75l225 211h287l225 -211v-75h-227l-125 163h-31zM140 1070l863 -1v-940q-190 -154 -451 -154
q-202 0 -326 92q-123 91 -123 243v324h676v254h-639v182zM556 158h1q131 0 222 57v252h-450v-158q0 -151 227 -151z" />
    <glyph glyph-name="uni1EAA" unicode="&#x1eaa;" horiz-adv-x="1333" 
d="M479 2050v-88h-190v231h370l95 -88h104v88h191v-231h-371l-94 88h-105zM299 1645l225 210h287l225 -210v-76h-227l-125 164h-31l-127 -164h-227v76zM1071 0l-125 399h-559l-125 -399h-237l456 1462h371l457 -1462h-238zM451 598h432l-121 383l-74 301h-43l-74 -301z" />
    <glyph glyph-name="uni1EAB" unicode="&#x1eab;" horiz-adv-x="1122" 
d="M385 1657v-88h-190v231h370l94 -88h105v88h190v-231h-370l-95 88h-104zM205 1251l225 211h287l225 -211v-75h-227l-125 163h-31l-127 -163h-227v75zM141 1069l863 -1v-940q-190 -154 -451 -154q-202 0 -326 92q-123 92 -123 243v324h676v254h-639v182zM557 157h1
q130 0 222 57v252h-450v-158q0 -151 227 -151z" />
    <glyph glyph-name="uni1EAC" unicode="&#x1eac;" horiz-adv-x="1333" 
d="M653 1733l-127 -164h-227v76l225 210h287l225 -210v-76h-227l-125 164h-31zM1309 0h-238l-125 399h-559l-125 -399h-237l456 1462h371zM451 598h432l-121 383l-74 301h-43l-74 -301zM553 -393v270h227v-270h-227z" />
    <glyph glyph-name="uni1EAD" unicode="&#x1ead;" horiz-adv-x="1122" 
d="M559 1339l-127 -163h-227v75l225 211h287l225 -211v-75h-227l-125 163h-31zM141 1069l863 -1v-940q-190 -154 -451 -154q-202 0 -326 92q-123 92 -123 243v324h676v254h-639v182zM557 157h1q130 0 222 57v252h-450v-158q0 -151 227 -151zM441 -394v270h228v-270h-228z
" />
    <glyph glyph-name="uni1EAE" unicode="&#x1eae;" horiz-adv-x="1333" 
d="M981 2238l-207 -284h-199l164 360h242v-76zM667 1569q-155 0 -258 80q-102 80 -122 215h205q33 -136 176 -138q145 0 178 138h203q-20 -136 -123 -215q-104 -80 -259 -80zM1070 0l-125 399h-559l-125 -399h-237l456 1462h371l457 -1462h-238zM450 598h432l-121 383
l-74 301h-43l-74 -301z" />
    <glyph glyph-name="uni1EAF" unicode="&#x1eaf;" horiz-adv-x="1122" 
d="M887 1845l-207 -284h-199l164 360h242v-76zM573 1176l-2 -2q-155 0 -258 80q-102 80 -122 215h204q33 -137 176 -137q145 0 180 137h202q-19 -134 -122 -214q-101 -79 -258 -79zM138 1067l863 -1v-940q-190 -154 -451 -154q-202 0 -326 92q-123 92 -123 243v324h676v254
h-639v182zM554 155h1q131 0 222 57v252h-450v-158q0 -151 227 -151z" />
    <glyph glyph-name="uni1EB0" unicode="&#x1eb0;" horiz-adv-x="1333" 
d="M758 1954h-199l-207 284v76h242zM667 1569q-155 0 -258 80q-102 80 -122 215h205q33 -136 176 -138q145 0 178 138h203q-20 -136 -123 -215q-104 -80 -259 -80zM1070 0l-125 399h-559l-125 -399h-237l456 1462h371l457 -1462h-238zM450 598h432l-121 383l-74 301h-43
l-74 -301z" />
    <glyph glyph-name="uni1EB1" unicode="&#x1eb1;" horiz-adv-x="1122" 
d="M664 1561h-199l-207 284v76h242zM573 1176l-2 -2q-155 0 -258 80q-102 80 -122 215h204q33 -137 176 -137q145 0 180 137h202q-19 -134 -122 -214q-101 -79 -258 -79zM138 1067l863 -1v-940q-190 -154 -451 -154q-202 0 -326 92q-123 92 -123 243v324h676v254h-639v182z
M554 155h1q131 0 222 57v252h-450v-158q0 -151 227 -151z" />
    <glyph glyph-name="uni1EB2" unicode="&#x1eb2;" horiz-adv-x="1333" 
d="M752 2275l-1 1q0 86 -117 86q-79 0 -168 -37v138q102 37 203 37q127 0 201 -57t74 -151v-224h-242l66 -114h-172l-117 168v84h273v69zM666 1570q-155 0 -258 80q-102 80 -122 215h205q33 -136 176 -138q145 0 178 138h203q-20 -136 -123 -215q-104 -80 -259 -80zM1069 1
l-125 399h-559l-125 -399h-237l456 1462h371l457 -1462h-238zM449 599h432l-121 383l-74 301h-43l-74 -301z" />
    <glyph glyph-name="uni1EB3" unicode="&#x1eb3;" horiz-adv-x="1122" 
d="M657 1882l1 -1q0 86 -116 86q-79 0 -168 -37v137q102 37 201 37q127 0 201 -56t74 -150v-223h-242l66 -114h-172l-117 168v83h272v70zM574 1175l-2 -2q-155 0 -258 80q-102 80 -122 215h204q33 -137 176 -137q145 0 180 137h202q-19 -134 -122 -214q-101 -79 -258 -79z
M139 1066l863 -1v-940q-190 -154 -451 -154q-202 0 -326 92q-123 91 -123 243v324h676v254h-639v182zM555 154h1q130 0 222 57v252h-450v-158q0 -151 227 -151z" />
    <glyph glyph-name="uni1EB4" unicode="&#x1eb4;" horiz-adv-x="1333" 
d="M477 2042v-88h-190v231h370l95 -88h104v88h191v-231h-371l-94 88h-105zM667 1569q-155 0 -258 80q-102 80 -122 215h205q33 -136 176 -138q145 0 178 138h203q-20 -136 -123 -215q-104 -80 -259 -80zM1070 0l-125 399h-559l-125 -399h-237l456 1462h371l457 -1462h-238z
M450 598h432l-121 383l-74 301h-43l-74 -301z" />
    <glyph glyph-name="uni1EB5" unicode="&#x1eb5;" horiz-adv-x="1122" 
d="M383 1649v-88h-190v231h370l94 -88h105v88h190v-231h-370l-95 88h-104zM573 1176l-2 -2q-155 0 -258 80q-102 80 -122 215h204q33 -137 176 -137q145 0 180 137h202q-19 -134 -122 -214q-101 -79 -258 -79zM138 1067l863 -1v-940q-190 -154 -451 -154q-202 0 -326 92
q-123 92 -123 243v324h676v254h-639v182zM554 155h1q131 0 222 57v252h-450v-158q0 -151 227 -151z" />
    <glyph glyph-name="uni1EB6" unicode="&#x1eb6;" horiz-adv-x="1333" 
d="M667 1569q-155 0 -258 80q-102 80 -122 215h205q33 -136 176 -138q145 0 178 138h203q-20 -136 -123 -215q-104 -80 -259 -80zM1308 0h-238l-125 399h-559l-125 -399h-237l456 1462h371zM450 598h432l-121 383l-74 301h-43l-74 -301zM552 -393v270h227v-270h-227z" />
    <glyph glyph-name="uni1EB7" unicode="&#x1eb7;" horiz-adv-x="1122" 
d="M573 1176l-2 -2q-155 0 -258 80q-102 80 -122 215h204q33 -137 176 -137q145 0 180 137h202q-19 -134 -122 -214q-101 -79 -258 -79zM138 1067l863 -1v-940q-190 -154 -451 -154q-202 0 -326 92q-123 92 -123 243v324h676v254h-639v182zM554 155h1q131 0 222 57v252h-450
v-158q0 -151 227 -151zM438 -396v270h228v-270h-228z" />
    <glyph glyph-name="uni1EB8" unicode="&#x1eb8;" horiz-adv-x="1202" 
d="M139 0v1462h965v-196h-735v-437h645v-196h-645v-436h737v-197h-967zM512 -393v270h227v-270h-227z" />
    <glyph glyph-name="uni1EB9" unicode="&#x1eb9;" horiz-adv-x="1138" 
d="M1020 414l-690 -1v-64q0 -193 303 -192q179 0 368 71v-180q-165 -74 -383 -74q-244 0 -379 99t-135 281v715h916v-655zM797 886h-467v-307h467v307zM436 -394v270h226v-270h-226z" />
    <glyph glyph-name="uni1EBA" unicode="&#x1eba;" horiz-adv-x="1202" 
d="M629 2114l-1 1q128 0 201 -57q74 -57 74 -151v-224h-241l65 -114h-172l-117 168v84h273v69q0 86 -117 86q-79 0 -168 -37v138q104 37 203 37zM138 1v1462h965v-196h-735v-437h645v-196h-645v-436h737v-197h-967z" />
    <glyph glyph-name="uni1EBB" unicode="&#x1ebb;" horiz-adv-x="1138" 
d="M635 1497l-1 -1q0 86 -117 86q-81 0 -168 -37v137q102 37 203 37q127 0 201 -56t74 -150v-223h-241l65 -114h-172l-117 167v84h273v70zM1019 413l-690 -1v-64q0 -194 303 -192q179 0 368 71v-180q-165 -74 -383 -74q-244 0 -379 99t-135 281v715h916v-655zM796 885h-467
v-307h467v307z" />
    <glyph glyph-name="uni1EBC" unicode="&#x1ebc;" horiz-adv-x="1202" 
d="M246 1569v231h370l95 -88h104v88h191v-231h-371l-94 88h-105v-88h-190zM139 0v1462h965v-196h-735v-437h645v-196h-645v-436h737v-197h-967z" />
    <glyph glyph-name="uni1EBD" unicode="&#x1ebd;" horiz-adv-x="1138" 
d="M358 1264v-88h-188v231h371l92 -88h106v88h191v-231h-371l-94 88h-107zM1020 414l-690 -1v-64q0 -193 303 -192q179 0 368 71v-180q-165 -74 -383 -74q-244 0 -379 99t-135 281v715h916v-655zM797 886h-467v-307h467v307z" />
    <glyph glyph-name="uni1EBE" unicode="&#x1ebe;" horiz-adv-x="1202" 
d="M532 1962l164 360h242v-75l-207 -285h-199zM768 1855l225 -210v-76h-227l-125 164h-31l-127 -164h-227v76l225 210h287zM139 0v1462h965v-196h-735v-437h645v-196h-645v-436h737v-197h-967z" />
    <glyph glyph-name="uni1EBF" unicode="&#x1ebf;" horiz-adv-x="1138" 
d="M856 1853l-207 -284h-198l163 360h242v-76zM526 1339l-127 -163h-227v75l225 211h289l225 -211v-75h-227l-127 163h-31zM1020 414l-690 -1v-64q0 -193 303 -192q179 0 368 71v-180q-165 -74 -383 -74q-244 0 -379 99t-135 281v715h916v-655zM797 886h-467v-307h467v307z
" />
    <glyph glyph-name="uni1EC0" unicode="&#x1ec0;" horiz-adv-x="1202" 
d="M717 1962h-199l-207 285v75h242zM768 1855l225 -210v-76h-227l-125 164h-31l-127 -164h-227v76l225 210h287zM139 0v1462h965v-196h-735v-437h645v-196h-645v-436h737v-197h-967z" />
    <glyph glyph-name="uni1EC1" unicode="&#x1ec1;" horiz-adv-x="1138" 
d="M633 1569h-199l-207 284v76h242zM526 1339l-127 -163h-227v75l225 211h289l225 -211v-75h-227l-127 163h-31zM1020 414l-690 -1v-64q0 -193 303 -192q179 0 368 71v-180q-165 -74 -383 -74q-244 0 -379 99t-135 281v715h916v-655zM797 886h-467v-307h467v307z" />
    <glyph glyph-name="uni1EC2" unicode="&#x1ec2;" horiz-adv-x="1202" 
d="M629 2507l-1 1q128 0 201 -57q74 -57 74 -151v-223h-241l65 -115h-172l-117 168v84h273v70q0 86 -117 86q-79 0 -168 -37v137q104 37 203 37zM767 1856l225 -210v-76h-227l-125 164h-31l-127 -164h-227v76l225 210h287zM138 1v1462h965v-196h-735v-437h645v-196h-645
v-436h737v-197h-967z" />
    <glyph glyph-name="uni1EC3" unicode="&#x1ec3;" horiz-adv-x="1138" 
d="M635 1890l-1 1q0 86 -117 86q-81 0 -168 -37v138q102 37 203 37q128 0 201 -57q74 -57 74 -151v-224h-241l65 -114h-172l-117 168v84h273v69zM525 1340l-127 -163h-227v75l225 211h289l225 -211v-75h-227l-127 163h-31zM1019 415l-690 -1v-64q0 -194 303 -192
q179 0 368 71v-180q-165 -74 -383 -74q-244 0 -379 99t-135 281v715h916v-655zM796 887h-467v-307h467v307z" />
    <glyph glyph-name="uni1EC4" unicode="&#x1ec4;" horiz-adv-x="1202" 
d="M246 1962v231h370l95 -88h104v88h191v-231h-371l-94 88h-105v-88h-190zM768 1855l225 -210v-76h-227l-125 164h-31l-127 -164h-227v76l225 210h287zM139 0v1462h965v-196h-735v-437h645v-196h-645v-436h737v-197h-967z" />
    <glyph glyph-name="uni1EC5" unicode="&#x1ec5;" horiz-adv-x="1138" 
d="M358 1657v-88h-188v231h371l92 -88h106v88h191v-231h-371l-94 88h-107zM172 1251l225 211h289l225 -211v-75h-227l-127 163h-31l-127 -163h-227v75zM1020 414l-690 -1v-64q0 -193 303 -192q179 0 368 71v-180q-165 -74 -383 -74q-244 0 -379 99t-135 281v715h916v-655z
M797 886h-467v-307h467v307z" />
    <glyph glyph-name="uni1EC6" unicode="&#x1ec6;" horiz-adv-x="1202" 
d="M768 1855l225 -210v-76h-227l-125 164h-31l-127 -164h-227v76l225 210h287zM139 0v1462h965v-196h-735v-437h645v-196h-645v-436h737v-197h-967zM512 -393v270h227v-270h-227z" />
    <glyph glyph-name="uni1EC7" unicode="&#x1ec7;" horiz-adv-x="1138" 
d="M526 1339l-127 -163h-227v75l225 211h289l225 -211v-75h-227l-127 163h-31zM1020 414l-690 -1v-64q0 -193 303 -192q179 0 368 71v-180q-165 -74 -383 -74q-244 0 -379 99t-135 281v715h916v-655zM797 886h-467v-307h467v307zM436 -394v270h226v-270h-226z" />
    <glyph glyph-name="uni1EC8" unicode="&#x1ec8;" horiz-adv-x="507" 
d="M258 2114l-1 1q127 0 201 -57t74 -151v-224h-241l65 -114h-172l-116 168v84h272v69q0 86 -117 86q-81 0 -168 -37v138q104 37 203 37zM138 1v1462h230v-1462h-230z" />
    <glyph glyph-name="uni1EC9" unicode="&#x1ec9;" horiz-adv-x="466" 
d="M236 1720l-1 -1q127 0 201 -56t74 -150v-223h-242l66 -114h-172l-117 167v84h272v70q0 86 -116 86q-81 0 -168 -37v137q104 37 203 37zM122 -1v1069h221v-1069h-221z" />
    <glyph glyph-name="uni1ECA" unicode="&#x1eca;" horiz-adv-x="507" 
d="M139 0v1462h230v-1462h-230zM141 -393v270h228v-270h-228z" />
    <glyph glyph-name="uni1ECB" unicode="&#x1ecb;" horiz-adv-x="446" 
d="M104 1178v284h238v-284h-238zM111 0v1069h225v-1069h-225zM111 -393v270h227v-270h-227z" />
    <glyph glyph-name="uni1ECC" unicode="&#x1ecc;" horiz-adv-x="1415" 
d="M1276 1462v-1462h-1137v1462h1137zM1047 1266h-678v-1069h678v1069zM594 -393v270h227v-270h-227z" />
    <glyph glyph-name="uni1ECD" unicode="&#x1ecd;" horiz-adv-x="1146" 
d="M117 0v1069h911v-1069h-911zM805 182v705h-463v-705h463zM459 -393v270h227v-270h-227z" />
    <glyph glyph-name="uni1ECE" unicode="&#x1ece;" horiz-adv-x="1415" 
d="M711 2114l-1 1q128 0 201 -57q74 -57 74 -151v-224h-242l66 -114h-172l-117 168v84h273v69q0 86 -117 86q-79 0 -168 -37v138q104 37 203 37zM1275 1463v-1462h-1137v1462h1137zM1046 1267h-678v-1069h678v1069z" />
    <glyph glyph-name="uni1ECF" unicode="&#x1ecf;" horiz-adv-x="1146" 
d="M575 1720l1 -1q127 0 201 -56t74 -150v-223h-242l66 -114h-172l-117 167v84h272v70q0 86 -116 86q-79 0 -168 -37v137q102 37 201 37zM118 -1v1069h911v-1069h-911zM806 181v705h-463v-705h463z" />
    <glyph glyph-name="uni1ED0" unicode="&#x1ed0;" horiz-adv-x="1415" 
d="M614 1962l164 360h242v-75l-207 -285h-199zM850 1855l225 -210v-76h-227l-125 164h-31l-127 -164h-227v76l225 210h287zM1276 1462v-1462h-1137v1462h1137zM1047 1266h-678v-1069h678v1069z" />
    <glyph glyph-name="uni1ED1" unicode="&#x1ed1;" horiz-adv-x="1146" 
d="M481 1569l164 360h242v-76l-207 -284h-199zM717 1462l225 -211v-75h-227l-125 163h-31l-127 -163h-227v75l225 211h287zM117 0v1069h911v-1069h-911zM805 182v705h-463v-705h463z" />
    <glyph glyph-name="uni1ED2" unicode="&#x1ed2;" horiz-adv-x="1415" 
d="M799 1962h-199l-207 285v75h242zM850 1855l225 -210v-76h-227l-125 164h-31l-127 -164h-227v76l225 210h287zM1276 1462v-1462h-1137v1462h1137zM1047 1266h-678v-1069h678v1069z" />
    <glyph glyph-name="uni1ED3" unicode="&#x1ed3;" horiz-adv-x="1146" 
d="M666 1569h-199l-207 284v76h242zM717 1462l225 -211v-75h-227l-125 163h-31l-127 -163h-227v75l225 211h287zM117 0v1069h911v-1069h-911zM805 182v705h-463v-705h463z" />
    <glyph glyph-name="uni1ED4" unicode="&#x1ed4;" horiz-adv-x="1415" 
d="M711 2507l-1 1q128 0 201 -57q74 -57 74 -151v-223h-242l66 -115h-172l-117 168v84h273v70q0 86 -117 86q-79 0 -168 -37v137q104 37 203 37zM849 1856l225 -210v-76h-227l-125 164h-31l-127 -164h-227v76l225 210h287zM1275 1463v-1462h-1137v1462h1137zM1046 1267h-678
v-1069h678v1069z" />
    <glyph glyph-name="uni1ED5" unicode="&#x1ed5;" horiz-adv-x="1146" 
d="M578 2114l-1 1q127 0 201 -57t74 -151v-224h-242l66 -114h-172l-117 168v84h272v69q0 86 -116 86q-81 0 -168 -37v138q104 37 203 37zM716 1463l225 -211v-75h-227l-125 163h-31l-127 -163h-227v75l225 211h287zM116 1v1069h911v-1069h-911zM804 183v705h-463v-705h463z
" />
    <glyph glyph-name="uni1ED6" unicode="&#x1ed6;" horiz-adv-x="1415" 
d="M328 1962v231h370l95 -88h104v88h190v-231h-370l-94 88h-105v-88h-190zM850 1855l225 -210v-76h-227l-125 164h-31l-127 -164h-227v76l225 210h287zM1276 1462v-1462h-1137v1462h1137zM1047 1266h-678v-1069h678v1069z" />
    <glyph glyph-name="uni1ED7" unicode="&#x1ed7;" horiz-adv-x="1146" 
d="M195 1569v231h370l94 -88h105v88h190v-231h-370l-95 88h-104v-88h-190zM717 1462l225 -211v-75h-227l-125 163h-31l-127 -163h-227v75l225 211h287zM117 0v1069h911v-1069h-911zM805 182v705h-463v-705h463z" />
    <glyph glyph-name="uni1ED8" unicode="&#x1ed8;" horiz-adv-x="1415" 
d="M850 1855l225 -210v-76h-227l-125 164h-31l-127 -164h-227v76l225 210h287zM1276 1462v-1462h-1137v1462h1137zM1047 1266h-678v-1069h678v1069zM594 -393v270h227v-270h-227z" />
    <glyph glyph-name="uni1ED9" unicode="&#x1ed9;" horiz-adv-x="1146" 
d="M717 1462l225 -211v-75h-227l-125 163h-31l-127 -163h-227v75l225 211h287zM117 0v1069h911v-1069h-911zM805 182v705h-463v-705h463zM459 -393v270h227v-270h-227z" />
    <glyph glyph-name="uni1EDA" unicode="&#x1eda;" horiz-adv-x="1415" 
d="M1022 1853l-207 -284h-199l164 360h242v-76zM1536 1669l213 2q0 -180 -102 -285t-278 -105h-94v-1280h-1137v1462h1198q92 0 146 54t54 152zM1045 199v1069h-678v-1069h678z" />
    <glyph glyph-name="uni1EDB" unicode="&#x1edb;" horiz-adv-x="1146" 
d="M887 1460l-207 -284h-199l164 360h242v-76zM1288 1276l215 2q0 -180 -102 -285t-278 -105h-94v-887h-911v1069h973q91 0 144 54q53 55 53 152zM805 184v705h-463v-705h463z" />
    <glyph glyph-name="uni1EDC" unicode="&#x1edc;" horiz-adv-x="1415" 
d="M799 1569h-199l-207 284v76h242zM1536 1669l213 2q0 -180 -102 -285t-278 -105h-94v-1280h-1137v1462h1198q92 0 146 54t54 152zM1045 199v1069h-678v-1069h678z" />
    <glyph glyph-name="uni1EDD" unicode="&#x1edd;" horiz-adv-x="1146" 
d="M666 1176h-199l-207 284v76h242zM1288 1276l215 2q0 -180 -102 -285t-278 -105h-94v-887h-911v1069h973q91 0 144 54q53 55 53 152zM805 184v705h-463v-705h463z" />
    <glyph glyph-name="uni1EDE" unicode="&#x1ede;" horiz-adv-x="1415" 
d="M793 1890l-1 1q0 86 -117 86q-79 0 -168 -37v138q102 37 203 37q128 0 201 -57q74 -57 74 -151v-224h-242l66 -114h-172l-117 168v84h273v69zM1535 1670l213 2q0 -180 -102 -285t-278 -105h-94v-1280h-1137v1462h1198q92 0 146 54t54 152zM1044 200v1069h-678v-1069h678z
" />
    <glyph glyph-name="uni1EDF" unicode="&#x1edf;" horiz-adv-x="1146" 
d="M657 1497l1 -1q0 86 -116 86q-79 0 -168 -37v137q102 37 201 37q127 0 201 -56t74 -150v-223h-242l66 -114h-172l-117 167v84h272v70zM1289 1275l215 2q0 -180 -102 -285t-278 -105h-94v-887h-911v1069h973q92 0 144 54q53 55 53 152zM806 183v705h-463v-705h463z" />
    <glyph glyph-name="uni1EE0" unicode="&#x1ee0;" horiz-adv-x="1415" 
d="M518 1657v-88h-190v231h370l95 -88h104v88h190v-231h-370l-94 88h-105zM1536 1669l213 2q0 -180 -102 -285t-278 -105h-94v-1280h-1137v1462h1198q92 0 146 54t54 152zM1045 199v1069h-678v-1069h678z" />
    <glyph glyph-name="uni1EE1" unicode="&#x1ee1;" horiz-adv-x="1146" 
d="M383 1264v-88h-190v231h370l94 -88h105v88h190v-231h-370l-95 88h-104zM1288 1276l215 2q0 -180 -102 -285t-278 -105h-94v-887h-911v1069h973q91 0 144 54q53 55 53 152zM805 184v705h-463v-705h463z" />
    <glyph glyph-name="uni1EE2" unicode="&#x1ee2;" horiz-adv-x="1415" 
d="M1536 1669l213 2q0 -180 -102 -285t-278 -105h-94v-1280h-1137v1462h1198q92 0 146 54t54 152zM1045 199v1069h-678v-1069h678zM592 -391v270h227v-270h-227z" />
    <glyph glyph-name="uni1EE3" unicode="&#x1ee3;" horiz-adv-x="1146" 
d="M1288 1276l215 2q0 -180 -102 -285t-278 -105h-94v-887h-911v1069h973q91 0 144 54q53 55 53 152zM805 184v705h-463v-705h463zM459 -391v270h227v-270h-227z" />
    <glyph glyph-name="uni1EE4" unicode="&#x1ee4;" horiz-adv-x="1427" 
d="M139 0v1462h230v-1265h690v1265h229v-1462h-1149zM600 -393v270h227v-270h-227z" />
    <glyph glyph-name="uni1EE5" unicode="&#x1ee5;" horiz-adv-x="1150" 
d="M1034 1069v-1069h-917v1069h225v-887h467v887h225zM463 -393v270h227v-270h-227z" />
    <glyph glyph-name="uni1EE6" unicode="&#x1ee6;" horiz-adv-x="1427" 
d="M717 2114l-1 1q128 0 201 -57q74 -57 74 -151v-224h-241l65 -114h-172l-117 168v84h273v69q0 86 -117 86q-81 0 -168 -37v138q104 37 203 37zM138 1v1462h230v-1265h690v1265h229v-1462h-1149z" />
    <glyph glyph-name="uni1EE7" unicode="&#x1ee7;" horiz-adv-x="1150" 
d="M580 1720l-1 -1q127 0 201 -56t74 -150v-223h-242l66 -114h-172l-117 167v84h273v70q0 86 -117 86q-79 0 -168 -37v137q104 37 203 37zM1033 1068v-1069h-917v1069h225v-887h467v887h225z" />
    <glyph glyph-name="uni1EE8" unicode="&#x1ee8;" horiz-adv-x="1427" 
d="M1028 1853l-207 -284h-198l163 360h242v-76zM1548 1669l216 2q0 -180 -102 -285t-279 -105h-94v-1280h-1149v1462h230v-1265h690v1265h291q91 0 144 54q53 55 53 152z" />
    <glyph glyph-name="uni1EE9" unicode="&#x1ee9;" horiz-adv-x="1150" 
d="M889 1460l-207 -284h-199l164 360h242v-76zM1294 1276l216 2q0 -180 -102 -285t-279 -105h-94v-887h-917v1069h225v-887h467v887h287q91 0 144 54q53 55 53 152z" />
    <glyph glyph-name="uni1EEA" unicode="&#x1eea;" horiz-adv-x="1427" 
d="M805 1569h-199l-207 284v76h242zM1548 1669l216 2q0 -180 -102 -285t-279 -105h-94v-1280h-1149v1462h230v-1265h690v1265h291q91 0 144 54q53 55 53 152z" />
    <glyph glyph-name="uni1EEB" unicode="&#x1eeb;" horiz-adv-x="1150" 
d="M668 1176h-199l-207 284v76h242zM1294 1276l216 2q0 -180 -102 -285t-279 -105h-94v-887h-917v1069h225v-887h467v887h287q91 0 144 54q53 55 53 152z" />
    <glyph glyph-name="uni1EEC" unicode="&#x1eec;" horiz-adv-x="1427" 
d="M799 1890l-1 1q0 86 -117 86q-81 0 -168 -37v138q102 37 203 37q128 0 201 -57q74 -57 74 -151v-224h-241l65 -114h-172l-117 168v84h273v69zM1547 1670l216 2q0 -180 -102 -285t-279 -105h-94v-1280h-1149v1462h230v-1265h690v1265h291q92 0 144 54q53 55 53 152z" />
    <glyph glyph-name="uni1EED" unicode="&#x1eed;" horiz-adv-x="1150" 
d="M662 1497l-1 -1q0 86 -117 86q-79 0 -168 -37v137q102 37 203 37q127 0 201 -56t74 -150v-223h-242l66 -114h-172l-117 167v84h273v70zM1293 1275l216 2q0 -180 -102 -285t-279 -105h-94v-887h-917v1069h225v-887h467v887h287q92 0 144 54q53 55 53 152z" />
    <glyph glyph-name="uni1EEE" unicode="&#x1eee;" horiz-adv-x="1427" 
d="M524 1657v-88h-190v231h371l94 -88h104v88h191v-231h-371l-94 88h-105zM1548 1669l216 2q0 -180 -102 -285t-279 -105h-94v-1280h-1149v1462h230v-1265h690v1265h291q91 0 144 54q53 55 53 152z" />
    <glyph glyph-name="uni1EEF" unicode="&#x1eef;" horiz-adv-x="1150" 
d="M387 1264v-88h-190v231h370l95 -88h104v88h190v-231h-370l-94 88h-105zM1294 1276l216 2q0 -180 -102 -285t-279 -105h-94v-887h-917v1069h225v-887h467v887h287q91 0 144 54q53 55 53 152z" />
    <glyph glyph-name="uni1EF0" unicode="&#x1ef0;" horiz-adv-x="1427" 
d="M1548 1669l216 2q0 -180 -102 -285t-279 -105h-94v-1280h-1149v1462h230v-1265h690v1265h291q91 0 144 54q53 55 53 152zM601 -391v270h227v-270h-227z" />
    <glyph glyph-name="uni1EF1" unicode="&#x1ef1;" horiz-adv-x="1150" 
d="M1294 1276l216 2q0 -180 -102 -285t-279 -105h-94v-887h-917v1069h225v-887h467v887h287q91 0 144 54q53 55 53 152zM464 -391v270h227v-270h-227z" />
    <glyph glyph-name="Ygrave" unicode="&#x1ef2;" horiz-adv-x="1333" 
d="M760 1569h-199l-207 284v76h242zM551 0v643l-526 819h264l368 -596h23l364 596h265l-527 -819v-643h-231z" />
    <glyph glyph-name="ygrave" unicode="&#x1ef3;" horiz-adv-x="1112" 
d="M655 1176h-198l-207 284v76h242zM367 -393l129 393h-101l-370 1069h235l293 -872h22l277 872h235l-485 -1462h-235z" />
    <glyph glyph-name="uni1EF4" unicode="&#x1ef4;" horiz-adv-x="1333" 
d="M551 0v643l-526 819h264l368 -596h23l364 596h265l-527 -819v-643h-231zM553 -393v270h227v-270h-227z" />
    <glyph glyph-name="uni1EF5" unicode="&#x1ef5;" horiz-adv-x="1112" 
d="M367 -393l129 393h-101l-370 1069h235l293 -872h22l277 872h235l-485 -1462h-235zM893 -393v270h227v-270h-227z" />
    <glyph glyph-name="uni1EF6" unicode="&#x1ef6;" horiz-adv-x="1333" 
d="M670 2114l-1 1q127 0 201 -57t74 -151v-224h-242l66 -114h-172l-117 168v84h273v69q0 86 -117 86q-79 0 -168 -37v138q104 37 203 37zM550 1v643l-526 819h264l368 -596h23l364 596h265l-527 -819v-643h-231z" />
    <glyph glyph-name="uni1EF7" unicode="&#x1ef7;" horiz-adv-x="1112" 
d="M567 1720l1 -1q127 0 201 -56t74 -150v-223h-242l66 -114h-172l-117 167v84h272v70q0 86 -117 86q-80 0 -167 -37v137q102 37 201 37zM368 -394l129 393h-101l-370 1069h235l293 -872h22l277 872h235l-485 -1462h-235z" />
    <glyph glyph-name="uni1EF8" unicode="&#x1ef8;" horiz-adv-x="1333" 
d="M287 1569v231h370l95 -88h104v88h191v-231h-371l-94 88h-105v-88h-190zM551 0v643l-526 819h264l368 -596h23l364 596h265l-527 -819v-643h-231z" />
    <glyph glyph-name="uni1EF9" unicode="&#x1ef9;" horiz-adv-x="1112" 
d="M184 1176v231h371l94 -88h105v88h190v-231h-371l-94 88h-104v-88h-191zM367 -393l129 393h-101l-370 1069h235l293 -872h22l277 872h235l-485 -1462h-235z" />
    <glyph glyph-name="uni2007" unicode="&#x2007;" horiz-adv-x="491" 
 />
    <glyph glyph-name="uni2010" unicode="&#x2010;" horiz-adv-x="555" 
d="M41 690h473v-170h-473v170z" />
    <glyph glyph-name="figuredash" unicode="&#x2012;" horiz-adv-x="923" 
d="M147 698h629v-170h-629v170z" />
    <glyph glyph-name="endash" unicode="&#x2013;" horiz-adv-x="923" 
d="M25 690h874v-170h-874v170z" />
    <glyph glyph-name="emdash" unicode="&#x2014;" horiz-adv-x="1601" 
d="M25 690h1552v-170h-1552v170z" />
    <glyph glyph-name="uni2015" unicode="&#x2015;" horiz-adv-x="1601" 
d="M25 690h1552v-170h-1552v170z" />
    <glyph glyph-name="quoteleft" unicode="&#x2018;" horiz-adv-x="538" 
d="M416 1462l-68 -327v-248h-225v248l139 327h154z" />
    <glyph glyph-name="quoteright" unicode="&#x2019;" horiz-adv-x="538" 
d="M123 887l70 327v248h223v-248l-140 -327h-153z" />
    <glyph glyph-name="quotesinglbase" unicode="&#x201a;" horiz-adv-x="471" 
d="M53 -328l70 328v248h225v-248l-139 -328h-156z" />
    <glyph glyph-name="quotedblleft" unicode="&#x201c;" horiz-adv-x="915" 
d="M416 1462l-68 -327v-248h-225v248l139 327h154zM793 1462l-70 -327v-248h-225v248l139 327h156z" />
    <glyph glyph-name="quotedblright" unicode="&#x201d;" horiz-adv-x="915" 
d="M123 887l70 327v248h223v-248l-140 -327h-153zM498 887l69 327v248h226v-248l-142 -327h-153z" />
    <glyph glyph-name="quotedblbase" unicode="&#x201e;" horiz-adv-x="866" 
d="M53 -328l70 328v248h225v-248l-139 -328h-156zM451 -328l67 328v248h225v-248l-139 -328h-153z" />
    <glyph glyph-name="dagger" unicode="&#x2020;" horiz-adv-x="1212" 
d="M1090 1196v-197h-369v-1122h-229v1122h-369v197h369v389h229v-389h369z" />
    <glyph glyph-name="daggerdbl" unicode="&#x2021;" horiz-adv-x="1212" 
d="M1090 999h-369v-536h369v-197h-369v-389h-229v389h-369v197h369v536h-369v197h369v389h229v-389h369v-197z" />
    <glyph glyph-name="bullet" unicode="&#x2022;" horiz-adv-x="741" 
d="M371 483l-1 -1q-106 0 -177 71t-71 177t71 177t177 71q105 0 176 -70q72 -70 72 -177t-72 -177q-73 -71 -175 -71z" />
    <glyph glyph-name="ellipsis" unicode="&#x2026;" horiz-adv-x="1388" 
d="M123 0v248h225v-248h-225zM582 0v248h225v-248h-225zM1040 0v248h226v-248h-226z" />
    <glyph glyph-name="perthousand" unicode="&#x2030;" horiz-adv-x="2619" 
d="M98 844v618h629v-618h-629zM446 0l734 1462h241l-733 -1462h-242zM289 1006h250v294h-250v-294zM1141 0v618h628v-618h-628zM1892 0v618h629v-618h-629zM1331 162h250v295h-250v-295zM2083 162h250v295h-250v-295z" />
    <glyph glyph-name="minute" unicode="&#x2032;" horiz-adv-x="675" 
d="M123 1176l164 360h266l-205 -360h-225z" />
    <glyph glyph-name="second" unicode="&#x2033;" horiz-adv-x="1142" 
d="M123 1176l164 360h266l-205 -360h-225zM588 1176l164 360h268l-207 -360h-225z" />
    <glyph glyph-name="guilsinglleft" unicode="&#x2039;" horiz-adv-x="780" 
d="M428 135l-305 400l305 399h229l-305 -399l305 -400h-229z" />
    <glyph glyph-name="guilsinglright" unicode="&#x203a;" horiz-adv-x="780" 
d="M352 135h-229l305 400l-305 399h229l305 -399z" />
    <glyph glyph-name="fraction" unicode="&#x2044;" horiz-adv-x="491" 
d="M-393 -213l1089 1890h189l-1090 -1890h-188z" />
    <glyph glyph-name="uni2070" unicode="&#x2070;" horiz-adv-x="829" 
d="M98 909v770h633v-770h-633zM242 1034h348v520h-348v-520z" />
    <glyph glyph-name="uni2074" unicode="&#x2074;" horiz-adv-x="774" 
d="M700 1182v-123h-90v-150h-143v150h-393v108l299 512h237v-497h90zM223 1182h244v377h-23z" />
    <glyph glyph-name="uni2075" unicode="&#x2075;" horiz-adv-x="761" 
d="M102 1079l-1 -1q111 -57 236 -57q182 0 182 133v102h-422l15 422h518v-125h-379l-8 -172h420v-227q0 -125 -81 -191t-231 -66q-135 0 -249 53v129z" />
    <glyph glyph-name="uni2076" unicode="&#x2076;" horiz-adv-x="780" 
d="M242 1380h440v-227q0 -121 -80 -189q-79 -67 -221 -67q-167 0 -283 98v684h549v-125h-405v-174zM539 1153l1 102h-297v-192q59 -41 138 -41q75 0 116 34q42 34 42 97z" />
    <glyph glyph-name="uni2077" unicode="&#x2077;" horiz-adv-x="733" 
d="M219 909l273 619v26h-418v125h561v-182l-260 -588h-156z" />
    <glyph glyph-name="uni2078" unicode="&#x2078;" horiz-adv-x="804" 
d="M590 1317h117v-168q0 -121 -79 -187q-80 -66 -225 -66q-147 0 -226 66t-79 187v168h117q-100 61 -100 186v176h575v-176q0 -128 -100 -186zM258 1559l1 -75q0 -61 37 -94q38 -33 102 -33h11q66 0 102 33t36 95v74h-289zM564 1148v94h-321v-94q0 -131 161 -131
q160 0 160 131z" />
    <glyph glyph-name="uni2079" unicode="&#x2079;" horiz-adv-x="759" 
d="M662 1679v-526q0 -256 -314 -256q-135 0 -249 53v129q113 -57 237 -57q182 0 182 131v102h-420v424h564zM242 1376h276v183h-276v-183z" />
    <glyph glyph-name="uni207D" unicode="&#x207d;" horiz-adv-x="372" 
d="M207 756h1q-146 250 -147 537q0 284 146 535h117q-125 -276 -125 -535q0 -261 125 -537h-117z" />
    <glyph glyph-name="uni207E" unicode="&#x207e;" horiz-adv-x="372" 
d="M168 756l-119 -1q127 270 127 536q0 263 -127 535h119q143 -248 143 -534q0 -288 -143 -536z" />
    <glyph glyph-name="uni207F" unicode="&#x207f;" horiz-adv-x="831" 
d="M371 1536h338v-655h-140v536h-172l-135 -110v-426h-139v655h139v-86h4z" />
    <glyph glyph-name="uni2080" unicode="&#x2080;" horiz-adv-x="829" 
d="M98 -217v770h633v-770h-633zM242 -92h348v520h-348v-520z" />
    <glyph glyph-name="uni2081" unicode="&#x2081;" horiz-adv-x="569" 
d="M330 -217v631l-232 -131v137l232 133h141v-770h-141z" />
    <glyph glyph-name="uni2082" unicode="&#x2082;" horiz-adv-x="737" 
d="M98 -217v186l326 269q33 27 45 54t12 75v61h-362v125h506v-186q0 -137 -88 -209l-279 -232v-18h381v-125h-541z" />
    <glyph glyph-name="uni2083" unicode="&#x2083;" horiz-adv-x="733" 
d="M520 190l113 -1v-167q0 -123 -79 -187t-232 -64q-135 0 -249 53v129q115 -57 240 -57q176 0 176 127v88h-270v122h131q59 0 92 33t33 92v70h-387v125h530v-174q0 -127 -98 -189z" />
    <glyph glyph-name="uni2084" unicode="&#x2084;" horiz-adv-x="774" 
d="M700 55v-123h-90v-149h-143v149h-393v109l299 512h237v-498h90zM223 55h244v377h-23z" />
    <glyph glyph-name="uni2085" unicode="&#x2085;" horiz-adv-x="761" 
d="M102 -47l-1 -1q111 -57 236 -57q182 0 182 133v102h-422l15 422h518v-125h-379l-8 -172h420v-227q0 -125 -81 -191t-231 -66q-135 0 -249 53v129z" />
    <glyph glyph-name="uni2086" unicode="&#x2086;" horiz-adv-x="780" 
d="M242 254h440v-227q0 -121 -80 -189q-79 -67 -221 -67q-167 0 -283 98v684h549v-125h-405v-174zM539 27l1 102h-297v-192q59 -41 138 -41q75 0 116 34q42 34 42 97z" />
    <glyph glyph-name="uni2087" unicode="&#x2087;" horiz-adv-x="733" 
d="M219 -217l273 618v27h-418v125h561v-182l-260 -588h-156z" />
    <glyph glyph-name="uni2088" unicode="&#x2088;" horiz-adv-x="804" 
d="M590 190l117 -1v-167q0 -121 -79 -187q-80 -66 -225 -66q-147 0 -226 66t-79 187v167h117q-100 61 -100 187v176h575v-176q0 -128 -100 -186zM258 431l1 -74q0 -61 37 -94q38 -33 102 -33h11q66 0 102 33t36 94v74h-289zM564 22v94h-321v-94q0 -130 161 -132
q160 1 160 132z" />
    <glyph glyph-name="uni2089" unicode="&#x2089;" horiz-adv-x="759" 
d="M662 553v-526q0 -256 -314 -256q-135 0 -249 53v129q113 -57 237 -57q182 0 182 131v102h-420v424h564zM242 250h276v182h-276v-182z" />
    <glyph glyph-name="uni208D" unicode="&#x208d;" horiz-adv-x="372" 
d="M207 -332h1q-146 250 -147 537q0 284 146 534h117q-125 -276 -125 -534q0 -261 125 -537h-117z" />
    <glyph glyph-name="uni208E" unicode="&#x208e;" horiz-adv-x="372" 
d="M168 -332h-119q127 270 127 537q0 264 -127 534h119q143 -248 143 -534q0 -289 -143 -537z" />
    <glyph glyph-name="colonmonetary" unicode="&#x20a1;" horiz-adv-x="1380" 
d="M786 172l1 -1q219 0 435 94v-209q-204 -82 -444 -82q-32 0 -104 5l-37 -123h-170l47 155q-63 18 -126 58l-65 -213h-170l104 344q-78 122 -78 306v956h459l41 135h170l-41 -135h143l41 135h170l-41 -135h90v-196h-149l-330 -1092q22 -2 54 -2zM413 1265v-555l168 555
h-168zM462 308q40 -64 112 -98l320 1055h-143z" />
    <glyph glyph-name="lira" unicode="&#x20a4;" horiz-adv-x="1380" 
d="M362 197l902 -1v-197h-1125v184q98 117 129 244h-149v160h162q-4 61 -15 106h-147v160h119q-14 90 -15 162v446h1014v-510h-231v314h-545v-297q0 -36 8 -114h479v-160h-452q13 -81 14 -106h438v-160h-452q-36 -115 -134 -231z" />
    <glyph glyph-name="uni20A6" unicode="&#x20a6;" horiz-adv-x="1380" 
d="M1374 829v-195h-117v-633h-229v449q-150 68 -303 183h-371v-633h-231v633h-115v196h115v633h235q152 -386 465 -633h205v633h229v-633h117zM340 1072v-1q14 -65 14 -141v-101h164q-93 105 -172 243h-6z" />
    <glyph glyph-name="peseta" unicode="&#x20a7;" horiz-adv-x="1380" 
d="M1343 1094v-160h-133q-19 -178 -140 -276q-119 -97 -322 -97h-330v-561h-232v934h-149v160h149v368h1028v-368h129zM418 1266v-172h565v172h-565zM741 760q197 0 236 174h-559v-174h323z" />
    <glyph glyph-name="dong" unicode="&#x20ab;" horiz-adv-x="1380" 
d="M1290 1339l1 -160h-155v-1049q-200 -154 -473 -154q-219 0 -348 99t-129 273v721h723v109h-155v161h155v123h226v-123h155zM910 216v672h-497v-539q0 -190 254 -190q133 0 243 57zM361 -290v170h619v-170h-619z" />
    <glyph glyph-name="Euro" unicode="&#x20ac;" horiz-adv-x="1380" 
d="M838 172l-2 1q218 0 436 94v-209q-207 -82 -444 -82q-291 0 -444 135t-153 395v31h-157v159h157v119h-157v160h157v487h1035v-196h-803v-291h430v-160h-430v-119h430v-159h-430v-25q0 -340 375 -340z" />
    <glyph glyph-name="uni20B1" unicode="&#x20b1;" horiz-adv-x="1380" 
d="M1217 1073l-1 -66v-21h124v-158h-153q-45 -129 -156 -198t-281 -69h-330v-561h-232v827h-151v158h151v88h-151v158h151v231h1029v-231h124v-158h-124zM984 1007l-1 261h-565v-506h325q115 0 178 63t63 182z" />
    <glyph glyph-name="uni20B2" unicode="&#x20b2;" horiz-adv-x="1380" 
d="M1245 827v-727q-179 -102 -442 -123v-161h-225v168q-457 61 -457 522v956h457v185h225v-185h411v-196h-862v-754q0 -340 365 -340q144 0 297 47v410h-334v198h565z" />
    <glyph glyph-name="uni20B5" unicode="&#x20b5;" horiz-adv-x="1380" 
d="M1217 266l-1 -207q-169 -70 -383 -81v-161h-232v174q-209 35 -317 165q-108 131 -108 350v956h426v185h232v-185h374v-196h-800v-754q0 -340 374 -340q217 0 435 94z" />
    <glyph glyph-name="uni20B9" unicode="&#x20b9;" horiz-adv-x="1380" 
d="M1247 1315l-96 -1v-215h96v-146h-106q-35 -163 -165 -246h207v-707h-230v571h-811v197h514q208 0 255 186h-770v146h781v166h-781v198h1106v-149z" />
    <glyph glyph-name="uni20BA" unicode="&#x20ba;" horiz-adv-x="1380" 
d="M1004 698h230v-329q0 -369 -399 -369h-488v469l-201 -100v178l201 100v158l-201 -100v178l201 100v479h230v-364l202 100v-178l-202 -100v-158l202 102v-180l-202 -100v-398h241q184 0 186 183v329z" />
    <glyph glyph-name="uni20BD" unicode="&#x20bd;" horiz-adv-x="1380" 
d="M1284 1462l-1 -456q0 -211 -122 -328q-121 -117 -342 -117h-332v-117h215v-170h-215v-274h-229v274h-176v170h176v150h-176v178h176v690h1026zM1054 1006v261h-568v-506h326q116 0 179 63t63 182z" />
    <glyph glyph-name="uni210A" unicode="&#x210a;" horiz-adv-x="1179" 
d="M559 332l-193 2v-56q0 -94 110 -94h635v-518q-230 -164 -547 -164q-231 0 -372 99t-141 261v250h209v4q-113 35 -111 161v150h131v4q-156 83 -156 283v356h1003v-182h-135v-174q0 -184 -112 -283t-321 -99zM343 889l-1 -176q0 -94 56 -145t160 -51q105 0 161 50t56 144
v178h-432zM895 -244v247h-629v-139q0 -90 80 -141t221 -51q189 0 328 84z" />
    <glyph glyph-name="uni2113" unicode="&#x2113;" horiz-adv-x="919" 
d="M242 1405l565 -2v-569q0 -150 -89 -233q-88 -82 -251 -84v-201q0 -80 36 -120t109 -39q73 0 156 43v-191q-91 -35 -188 -35q-164 0 -251 89t-87 254v201h-156v187h156v700zM602 834v387h-135v-518h4q131 0 131 131z" />
    <glyph glyph-name="uni2117" unicode="&#x2117;" horiz-adv-x="1816" 
d="M909 -49h-1q-358 0 -579 215q-220 214 -220 564t220 564q221 215 579 215t578 -215q219 -214 219 -564t-219 -564q-220 -215 -577 -215zM907 109v-2q275 0 443 171t168 452t-168 452t-443 171q-276 0 -444 -171t-168 -451t168 -451t444 -171zM625 356v720h592v-237
q0 -110 -74 -175q-73 -64 -203 -64h-108v-244h-207zM832 757l98 -1q34 0 57 23t23 60v78h-178v-160z" />
    <glyph glyph-name="uni2120" unicode="&#x2120;" horiz-adv-x="1138" 
d="M246 848h1q-97 0 -185 35v96q86 -39 180 -39q137 0 137 96q0 78 -78 94l-227 50v282h385v-92h-279v-121l160 -35q145 -31 145 -178q1 -94 -59 -141t-180 -47zM548 872l1 590h119q57 -121 147 -121q88 0 148 121h116v-590h-106v459q-56 -80 -159 -80q-100 0 -160 80v-459
h-106z" />
    <glyph glyph-name="trademark" unicode="&#x2122;" horiz-adv-x="1165" 
d="M510 1462v-92h-172v-498h-107v498h-170v92h449zM573 872l-1 590h119q57 -121 148 -121q86 0 147 121h117v-590h-107v459q-56 -80 -157 -80q-103 0 -159 80v-459h-107z" />
    <glyph glyph-name="Omega" unicode="&#x2126;" horiz-adv-x="1392" 
d="M1130 182l213 1v-182h-514v133l39 57q238 142 238 417v658h-819v-658q0 -276 237 -418l39 -57v-133h-514v182h213v4q-201 147 -201 422v854h1270v-854q0 -272 -201 -422v-4z" />
    <glyph glyph-name="estimated" unicode="&#x212e;" horiz-adv-x="1619" 
d="M848 -25l-1 -1q-345 0 -523 143q-177 143 -177 422v948h1326v-754h-1055v-633q161 -88 430 -88q324 0 579 115v-41q-257 -111 -579 -111zM417 769h784v680h-784v-680z" />
    <glyph glyph-name="onethird" unicode="&#x2153;" horiz-adv-x="1794" 
d="M330 909v631l-232 -131v137l232 133h141v-770h-141zM1266 1677h188l-1089 -1890h-189zM1581 190l115 -1v-167q0 -123 -79 -187t-234 -64q-135 0 -249 53v129q116 -57 240 -57q176 0 176 127v88h-270v122h131q59 0 92 33t33 92v70h-387v125h530v-174q0 -127 -98 -189z" />
    <glyph glyph-name="twothirds" unicode="&#x2154;" horiz-adv-x="1961" 
d="M639 1034v-124h-541v187l326 268q33 27 45 54t12 74v61h-362v125h506v-186q0 -137 -88 -209l-279 -231v-19h381zM1434 1678h188l-1090 -1890h-188zM1749 191l115 -1v-167q0 -123 -79 -187t-234 -64q-135 0 -249 53v129q116 -57 240 -57q176 0 176 127v88h-270v122h131
q59 0 92 33t33 92v70h-387v125h530v-174q0 -127 -98 -189z" />
    <glyph glyph-name="oneeighth" unicode="&#x215b;" horiz-adv-x="1865" 
d="M330 909v631l-232 -131v137l232 133h141v-770h-141zM1266 1677h188l-1089 -1890h-189zM1651 190l115 -1v-167q0 -121 -78 -187t-224 -66t-226 66q-79 66 -79 187v167h117q-100 61 -100 187v176h575v-176q0 -128 -100 -186zM1318 431v-74q0 -61 37 -94t102 -33h10
q65 0 103 33q37 33 37 94v74h-289zM1623 22v94h-321v-94q0 -130 161 -132q160 1 160 132z" />
    <glyph glyph-name="threeeighths" unicode="&#x215c;" horiz-adv-x="2029" 
d="M635 1149l-2 -1q0 -123 -79 -187t-232 -64q-135 0 -249 53v129q115 -57 240 -57q176 0 176 127v88h-270v123h131q59 0 92 33t33 93v69h-387v125h530v-174q0 -127 -98 -189h115v-168zM1428 1676h188l-1090 -1890h-188zM1813 189l116 -1v-167q0 -121 -78 -187t-224 -66
q-147 0 -226 66t-79 187v167h117q-101 62 -102 187v176h576v-176q0 -128 -100 -186zM1481 430l1 -74q0 -61 36 -94t102 -33h10q66 0 103 33t37 94v74h-289zM1787 21v94h-322v-94q0 -131 162 -132q160 1 160 132z" />
    <glyph glyph-name="fiveeighths" unicode="&#x215d;" horiz-adv-x="2058" 
d="M664 1155l-1 -1q0 -125 -81 -191t-231 -66q-135 0 -249 53v129q111 -57 236 -57q182 0 182 133v102h-422l15 422h518v-125h-379l-8 -172h420v-227zM1457 1676h189l-1090 -1890h-188zM1842 189l119 -1v-167q0 -121 -79 -187q-80 -66 -225 -66q-147 0 -226 66t-79 187v167
h116q-100 61 -100 187v176h576v-176q-2 -127 -102 -186zM1512 430l1 -74q0 -61 37 -94q38 -33 103 -33h10q66 0 102 33t36 94v74h-289zM1819 21v94h-322v-94q0 -131 162 -132q160 1 160 132z" />
    <glyph glyph-name="seveneighths" unicode="&#x215e;" horiz-adv-x="2029" 
d="M219 909l273 619v26h-418v125h561v-182l-260 -588h-156zM1430 1677h188l-1090 -1890h-188zM1815 190l116 -1v-167q0 -121 -78 -187t-224 -66q-147 0 -226 66t-79 187v167h117q-101 62 -102 187v176h576v-176q0 -128 -100 -186zM1483 431l1 -74q0 -61 36 -94t102 -33h10
q66 0 103 33t37 94v74h-289zM1789 22v94h-322v-94q0 -130 162 -132q160 1 160 132z" />
    <glyph glyph-name="arrowleft" unicode="&#x2190;" horiz-adv-x="1290" 
d="M498 135l-584 584v49l584 584l145 -146l-344 -346h1077v-231h-1077l344 -346z" />
    <glyph glyph-name="arrowup" unicode="&#x2191;" horiz-adv-x="1314" 
d="M543 0v1077l-348 -344l-146 146l584 583h49l584 -583l-148 -146l-346 344v-1077h-229z" />
    <glyph glyph-name="arrowright" unicode="&#x2192;" horiz-adv-x="1290" 
d="M793 135l-146 148l344 346h-1077v231h1077l-344 346l146 146l583 -584v-49z" />
    <glyph glyph-name="arrowdown" unicode="&#x2193;" horiz-adv-x="1314" 
d="M543 1462h229v-1077l346 344l148 -145l-584 -584h-49l-584 584l146 145l348 -344v1077z" />
    <glyph glyph-name="partialdiff" unicode="&#x2202;" horiz-adv-x="1277" 
d="M657 -25l-1 -1q-250 0 -384 114t-134 325v405h768q0 195 -147 285t-456 90v192q419 0 627 -156q209 -156 209 -486v-639q-203 -129 -482 -129zM656 165l-1 1q128 0 250 49v414h-538v-217q0 -121 74 -184q73 -63 215 -63z" />
    <glyph glyph-name="product" unicode="&#x220f;" horiz-adv-x="1417" 
d="M172 -324v1786h1073v-1786h-217v1606h-637v-1606h-219z" />
    <glyph glyph-name="summation" unicode="&#x2211;" horiz-adv-x="1417" 
d="M172 -324v162l502 731l-502 731v162h1073v-162h-803l451 -659v-143l-451 -660h803v-162h-1073z" />
    <glyph glyph-name="minus" unicode="&#x2212;" horiz-adv-x="1134" 
d="M135 567v181h864v-181h-864z" />
    <glyph glyph-name="uni2215" unicode="&#x2215;" horiz-adv-x="800" 
d="M25 -205l528 1741h223l-528 -1741h-223z" />
    <glyph glyph-name="uni2219" unicode="&#x2219;" horiz-adv-x="716" 
d="M246 442v248h225v-248h-225z" />
    <glyph glyph-name="radical" unicode="&#x221a;" horiz-adv-x="1290" 
d="M483 -324l-295 816h-163v159h315l266 -784l504 1595h205l-574 -1786h-258z" />
    <glyph glyph-name="infinity" unicode="&#x221e;" horiz-adv-x="1474" 
d="M1055 985h314v-590h-313q-96 0 -180 45q-85 45 -138 127q-52 -81 -137 -127q-84 -45 -180 -45h-314v590h314q96 0 180 -45q85 -46 137 -127q52 81 137 127q84 45 180 45zM423 532q80 0 144 43q65 44 96 115q-31 71 -96 115q-64 43 -144 43h-164v-316h164zM1054 532h164
v316h-164q-80 0 -144 -43q-65 -44 -96 -115q31 -71 96 -115q64 -43 144 -43z" />
    <glyph glyph-name="integral" unicode="&#x222b;" horiz-adv-x="749" 
d="M602 1462l97 -1v-186h-86q-67 0 -97 -30t-30 -97v-1227q0 -161 -82 -237t-258 -76h-98v186h86q68 0 98 30t30 97v1227q0 160 83 237t257 77z" />
    <glyph glyph-name="approxequal" unicode="&#x2248;" horiz-adv-x="1134" 
d="M61 711v307h488l137 -131h182v131h207v-307h-489l-137 131h-181v-131h-207zM61 297v307h488l137 -131h182v131h207v-307h-489l-137 131h-181v-131h-207z" />
    <glyph glyph-name="notequal" unicode="&#x2260;" horiz-adv-x="1134" 
d="M1004 764h-267l-123 -213h390v-178h-494l-98 -170h-181l99 170h-197v178h301l125 213h-426v178h531l96 166h178l-96 -166h162v-178z" />
    <glyph glyph-name="lessequal" unicode="&#x2264;" horiz-adv-x="1134" 
d="M907 256l-680 338v194l680 340v-196l-483 -240l483 -239v-197zM227 0v170h680v-170h-680z" />
    <glyph glyph-name="greaterequal" unicode="&#x2265;" horiz-adv-x="1134" 
d="M227 256v197l486 239l-486 240v196l680 -340v-194zM227 0v170h680v-170h-680z" />
    <glyph glyph-name="filledbox" unicode="&#x25a0;" horiz-adv-x="1710" 
d="M123 0v1462h1464v-1462h-1464z" />
    <glyph glyph-name="triagup" unicode="&#x25b2;" horiz-adv-x="1789" 
d="M49 0l846 1462l846 -1462h-1692z" />
    <glyph glyph-name="uni25B3" unicode="&#x25b3;" horiz-adv-x="1789" 
d="M49 0l846 1462l846 -1462h-1692zM113 37h1564l-782 1352z" />
    <glyph glyph-name="uni25B6" unicode="&#x25b6;" horiz-adv-x="1789" 
d="M164 -115v1692l1462 -846z" />
    <glyph glyph-name="uni25B7" unicode="&#x25b7;" horiz-adv-x="1789" 
d="M164 -115v1692l1462 -846zM201 -51l1351 782l-1351 782v-1564z" />
    <glyph glyph-name="triagdn" unicode="&#x25bc;" horiz-adv-x="1789" 
d="M895 0l-846 1462h1692z" />
    <glyph glyph-name="uni25BD" unicode="&#x25bd;" horiz-adv-x="1789" 
d="M49 1462h1692l-846 -1462zM113 1425l782 -1351l782 1351h-1564z" />
    <glyph glyph-name="uni25C0" unicode="&#x25c0;" horiz-adv-x="1789" 
d="M1626 -115l-1462 846l1462 846v-1692z" />
    <glyph glyph-name="uni25C1" unicode="&#x25c1;" horiz-adv-x="1789" 
d="M1626 -115l-1462 846l1462 846v-1692zM1589 -51v1564l-1351 -782z" />
    <glyph glyph-name="uni25C6" unicode="&#x25c6;" horiz-adv-x="1040" 
d="M520 100l-434 435l434 434l434 -434z" />
    <glyph glyph-name="lozenge" unicode="&#x25ca;" horiz-adv-x="1138" 
d="M408 0l-312 731l312 731h323l311 -731l-311 -731h-323zM559 211h21l215 520l-215 520h-21l-215 -520z" />
    <glyph glyph-name="uniF8FF" unicode="&#xf8ff;" horiz-adv-x="2129" 
d="M283 0h1q-37 0 -37 37v219q0 22 12 45l526 903q13 25 42 25h146q37 0 37 -37v-367q0 -19 -13 -45l-233 -403h209q37 0 37 -37v-303q0 -37 -37 -37h-690zM1158 0h-1q-37 0 -37 37v366q0 19 13 46l233 403h-209q-37 0 -37 37v303q0 37 37 37h690q37 0 37 -37v-219
q0 -23 -12 -45l-526 -903q-13 -25 -42 -25h-146z" />
    <glyph glyph-name="glyph1" horiz-adv-x="1228" 
 />
    <glyph glyph-name="glyph2" horiz-adv-x="681" 
 />
    <glyph glyph-name="M.aalt" horiz-adv-x="1597" 
d="M139 0l-1 1461h383l180 -522q49 -143 87 -273h21q28 101 88 274l178 522h385v-1462h-231v924q0 199 8 309h-23l-258 -758h-313l-260 758h-23q8 -103 9 -309v-924h-230z" />
    <glyph glyph-name="N.aalt" horiz-adv-x="1458" 
d="M1090 1462h229v-1462h-385l-541 1210h-33q7 -124 9 -278v-932h-230v1462h385l541 -1210h33q-8 133 -8 278v932z" />
    <glyph glyph-name="f_t.dlig" horiz-adv-x="1540" 
d="M1491 1069v-182h-221v-887h-223v887h-586v-887h-223v887h-189v182h189v393h489v-182h-266v-211h586v234h223v-234h221z" />
    <glyph glyph-name="t_t.dlig" horiz-adv-x="1531" 
d="M1483 1069v-182h-221v-887h-226v887h-540v-887h-226v887h-221v182h221v234h226v-234h540v234h226v-234h221z" />
    <glyph glyph-name="uni0E0D.aalt" horiz-adv-x="2029" 
d="M414 0l-1 -2q-137 0 -210 76q-74 77 -74 216v241q0 167 129 220v2h-43l-98 32v428h1036v-1028h348q185 0 187 183v845h225v-845q0 -182 -102 -275t-298 -93h-583v1028h-596v-182h209v-184h-90q-97 0 -99 -117v-248q0 -111 111 -111h102v-186h-153z" />
    <glyph glyph-name="uni0E0E.aalt" horiz-adv-x="1323" 
d="M150 1214l1039 -1v-1241q0 -178 -96 -270q-97 -92 -278 -92h-504v186h473q182 0 183 180v1051h-600v-182h206v-184h-88q-100 0 -100 -117v-299q0 -119 -64 -182q-65 -63 -183 -63h-90v186h41q39 0 56 15t17 53v278q0 167 131 220v2h-45l-98 32v428z" />
    <glyph glyph-name="uni0E0F.aalt" horiz-adv-x="1323" 
d="M150 1214h1039v-1320q0 -283 -299 -283h-96q-142 0 -179 106h-4q-37 -106 -178 -106h-223v186h225q94 0 94 90v52h168v-52q0 -90 93 -90h71q55 0 81 24q25 24 25 80v1126h-600v-182h206v-184h-88q-100 0 -100 -117v-299q0 -119 -64 -182q-65 -63 -183 -63h-90v186h41
q39 0 56 15t17 53v278q0 167 131 220v2h-45l-98 32v428z" />
    <glyph glyph-name="uni0E10.aalt" horiz-adv-x="1212" 
d="M408 0l-160 477q-17 56 -76 57h-74v184h146q80 0 123 -28t67 -100l135 -404h99q186 0 186 183v659h-756v186h568q213 0 213 170v72h223v-72q0 -160 -144 -229v-4h119v-782q0 -369 -397 -369h-272z" />
    <glyph glyph-name="uni0E24.aalt" horiz-adv-x="1288" 
d="M934 -266l-1 1293h-600v-182h209v-184h-90q-98 0 -99 -117v-248q0 -111 111 -111h102v-186h-153q-137 0 -210 76q-74 77 -74 216v241q0 168 129 220v2h-43l-98 32v428h1042v-1480h-225z" />
    <glyph glyph-name="uni0E26.aalt" horiz-adv-x="1323" 
d="M150 1214l1040 -1v-1480h-223v1294h-600v-182h206v-184h-88q-100 0 -100 -117v-299q0 -119 -64 -182q-65 -63 -183 -63h-90v186h41q39 0 56 15t17 53v278q0 167 131 220v2h-45l-98 32v428z" />
    <glyph glyph-name="uni0E2C.aalt" horiz-adv-x="1603" 
d="M252 0l-160 1213h227l107 -1001h37l194 735h336l195 -735h39l82 815h-258v186h61q90 0 138 54t48 150v146h226v-133q0 -187 -152 -273v-4h176l-149 -1153h-355l-198 752h-39l-199 -752h-356z" />
    <glyph glyph-name="uni0E31.aalt" 
d="M-688 1393h1q-279 0 -279 233v113h209v-109q0 -40 18 -58t63 -18h578v-161h-590z" />
    <glyph glyph-name="glyph740" 
d="M-293 1901v370h195v-370h-195z" />
    <glyph glyph-name="glyph741" 
d="M-293 1393v391h195v-391h-195z" />
    <glyph glyph-name="glyph742" 
d="M-420 2044h322v-143h-643v122l75 127v4q-117 -6 -118 -6h-31v127h317v-110l-75 -129h4q67 8 149 8z" />
    <glyph glyph-name="glyph743" 
d="M-430 1536h332v-143h-654v123l82 137v4q-117 -6 -118 -6h-37v127h323v-111l-82 -139h4q69 8 150 8z" />
    <glyph glyph-name="glyph744" 
d="M-254 2302h154v-154q0 -118 -69 -183q-68 -64 -193 -64h-203v198q-74 -92 -192 -92q-121 0 -190 92v-198h-156v333h191q51 -96 155 -96q107 0 159 96h188v-194h50q106 0 106 114v148z" />
    <glyph glyph-name="glyph745" 
d="M-254 1868h158v-230q0 -119 -66 -182t-189 -63h-209v260q-84 -84 -205 -84q-123 0 -203 84v-260h-155v407h180q68 -98 177 -98t180 98h178v-270h54q100 0 100 115v223z" />
    <glyph glyph-name="glyph746" 
d="M-147 2181h49v-139h-49q-67 0 -126 8h-13q6 -56 6 -117v-32h-194v32q0 61 6 117h-12q-61 -8 -125 -8h-51v139h51q64 0 125 -8h12q-6 59 -6 117v32h194v-32q0 -57 -6 -117h13q59 8 126 8z" />
    <glyph glyph-name="glyph747" 
d="M-715 1901v294h617v-161h-416v-133h-201z" />
    <glyph glyph-name="glyph748" 
d="M-762 1393v331h664v-161h-455v-170h-209z" />
    <glyph glyph-name="uni0E47.aalt" 
d="M-283 1655h184v-56q0 -101 -55 -153q-56 -53 -157 -53h-68q-122 0 -160 92h-4q-39 -92 -159 -92h-70q-100 0 -156 53q-55 52 -55 153v324h868v-158h-686v-157q0 -78 78 -78h25q78 0 77 78v47h160v-47q0 -78 76 -78h27q76 0 75 78v47z" />
    <glyph glyph-name="uni0E34.aalt" 
d="M-98 1554v-161h-768v161h768z" />
    <glyph glyph-name="uni0E35.aalt" 
d="M-307 1735h209v-342h-768v161h405q91 0 150 -8h4v189z" />
    <glyph glyph-name="uni0E36.aalt" 
d="M-326 1839l2 -1q103 0 165 -61q63 -61 63 -162t-63 -162q-62 -61 -166 -61h-637v161h291q60 0 125 -4q-8 29 -8 66q0 101 63 162q64 62 165 62zM-325 1527h-2q39 0 63 24t24 63t-24 63t-63 24q-41 0 -65 -24t-24 -63t26 -63t65 -24z" />
    <glyph glyph-name="uni0E37.aalt" 
d="M-266 1747h168v-354h-785v161h154q90 0 151 -8h3v201h167v-201h142v201z" />
    <glyph glyph-name="uni0E48_uni0E4D.ccmp" 
d="M-424 2003v371h195v-371h-195zM-565 1616l-2 -2q0 100 65 162t169 62q105 0 169 -61q65 -62 65 -162q0 -101 -64 -162t-169 -61q-104 0 -169 62q-64 61 -64 162zM-422 1614h-2q0 -39 24 -63t63 -24t65 24t26 63t-24 63t-65 24q-39 0 -63 -24t-24 -63z" />
    <glyph glyph-name="uni0E49_uni0E4D.ccmp" 
d="M-221 2146h321v-143h-643v123l76 127v4q-117 -6 -119 -6h-30v127h317v-111l-76 -129h4q69 8 150 8zM-332 1839l-2 -2q105 0 169 -61q65 -62 65 -162q0 -101 -64 -162t-169 -61q-104 0 -169 62q-64 61 -64 162q0 100 65 162t169 62zM-335 1526h-2q39 0 65 24t26 63t-24 63
t-65 24q-39 0 -63 -24t-24 -63t24 -63t63 -24z" />
    <glyph glyph-name="uni0E4A_uni0E4D.ccmp" 
d="M272 2404l157 -1v-153q0 -118 -69 -183q-68 -64 -193 -64h-203v199q-74 -92 -192 -93q-122 0 -192 93v-199h-155v334h190q51 -96 156 -96q106 0 157 96h189v-195h49q106 0 106 115v147zM-331 1838l-2 -2q105 0 169 -61q65 -62 65 -162q0 -101 -64 -162t-169 -61
q-104 0 -169 62q-64 61 -64 162q0 100 65 162t169 62zM-334 1525h-2q40 0 65 24q26 24 26 63t-24 63t-65 24q-39 0 -63 -24t-24 -63t24 -63t63 -24z" />
    <glyph glyph-name="uni0E4B_uni0E4D.ccmp" 
d="M-98 2284h49v-140h-49q-67 0 -126 8h-13q5 -50 7 -117v-33h-195v33q0 61 6 117h-12q-61 -8 -125 -8h-51v140h51q68 0 125 -9h12q-6 59 -6 117v33h195v-33q0 -61 -7 -117h13q56 9 126 9zM-332 1839l-2 -2q105 0 169 -61q65 -62 65 -162q0 -101 -64 -162t-169 -61
q-104 0 -169 62q-64 61 -64 162q0 100 65 162t169 62zM-335 1526h-2q39 0 65 24t26 63t-24 63t-65 24q-39 0 -63 -24t-24 -63t24 -63t63 -24z" />
    <glyph glyph-name="uni0E3A.aalt" 
d="M-336 -297l1 1q0 53 33 86t88 33q52 0 84 -33q32 -34 32 -86q0 -51 -33 -84t-84 -33q-54 0 -88 32q-33 31 -33 84z" />
    <glyph glyph-name="uni0E38.aalt" 
d="M-291 -557v227q-59 -6 -119 -6h-45v158h357v-379h-193z" />
    <glyph glyph-name="uni0E39.aalt" 
d="M-285 -178l186 1v-146q0 -233 -271 -233h-286v225q-59 -8 -127 -8h-25v162h338v-221h96q50 0 69 18q20 18 20 63v139z" />
    <glyph glyph-name="glyph761" 
d="M-154 1690h56v-140h-56q-72 0 -127 9h-10q6 -55 6 -117v-49h-194v49q0 84 4 117h-10q-56 -8 -127 -9h-56v140h56q72 0 127 -9h10q-4 35 -4 117v49h194v-49q0 -57 -6 -117h10q56 9 127 9z" />
    <glyph glyph-name="uni0E4D.aalt" 
d="M-332 1393l-2 -2q-104 0 -169 62q-64 61 -64 162q0 100 65 162t169 62q105 0 169 -61q65 -62 65 -162q0 -101 -64 -162t-169 -61zM-335 1526h-2q39 0 65 24t26 63t-24 63t-65 24q-39 0 -63 -24t-24 -63t24 -63t63 -24z" />
    <glyph glyph-name="glyph763" 
d="M-424 2003v371h195v-371h-195zM-565 1616l-2 -2q0 100 65 162t169 62q105 0 169 -61q65 -62 65 -162q0 -101 -64 -162t-169 -61q-104 0 -169 62q-64 61 -64 162zM-422 1614h-2q0 -39 24 -63t63 -24t65 24t26 63t-24 63t-65 24q-39 0 -63 -24t-24 -63z" />
    <glyph glyph-name="glyph764" 
d="M-418 2146h320v-143h-641v123l75 127v4q-6 0 -36 -2q-22 -1 -42 -3q-13 -1 -39 -1h-33v127h317v-111l-75 -129h4q69 8 150 8zM-530 1839l-1 -2q108 0 170 -61q63 -62 63 -162t-63 -162q-62 -61 -169 -61q-103 0 -168 62q-64 61 -64 162t64 162q65 62 168 62zM-532 1526
h-2q40 0 65 24q26 24 26 63t-24 63t-65 24q-39 0 -63 -24t-24 -63t24 -63t63 -24z" />
    <glyph glyph-name="glyph765" 
d="M-248 2404l155 -1v-153q0 -118 -69 -183q-68 -64 -193 -64h-203v199q-77 -92 -193 -93q-119 0 -192 93v-199h-154v334h191q50 -96 156 -96t156 96h191v-195h49q106 0 106 115v147zM-853 1838l-1 -2q104 0 168 -61q65 -62 65 -162t-65 -162q-64 -61 -168 -61
q-103 0 -168 62q-64 61 -64 162q0 100 65 162t168 62zM-854 1525h-2q39 0 63 24t24 63t-24 63t-63 24q-41 0 -65 -24t-24 -63t26 -63q25 -24 65 -24z" />
    <glyph glyph-name="glyph766" 
d="M-98 2284h49v-140h-49q-67 0 -126 8h-13q5 -50 7 -117v-33h-195v33q0 61 6 117h-12q-61 -8 -125 -8h-51v140h51q68 0 125 -9h12q-6 59 -6 117v33h195v-33q0 -61 -7 -117h13q56 9 126 9zM-332 1839l-2 -2q105 0 169 -61q65 -62 65 -162q0 -101 -64 -162t-169 -61
q-104 0 -169 62q-64 61 -64 162q0 100 65 162t169 62zM-335 1526h-2q39 0 65 24t26 63t-24 63t-65 24q-39 0 -63 -24t-24 -63t24 -63t63 -24z" />
    <glyph glyph-name="glyph767" horiz-adv-x="870" 
d="M338 1569l164 360h241v-76l-206 -284h-199zM123 1192v270h205v-270h-205zM532 1192v270h205v-270h-205z" />
    <glyph glyph-name="glyph768" horiz-adv-x="870" 
d="M530 1569h-198l-207 284v76h242zM133 1192v270h205v-270h-205zM541 1192v270h207v-270h-207z" />
    <glyph glyph-name="glyph769" horiz-adv-x="995" 
d="M412 1561l163 360h242v-78l-207 -282h-198zM682 1470l203 -2q-19 -134 -123 -214q-103 -79 -259 -79q-155 0 -258 80q-102 80 -122 215h205q33 -137 176 -137q145 0 178 137z" />
    <glyph glyph-name="glyph770" horiz-adv-x="995" 
d="M594 1561h-199l-207 282v78h242zM682 1470l203 -2q-19 -134 -123 -214q-103 -79 -259 -79q-155 0 -258 80q-102 80 -122 215h205q33 -137 176 -137q145 0 178 137z" />
    <glyph glyph-name="glyph771" horiz-adv-x="995" 
d="M455 2105h-2q124 0 200 -56q75 -55 75 -153v-223h-244l66 -112h-172l-115 165v84h273v70q0 88 -117 88q-84 0 -168 -39v137q103 39 204 39zM680 1470l203 -2q-19 -134 -123 -214q-103 -79 -259 -79q-155 0 -258 80q-102 80 -122 215h205q33 -137 176 -137q145 0 178 137z
" />
    <glyph glyph-name="glyph772" horiz-adv-x="1024" 
d="M121 1561v231h371l94 -88h106v88h189v-231h-371l-92 88h-107v-88h-190zM711 1470l200 -2q-19 -134 -122 -214q-101 -79 -258 -79q-155 0 -258 80q-102 80 -122 215h202q33 -137 178 -137q142 0 180 137z" />
    <glyph glyph-name="glyph773" horiz-adv-x="983" 
d="M385 1569l164 360h242v-76l-205 -284h-201zM635 1462l225 -211v-75h-227l-125 163h-31l-127 -163h-227v75l225 211h287z" />
    <glyph glyph-name="glyph774" horiz-adv-x="983" 
d="M578 1569h-199l-207 284v76h242zM635 1462l225 -211v-75h-227l-125 163h-31l-127 -163h-227v75l225 211h287z" />
    <glyph glyph-name="glyph775" horiz-adv-x="983" 
d="M487 2114l1 1q125 0 200 -57t75 -151v-224h-244l66 -114h-170l-117 168v84h272v69q0 86 -116 86q-84 0 -168 -37v138q102 37 201 37zM636 1463l225 -211v-75h-227l-125 163h-31l-127 -163h-227v75l225 211h287z" />
    <glyph glyph-name="glyph776" horiz-adv-x="1003" 
d="M121 1569v231h371l92 -88h106v88h189v-231h-371l-92 88h-107v-88h-188zM655 1462l226 -211v-75h-228l-127 163h-30l-127 -163h-228v75l226 211h288z" />
    <glyph glyph-name="glyph777" horiz-adv-x="966" 
d="M625 1855h227v-75l-225 -211h-287l-225 211v75h227l125 -163h31zM176 1192v270h205v-270h-205zM584 1192v270h207v-270h-207z" />
    </font>
</defs>
</svg>
