<?xml version="1.0" encoding="utf-8"?>
<!-- Generator: Adobe Illustrator 21.0.2, SVG Export Plug-In . SVG Version: 6.00 Build 0)  -->
<svg version="1.1" xmlns="http://www.w3.org/2000/svg" xmlns:xlink="http://www.w3.org/1999/xlink" x="0px" y="0px"
	 viewBox="0 0 214.6 151.8" style="enable-background:new 0 0 214.6 151.8;" xml:space="preserve">
<style type="text/css">
	.st0{fill:#C93D18;}
</style>
<g id="Layer_1">
</g>
<g id="Layer_4">
</g>
<g id="Layer_3">
	<g>
		<path class="st0" d="M84.2,49.6c-9,0-16.8,5.9-19.5,14.1V18.9h0V0.5c0-0.3-0.2-0.5-0.5-0.5s-0.5,0.2-0.5,0.5v18.4h0v51.2
			c0,0,0,0,0,0l0,39.9v0.1h0.1c0.6-10.8,9.6-19.4,20.5-19.4c11,0,19.9,8.6,20.5,19.4h0.1v-40C104.8,58.9,95.5,49.6,84.2,49.6z"/>
		<circle class="st0" cx="173.9" cy="16.3" r="3"/>
		<path class="st0" d="M49.9,49.5L49.9,49.5c-0.1,0.2-0.1,0.4-0.1,0.6c-0.6,10.5-9.3,18.8-20,18.8c-11,0-20-8.9-20-19.9v-0.2v-0.4
			v-23h14.9h4.5c0.3,0,0.5-0.2,0.5-0.5s-0.2-0.5-0.5-0.5h-4.5H9.8V19h0V0.6C9.8,0.3,9.5,0,9.2,0S8.7,0.3,8.7,0.6V19h0v5.4H5H0.5
			c-0.3,0-0.5,0.2-0.5,0.5s0.2,0.5,0.5,0.5H5h3.7v18.9h0v16.6h0v26.9h0v1.8c0,11.3,9.3,20.6,20.6,20.6c11.3,0,20.6-9.3,20.6-20.6
			L49.9,49.5z"/>
		<path class="st0" d="M159.7,40.9c0-0.7-0.1-1.4-0.2-2.1c-0.2-1.4-0.5-2.7-1-4c-0.9-2.5-2.3-4.5-4.3-6.2c-1.6-1.3-3.3-2.3-5.1-3
			c-1.8-0.7-3.6-1.1-5.5-1.2c-1.9-0.1-3.7,0.1-5.6,0.5c-2.1,0.4-4.2,1.1-6.2,1.9c-3.1,1.2-6.1,2.8-8.9,4.6c-0.2,0.1-0.3,0.3-0.3,0.6
			c0,0.4,0.5,0.7,0.8,0.5c0.1,0,0.1-0.1,0.2-0.1c1.2-0.8,2.5-1.6,3.7-2.3c2.6-1.4,5.1-2.6,7.8-3.4c2.2-0.7,4.6-1.1,6.9-1.2
			c1.2,0,3,0.2,4.2,0.5c2.4,0.5,4,1.2,6,2.6c2.3,1.6,4.2,4.1,5.2,6.8c0.4,1.2,0.6,2.1,0.8,3.4c0.1,0.4,0,0.9,0.1,1.3v1.3h0v7.9h0
			c0,1.1,0,2.1,0,3.2c0,0.1,0,0.3,0,0.4c-0.1,0.6-0.2,1.2-0.3,1.8c-1.1,5.3-4.7,9.3-8.1,11.5c-2.4,1.5-5,2.4-7.7,2.8
			c-0.6,0.1-3.9,0.3-5.9-0.1c-2.6-0.6-4.9-1.9-6.7-3.9c-2-2.3-2.9-5.1-2.6-8.2c0.2-1.6,0.7-3.1,1.5-4.5c1.4-2.2,3.3-3.7,5.7-4.7
			c0.1,0,0.2-0.1,0.2-0.1c0,0,0,0,0,0c0,0-0.1,0-0.1,0c-0.7,0.2-1.5,0.4-2.2,0.6c-1.9,0.5-3.7,1.2-5.4,2c-1.5,0.7-2.8,1.6-3.9,2.7
			c-1.7,1.8-2.8,3.9-3.5,6.2c-0.5,1.8-0.7,3.7-0.7,5.6c0,3.3,0,6.7,0,10c0,5,0,9.9,0,14.9c0,0.8,0,1.6,0.1,2.3
			c0.1,1.1,0.3,2.3,0.6,3.4c1.6,5.5,4.9,9.7,9.8,12.6c2.6,1.5,5.5,2.3,8.5,2.6c1.1,0.1,2.2,0.1,3.3,0c1.6-0.1,3.1-0.4,4.6-0.9
			c5.7-1.9,10.3-6.1,12.6-11.6c0.8-1.9,1.3-4,1.5-6c0.1-0.8,0.1-1.5,0.1-2.3c0-9.5,0-19,0-28.5c0-5.4,0-10.9,0-16.3h0v-2.8"/>
		<path class="st0" d="M214.6,49.5L214.6,49.5c-0.1,0.2-0.1,0.4-0.1,0.6c-0.6,10.5-9.3,18.8-20,18.8c-11,0-19.9-8.8-20-19.8V38.3h0
			v-4.9h0v-8.6c0-0.3-0.2-0.5-0.5-0.5s-0.5,0.2-0.5,0.5v5.4l0,3.2v4.9h0l0,6h0v16.6h0v26.9h0v1.8c0,11.3,9.3,20.6,20.6,20.6
			c11.3,0,20.6-9.3,20.6-20.6L214.6,49.5z"/>
		<g>
			<g>
				<path class="st0" d="M19.2,123.8l4.8,12l4.9-12h10.4v27.7h-8.7v-14.1l-3.5,9.4h-6.1l-3.5-9.4v14.1H8.7v-27.7H19.2z"/>
				<path class="st0" d="M57,151.8c-4.4,0-7.5-1-9.5-2.9c-2-1.9-3-4.9-3-9.1v-4.7c0-8.3,3.8-11.9,12.5-11.9s12.5,3.6,12.5,11.9v4.7
					c0,4.2-1,7.2-3,9.1C64.5,150.9,61.3,151.8,57,151.8z M57,144.8c1.3,0,2.1-0.3,2.6-1c0.4-0.6,0.6-1.9,0.6-3.9v-4.7
					c0-3.9-0.7-4.9-3.2-4.9c-2.5,0-3.2,1-3.2,4.9v4.7c0,2,0.2,3.2,0.7,3.9C54.9,144.5,55.7,144.8,57,144.8z"/>
				<path class="st0" d="M83.2,151.4h-8.6v-27.7h8.6l7.1,13.4v-13.4h8.6v27.7h-8.6l-7.1-13.5V151.4z"/>
				<path class="st0" d="M116.5,135.3h11.2v15.1c-3.6,1-7,1.5-10.2,1.5c-9.6,0-13.5-3.7-13.5-12.2v-4.1c0-8.5,4.2-12.2,14.4-12.2
					c2.4,0,5.2,0.3,8.6,1v7.5c-3.6-0.8-6.4-1.2-8.5-1.2c-3.7,0-5.1,1.1-5.1,4.3v5.3c0,3.5,0.9,4.5,4,4.5c0.4,0,1.2,0,2.4-0.1v-3.2
					h-3.2V135.3z"/>
				<path class="st0" d="M142.2,141.3v10.2h-9.1v-27.7h9.1v9.8h0.9c2.2-3.1,4-6.4,5.6-9.8h10.1c-2.2,4.4-4.9,8.7-7.9,12.9
					c2.7,3.8,5.5,8.7,8.4,14.7h-10.8c-1.8-4.2-3.6-7.6-5.4-10.2H142.2z"/>
				<path class="st0" d="M187,141.8c0,6.7-4,10.1-11.9,10.1c-7.9,0-11.9-3.4-11.9-10.1v-18h9.3v18c0,2.2,0.7,3,2.6,3s2.6-0.8,2.6-3
					v-18h9.3V141.8z"/>
				<path class="st0" d="M191.7,131.2v-7.4h22.8v7.4h-6.9v20.3h-9.1v-20.3H191.7z"/>
			</g>
		</g>
	</g>
</g>
</svg>
